<?xml version="1.0" standalone="no"?>
<!DOCTYPE svg PUBLIC "-//W3C//DTD SVG 1.1//EN" "http://www.w3.org/Graphics/SVG/1.1/DTD/svg11.dtd" >
<svg xmlns="http://www.w3.org/2000/svg">
<metadata></metadata>
<defs>
<font id="salamander_script_boldregular" horiz-adv-x="827" >
<font-face units-per-em="2048" ascent="1536" descent="-512" />
<missing-glyph horiz-adv-x="368" />
<glyph unicode="&#xfb01;" horiz-adv-x="980" d="M23 336q-3 34 23 71t65 60q4 36 4 59q13 169 48 307t83.5 229t109.5 157t124 99.5t129.5 47t123.5 8.5t107 -24q97 -36 141.5 -124.5t15.5 -172.5q-13 -39 -59.5 -75.5t-124.5 -45.5q-74 -9 -126 12.5t-58 73.5q-7 57 39 95t110 46q45 5 81 -2.5t50 -19.5 q6 56 -18.5 100.5t-83.5 65.5q-26 9 -53.5 9t-58.5 -10.5t-61 -31.5t-61 -57t-59 -84t-54.5 -115.5t-48 -148.5t-39 -185.5t-28.5 -224.5q33 -13 68.5 -37.5t56.5 -50.5q35 25 61.5 54.5t46 67.5t31 66.5t27.5 77.5q2 11 5 31t6 36.5t7 32.5q4 17 75 27t138.5 6t61.5 -21 q-83 -231 -97.5 -434t48.5 -245q61 -43 130.5 -5t86.5 127q8 35 29 42q17 6 20 -15q1 -9 -2 -22q-29 -126 -130.5 -180t-203.5 -1q-73 39 -125.5 155t-42.5 267q-11 -19 -26 -36t-26 -27t-35.5 -29.5t-37.5 -30.5q75 -106 110.5 -225t29.5 -224t-40.5 -194t-99.5 -145.5 t-147 -67.5q-41 -6 -80.5 19t-75 84.5t-62 148.5t-40.5 222.5t-11 295.5q-71 20 -77 111zM291.5 -241q-0.5 -53 2.5 -99t10.5 -75t19 -49t27.5 -27.5t38 -4.5q42 6 70.5 93.5t34.5 204t-14.5 246t-65.5 210.5q-19 -10 -92 -35q-10 -104 -16 -183.5t-10 -153.5t-4.5 -127z M326 297q6 2 17 5t21.5 6.5t20.5 8.5q-11 32 -49 66z" />
<glyph unicode="&#xfb02;" horiz-adv-x="1361" d="M33 653q-5 4 13 44t39.5 75.5t27.5 28.5q66 -78 155 -117q17 150 52 269.5t77.5 195t95.5 128t104 76.5t105 32t96.5 2.5t80.5 -19.5q87 -32 115 -127t2 -210t-91 -226q-48 -84 -125 -150t-154 -96.5t-134 -21.5l-7 -74q98 -33 161.5 -64t107.5 -75q72 40 130.5 123.5 t121.5 222.5q15 242 84 731q2 14 72.5 23.5t139.5 8.5t66 -14q-165 -710 -184 -1016.5t100 -349.5q40 -15 92 10t90.5 67.5t51.5 80.5q13 35 33 41q14 4 15 -14q1 -9 -3 -23q-9 -33 -41 -75.5t-79.5 -80t-104.5 -52.5t-117 5q-108 40 -168 176t-54 359q-40 -84 -98 -151.5 t-113 -108.5q60 -74 83 -166t11 -179.5t-47.5 -173t-87 -151.5t-114.5 -110t-123 -52q-41 -6 -80.5 18.5t-74.5 83t-61 146.5t-40 219.5t-12 290.5q-71 40 -80 123q-3 35 23 70.5t67 58.5l4 82q0 3 1 9t1 9q-53 10 -82 17.5t-70 25.5t-73 45zM434 -212q-2 -82 3 -133 t16 -88.5t30 -51.5t47 -11q57 8 99.5 53.5t63 118t22.5 159t-19.5 184t-64.5 186.5q-82 -28 -174 -25q-10 -129 -15.5 -219.5t-7.5 -172.5zM463 244q20 -7 65 -3t80 17q-14 41 -51.5 82t-79.5 59q-5 -49 -14 -155zM502 631q62 -21 170 45.5t170 175.5q80 142 83 288.5 t-81 180.5q-14 5 -28 6t-33.5 -3.5t-38 -16.5t-40.5 -36t-42.5 -59t-42.5 -89t-42 -122.5t-39.5 -163t-35.5 -206.5z" />
<glyph horiz-adv-x="0" />
<glyph horiz-adv-x="682" />
<glyph unicode=" "  horiz-adv-x="368" />
<glyph unicode="&#x09;" horiz-adv-x="368" />
<glyph unicode="&#xa0;" horiz-adv-x="368" />
<glyph unicode="!" horiz-adv-x="661" d="M219 63q-2 30 23.5 59t74.5 32q51 6 82.5 -16.5t34.5 -53.5q2 -29 -23.5 -59t-74.5 -35q-52 -3 -83 19.5t-34 53.5zM299 383q12 95 19 239.5t18 386.5t26 470q1 15 76.5 25t149.5 9t71 -14q-37 -142 -100.5 -375t-87.5 -327.5t-51.5 -225.5t-40.5 -237q-2 -16 -26 -24 q-34 -11 -49 20q-9 19 -5 53z" />
<glyph unicode="&#x22;" horiz-adv-x="626" d="M51 1401q3 21 121 27q116 6 135 -10q3 -2 2 -5q-60 -118 -117 -305.5t-71 -308.5q-1 -18 -19 -24q-25 -9 -35 27q-5 19 -4 48q0 13 -8.5 205t-3.5 346zM345.5 1060.5q-4.5 198.5 0.5 348.5q3 21 121 27q116 6 135 -10q3 -2 2 -5q-62 -120 -122.5 -312t-73.5 -310 q-1 -18 -19 -24q-25 -9 -35 27q-5 19 -4 48q0 12 -4.5 210.5z" />
<glyph unicode="#" horiz-adv-x="1417" d="M68 403q12 15 49 21h8q1 0 3.5 1t4.5 1h6q3 0 11 1t12 1l119 6q130 417 174 557l-156 6h-59h-7q-19 1 -25 18q-9 25 32 38q16 6 39 8q3 0 200 8q63 202 146 440q7 20 135 11q123 -8 138 -26q2 -3 1 -5q-111 -200 -215 -412l293 15q78 244 139 417q7 20 135 11 q122 -8 139 -26q2 -3 1 -5q-82 -146 -203 -383l61 6q14 1 29 -56t17 -105t-9 -52q-67 21 -182 35q-111 -230 -215 -473q193 14 207 16q14 0 28 -53t17 -94q1 -16 1 -27.5t-0.5 -21.5t-2.5 -14t-6 -3q-90 28 -308 51l-45 -108l-82 -215q-5 -9 -15.5 -15.5t-20.5 -5.5 q-18 2 -23.5 18.5t8.5 61.5q19 50 90 273q-246 23 -387 30l-63 -149l-80 -213q-5 -9 -16 -15.5t-21 -5.5q-43 4 -14 80q19 49 102 307q-94 4 -119 4h-47q-6 0 -12 3q-1 0 -3 1t-3 1q-22 17 -6 36zM387 436l391 19q6 18 64 205.5t92 293.5q-164 17 -299 25 q-120 -247 -248 -543z" />
<glyph unicode="$" horiz-adv-x="1210" d="M27 362.5q6 78.5 55 139.5q51 65 142 105t201 44.5t224 -39.5l6 123l-18 10q-132 66 -205.5 167t-73 215t77.5 216q77 104 256 150q2 47 8 126t7 105q1 15 50.5 25t98 9.5t45.5 -13.5q-26 -102 -51 -229q205 7 321 -84q78 -64 80 -166t-80 -172q-84 -72 -196 -79t-193 52 l-18 -147q46 -26 78 -39q140 -63 231 -137.5t131 -153.5t46 -167.5t-25 -180.5q-44 -154 -198.5 -246t-352.5 -100l-12 -138q-2 -17 -22 -24q-26 -11 -36 21q-6 19 -2 52l8 89q-157 6 -291 63q-94 40 -164 107.5t-102 142.5t-26 153.5zM229.5 237q6.5 -71 52 -135.5 t124.5 -97.5q96 -41 208 -41q10 131 29 539q-52 48 -113.5 60.5t-116 -6.5t-98.5 -62q-48 -47 -70 -116.5t-15.5 -140.5zM557.5 1171q14.5 -97 108.5 -182l22 432q-51 -33 -82 -75q-63 -78 -48.5 -175zM680 -33q122 15 214 85t126 181q75 248 -279 455l-12 -117 q134 -80 221 -235q3 -6 -13 -17t-41.5 -21.5t-53 -19.5t-46 -11t-22.5 5q-23 79 -59 140zM788 1110q60 -49 140.5 -46t136.5 60q33 33 42 79.5t-12.5 99t-72.5 94.5q-84 67 -182 67q-39 -242 -52 -354z" />
<glyph unicode="%" horiz-adv-x="1716" d="M25 1065q11 105 51.5 198.5t99.5 158t133 101t150 33.5q37 -2 69.5 -14.5t42.5 -34.5q7 -25 -14.5 -35.5t-47 -9t-32.5 7.5q-7 5 -26.5 12t-30.5 7q-32 2 -57.5 -8.5t-44.5 -36t-32.5 -57t-23.5 -80.5t-17 -98.5t-14 -118.5q-18 -173 -15 -244q11 -199 140 -209 q33 -2 59 11t44 40t30.5 62t20 84t11 98.5t5.5 111.5q4 156 2 205q-46 27 -65.5 55t-14 50.5t25 42t47.5 31.5t56.5 18.5t49.5 3.5q106 -12 127 -182q80 10 151 83.5t127 188.5q4 4 8 4q19 10 92.5 12t138 -3.5t58.5 -16.5q-213 -382 -416.5 -811t-302.5 -686 q-6 -17 -27 -20q-26 -4 -29 24q-2 21 11 55q35 95 175.5 533t232.5 706q-72 -72 -107 -94t-108 -29q3 -64 0 -145q-4 -135 -61.5 -252t-157.5 -185.5t-215 -58.5q-132 11 -224.5 157.5t-74.5 334.5zM963 494q20 212 148 354.5t284 136.5q80 -4 150.5 -71.5t111.5 -179.5 t37 -236q-4 -135 -61 -251.5t-157 -185t-216 -59.5q-85 7 -158 75.5t-112.5 181t-26.5 235.5zM1167 520q-36 -437 125 -452q43 -4 76.5 33.5t53 101t30 131.5t12.5 139q6 229 -16 335.5t-92 109.5q-77 6 -123.5 -96.5t-65.5 -301.5z" />
<glyph unicode="&#x26;" horiz-adv-x="1466" d="M88 231q-30 161 43 324.5t250 310.5q-26 130 -19 213q7 81 46.5 151.5t95.5 116t120.5 71.5t123.5 26q83 0 164.5 -44t80.5 -108q-1 -50 -29 -99t-79 -92.5t-96.5 -76t-108 -71.5t-88.5 -58q80 -359 485 -670q39 72 16 154.5t-88.5 158.5t-146.5 119q-9 6 36 57 t99.5 96.5t69.5 39.5q100 -47 142 -165.5t19 -255t-100 -239.5q149 -110 375 -233q22 -13 -51 -61q-81 -53 -142 -68q-23 -5 -30 0q-186 139 -334 266q-120 -90 -262.5 -127.5t-264.5 -21t-213.5 91t-113.5 194.5zM294 589.5q-6 -48.5 2 -105t20 -93.5t30 -82 q49 -117 149.5 -178.5t208.5 -58.5t193 59q-398 355 -498 670q-48 -49 -73.5 -106t-31.5 -105.5zM575 1120q-4 -93 7 -168q95 67 141.5 132t62.5 180q16 147 -63 147q-53 0 -96 -82t-52 -209z" />
<glyph unicode="'" horiz-adv-x="331" d="M51 1401q3 21 121 27q116 6 135 -10q3 -2 2 -5q-60 -118 -117 -305.5t-71 -308.5q-1 -18 -19 -24q-25 -9 -35 27q-5 19 -4 48q0 13 -8.5 205t-3.5 346z" />
<glyph unicode="(" horiz-adv-x="1153" d="M31.5 155.5q-19.5 174.5 19.5 407.5q27 150 78.5 284.5t117 235.5t142.5 186t157 141t160 95.5t152 55t131.5 13t100.5 -23.5q3 0 -9 -15.5t-31.5 -27.5t-35.5 -6q-29 13 -64.5 13t-77.5 -13.5t-86.5 -40t-91 -69.5t-92 -98.5t-89 -131t-81.5 -162.5t-70.5 -197.5 t-54.5 -232.5q-74 -415 -21.5 -646t218.5 -234q9 0 1 -22q-13 -37 -49 -42h-10q-93 2 -178.5 61.5t-151 177t-85 292z" />
<glyph unicode=")" horiz-adv-x="1153" d="M63 -352q-3 1 9 16.5t31.5 27.5t35.5 5q26 -11 57.5 -12t68 8t76.5 30.5t81 53t83 77.5t82 101.5t78 128t71 154.5t61.5 182.5t48.5 210.5q74 415 21.5 645t-220.5 235q-9 0 -1 22q13 37 49 42h10q94 -2 180 -62t151.5 -177.5t85 -292t-19.5 -406.5 q-28 -151 -79.5 -285.5t-116.5 -235.5t-142.5 -186t-157.5 -141t-160 -95.5t-151.5 -55t-131 -13.5t-100.5 23z" />
<glyph unicode="*" horiz-adv-x="856" d="M72 840q-12 24 24 39q18 7 45 10l146 12l-90 125q-7 13 34 53t85.5 69.5t48.5 16.5q20 -94 53 -198q16 32 45 97t37 83q10 18 106 -17q88 -33 99 -53q2 -4 0 -6q-77 -70 -144 -145q36 3 131 16q14 0 29.5 -57t18 -105t-8.5 -53q-131 39 -246 59q57 -140 105 -217 q12 -15 0 -32q-16 -23 -50 7q-13 11 -26 29q-6 7 -111 160q-66 -87 -102 -155q-8 -17 -28 -17q-24 1 -21 36q2 20 14 48l78 164q-150 19 -244 16q-19 -3 -28 15z" />
<glyph unicode="+" horiz-adv-x="856" d="M92 440q-13 23 23 37q17 7 45 10q49 6 188 25l-24 229q-1 14 66.5 29t124.5 17t63 -9q-29 -86 -70 -246l203 23q14 1 29 -66.5t17 -124.5t-9 -63q-101 34 -271 74q-25 -135 -22 -225q1 -19 -17 -28q-24 -12 -38 25q-7 17 -9 43q-2 16 -12 85.5t-17 121.5q-153 30 -243 27 q-18 -1 -27 16z" />
<glyph unicode="," horiz-adv-x="495" d="M201 49q2 37 40 62t99 26q64 3 100 -26.5t33 -79.5q-3 -41 -28.5 -83t-59.5 -72.5t-70 -51t-61 -23.5q-1 0 -4.5 8t-3 16.5t7.5 10.5q37 8 68.5 42.5t31.5 72.5q0 58 -61 45q-37 -9 -65 7t-27 46z" />
<glyph unicode="-" horiz-adv-x="792" d="M64 379q-12 24 26 38q17 7 43 9q13 1 205.5 26.5t345.5 41.5q14 1 29 -66.5t17 -124.5t-9 -63q-141 47 -330 86t-299 36q-19 -1 -28 17z" />
<glyph unicode="." horiz-adv-x="458" d="M219 63q-2 30 23.5 59t74.5 32q51 6 82.5 -16.5t34.5 -53.5q2 -29 -23.5 -59t-74.5 -35q-52 -3 -83 19.5t-34 53.5z" />
<glyph unicode="/" horiz-adv-x="839" d="M64 -2q-2 20 10 53q40 104 205.5 638.5t263.5 819.5q7 20 135 11q123 -8 138 -26q2 -3 1 -5q-204 -368 -393 -785t-303 -712q-6 -17 -27 -20q-27 -4 -30 26z" />
<glyph unicode="0" horiz-adv-x="901" d="M29 528q19 158 95 270t187 164t244 46q160 -6 257.5 -146t86.5 -344q-7 -151 -80 -274t-194 -190.5t-263 -59.5q-72 3 -137 38.5t-115 100t-73 167.5t-8 228zM240 557q-57 -501 163 -510q64 -3 109.5 30t71.5 97t39 139.5t18 175.5q7 151 2.5 252.5t-36.5 153.5t-101 57 q-114 7 -178 -93.5t-88 -301.5z" />
<glyph unicode="1" horiz-adv-x="481" d="M35 750q270 97 321 221v2q4 15 30 23t50.5 -8.5t24.5 -61.5q-1 -157 -9 -299.5t-38 -606.5q-1 -14 -71.5 -24t-139.5 -9.5t-66 13.5q18 63 55.5 191.5t55 191.5t41.5 157.5t37 170t20 149.5q-92 -195 -215 -266q-5 -2 -39 33.5t-56.5 75t-0.5 47.5z" />
<glyph unicode="2" horiz-adv-x="831" d="M23 54.5q5 17.5 24 25.5q126 69 225 152t154.5 160t84.5 142t32 115q4 65 -0.5 114.5t-20 90.5t-47.5 63.5t-80 24.5q-89 4 -146.5 -39.5t-71.5 -112t18.5 -155t111.5 -160.5q12 -12 -13.5 -46t-61.5 -58.5t-50 -12.5q-61 51 -91 121.5t-29.5 142t28.5 142t76.5 124.5 t121 85.5t156.5 27.5q152 -8 256.5 -102t98.5 -229q-3 -73 -58.5 -156.5t-148 -162.5t-201.5 -150.5t-231 -134.5q122 -10 288.5 38.5t292.5 122.5q20 12 26 -54q7 -83 -4 -170q-2 -13 -3 -13q-90 -27 -225 -25.5t-266 19.5t-230 45q-21 8 -16 25.5z" />
<glyph unicode="3" horiz-adv-x="890" d="M23 199q-4 50 18 95t60.5 77.5t83 54.5t91.5 33q17 5 28.5 -15t8.5 -43t-20 -26q-51 -10 -76.5 -48.5t-23.5 -95.5q3 -85 44.5 -139.5t120.5 -60.5q85 -7 145 30.5t86.5 97t26.5 132.5q0 115 -45.5 177t-154.5 54q-9 3 -14.5 19.5t1 30t27.5 8.5q36 -8 65 2t47 31 t30 50.5t17 58.5t5 58q0 82 -35.5 133.5t-112.5 55.5q-38 3 -70.5 -18t-45 -50.5t6.5 -64.5t73 -56q21 -7 -22 -53q-47 -49 -86 -61q-10 -4 -17 -2q-66 21 -81 89q-18 76 36 148q74 97 227 106q14 1 29 1q155 0 254.5 -54.5t99.5 -154.5q0 -70 -71.5 -138.5t-162.5 -111.5 q50 -13 91.5 -31.5t80 -47t60.5 -70.5t22 -93q0 -102 -71.5 -178.5t-196.5 -112.5t-278 -24q-106 8 -200.5 66t-100.5 141z" />
<glyph unicode="4" horiz-adv-x="905" d="M23 68q35 127 150.5 325t256.5 376.5t242 248.5q49 0 67.5 -12t18.5 -62q-1 -90 -21 -339t-30 -441q83 31 129 59q23 13 21 -55q-3 -78 -20 -142q-2 -8 -3 -8q-50 -15 -134 -20q-8 -144 -14 -217q-1 -14 -71 -24t-139 -9.5t-66 14.5q30 106 57 232q-243 0 -410 41 q-15 3 -26 13t-8 20zM295 86q18 -1 36 0t41 5t34.5 6.5t41.5 10t37 9.5q21 97 54 236t48.5 209t29 161t14.5 170q-81 -88 -153 -241t-113.5 -290.5t-69.5 -275.5z" />
<glyph unicode="5" horiz-adv-x="897" d="M32.5 245q-18.5 102 59.5 220q15 21 114 -9q88 -25 103 -48q3 -5 0 -9q-64 -67 -89.5 -132t-13.5 -112t52 -77t100 -33t105.5 23t72 71.5t39.5 100.5t13 116q0 291 -293 236q-70 -22 -106 -10.5t-37 61.5l-21 330q0 14 7 25.5t18 7.5q76 -24 196.5 -25t248.5 23t212 69 q19 10 22 -47q4 -80 -12 -175q-3 -15 -4 -15q-152 -41 -502 71l-61 -268q59 19 132.5 27t153.5 -1.5t146 -37t109 -87t43 -143.5q0 -126 -74 -225t-194.5 -146t-256.5 -34q-103 10 -183.5 80.5t-99 172.5z" />
<glyph unicode="6" horiz-adv-x="880" d="M27 508q14 132 81.5 259t166.5 221t227 150.5t256 55.5q32 0 50 -23q15 -21 -9 -28q-9 -2 -23 -2q-97 0 -171.5 -31t-125.5 -90.5t-84.5 -128t-62.5 -162.5q56 32 119.5 45t124 7t115.5 -33.5t94.5 -72t59.5 -113t13 -152.5q-10 -124 -80.5 -222t-181.5 -148t-236 -40 q-161 14 -257.5 157t-75.5 351zM291 549q-57 -481 117 -496q61 -6 104 36t66 115t36 185q14 123 -5 203t-62.5 107.5t-104.5 14.5t-131 -67q0 -2 -2 -2q-17 -88 -18 -96z" />
<glyph unicode="7" horiz-adv-x="866" d="M27 -172q43 134 130.5 267t184 237.5t190.5 202t168 195t99 181.5q-94 -29 -121.5 -37.5t-112.5 -33t-129 -31.5t-113.5 -18t-126 -10t-110.5 10q-6 2 -18 98q-18 148 14 140q1 -1 2 -1q293 -119 793 -6q17 3 24 -10q4 -4 4 -11q5 -14 -4 -36q-42 -113 -102.5 -221 t-122.5 -198t-126 -188.5t-130 -233t-117 -290.5q-5 -13 -75.5 -19.5t-137.5 -3t-63 16.5z" />
<glyph unicode="8" horiz-adv-x="1009" d="M33 255q-17 62 2 136q15 49 47 95t69.5 80.5t90.5 70.5t95.5 60.5t98.5 54.5q13 7 19 10q-14 17 -55.5 57t-59.5 70.5t-23 75.5q-6 47 18 94.5t69 83.5t114.5 55t147.5 12q136 -12 222.5 -80.5t65.5 -152.5q-5 -20 -19 -38.5t-29.5 -32t-44 -30.5t-49 -27.5t-58.5 -29 t-58 -28.5q67 -64 116 -118.5t98 -124.5t67.5 -139t1.5 -130q-19 -69 -68.5 -124.5t-115 -88.5t-144.5 -53t-157.5 -18.5t-153.5 15.5q-71 17 -133.5 50.5t-109.5 83t-64 111.5zM242 410q-42 -149 5 -241t179 -114q99 -16 185 33t112 158q6 37 6 70t-15 73t-32.5 74.5 t-45 75t-54.5 74t-60 71.5q-120 -57 -187 -121t-93 -153zM498 1024q1 -29 28.5 -63t91.5 -95q101 59 119 142q15 58 -11 104t-95 53q-72 7 -106 -34.5t-27 -106.5z" />
<glyph unicode="9" horiz-adv-x="880" d="M27 602q10 124 80 222t181 148t236 40q161 -14 258 -157.5t76 -350.5q-14 -132 -81.5 -259t-166.5 -221t-227 -150.5t-256 -55.5q-32 0 -50 23q-15 21 9 28q9 2 23 2q97 0 171.5 31t125.5 90.5t84.5 128t62.5 162.5q-56 -32 -119.5 -45t-124 -7t-115.5 33.5t-94.5 72 t-59.5 113t-13 152.5zM270 623q-14 -123 5 -203t62.5 -107.5t104.5 -14.5t131 67q0 2 2 2q1 3 9 39.5t10 56.5q57 480 -117 495q-90 9 -138.5 -78t-68.5 -257z" />
<glyph unicode=":" horiz-adv-x="471" d="M219 63q-2 30 23.5 59t74.5 32q51 6 82.5 -16.5t34.5 -53.5q2 -29 -23.5 -59t-74.5 -35q-52 -3 -83 19.5t-34 53.5zM221 559q-2 30 23.5 58.5t74.5 31.5q52 6 83 -16t34 -53q2 -30 -23.5 -60t-74.5 -35q-52 -3 -83 20t-34 54z" />
<glyph unicode=";" horiz-adv-x="509" d="M201 49q2 37 40 62t99 26q64 3 100 -26.5t33 -79.5q-3 -41 -28.5 -83t-59.5 -72.5t-70 -51t-61 -23.5q-1 0 -4.5 8t-3 16.5t7.5 10.5q37 8 68.5 42.5t31.5 72.5q0 58 -61 45q-37 -9 -65 7t-27 46zM262 559q-2 30 23.5 58.5t74.5 31.5q52 6 83 -16t34 -53q2 -30 -23.5 -60 t-74.5 -35q-52 -3 -83 20t-34 54z" />
<glyph unicode="&#x3c;" horiz-adv-x="841" d="M63 440q4 25 54 52q49 24 245 143t318 184q8 3 23 -21.5t30 -61.5t28 -76.5t17 -65.5t-4 -29q-415 -50 -604 -125q50 -17 246.5 -60.5t324.5 -82.5q20 -5 -3 -131q-21 -118 -40 -134q-3 -3 -6 -1q-147 115 -334.5 227.5t-275.5 147.5q-9 3 -14.5 13.5t-4.5 20.5z" />
<glyph unicode="=" horiz-adv-x="860" d="M64 246q-12 25 26 38q17 6 43 7q49 4 266 39.5t361 50.5q14 1 25.5 -71.5t11 -133t-12.5 -67.5q-182 51 -390 84.5t-302 33.5q-19 0 -28 19zM64 561q-12 25 28 38q17 5 41 7q50 3 269 40.5t362 51.5q14 2 24 -68.5t9.5 -140t-13.5 -65.5q-182 52 -390 85.5t-302 33.5 q-19 0 -28 18z" />
<glyph unicode="&#x3e;" horiz-adv-x="839" d="M86 250q-4 26 4 29q419 50 604 124q-51 17 -247.5 61t-323.5 83q-20 5 3 131q21 118 40 134q3 3 6 1q147 -115 334.5 -227.5t275.5 -147.5q9 -3 15 -13.5t4 -21.5q-3 -24 -53 -51q-49 -24 -245.5 -143t-318.5 -184q-8 -3 -23 21.5t-30 61.5t-28 76.5t-17 65.5z" />
<glyph unicode="?" horiz-adv-x="905" d="M124 1109q2 74 28.5 148t72.5 132.5t123.5 96t175.5 38.5q90 2 167.5 -34t127 -96t70.5 -139t4 -159q-12 -52 -44.5 -105t-76 -100t-94 -95t-101 -98t-93.5 -101.5t-75.5 -113.5t-43.5 -125q-4 -27 -34 -39q-30 -13 -41 11q-5 11 -3 28q9 76 42.5 153.5t77 144.5 t87.5 132.5t80 140.5t47 146q13 109 8.5 195.5t-43 139.5t-107.5 52q-84 -1 -134 -32.5t-63.5 -81t-4.5 -112t34.5 -123t61.5 -118.5q9 -14 -32.5 -56t-90.5 -73t-60 -16q-35 48 -51.5 116.5t-14.5 142.5zM197 63q-2 30 23.5 59t74.5 32q51 6 82.5 -16.5t34.5 -53.5 q2 -29 -24 -59t-75 -35q-52 -3 -82.5 19.5t-33.5 53.5z" />
<glyph unicode="@" horiz-adv-x="1705" d="M-205 410q36 294 195 520t405.5 347.5t540.5 121.5q171 0 313 -61t241 -182.5t130.5 -303.5t-16.5 -424q-22 -102 -75 -191t-124 -147.5t-150.5 -92t-160.5 -30t-146 44.5q-53 33 -100.5 99.5t-67.5 162.5q-37 -116 -90 -186t-121 -70q-39 0 -78 16t-77 50.5t-63.5 88.5 t-37 129.5t1.5 174.5q11 87 38.5 156.5t65 112t82.5 70t91 35t89 3.5t78.5 -22t57.5 -44q38 30 150 47q103 15 112 -6q1 -3 0 -6q-38 -104 -60 -237t-28 -232q-7 -123 8.5 -203.5t47.5 -101.5q66 -44 123.5 -33t104 68t79.5 140t51 184q23 128 25 245.5t-16.5 223.5 t-62.5 192t-110 149t-163 97.5t-218 34.5q-214 0 -392 -120t-291 -333t-146 -485q-17 -127 -5.5 -244.5t41 -220t85 -184t125.5 -136.5t163 -78.5t197 -9.5q8 1 5 -21q-6 -37 -39 -48q-5 -1 -11 -2q-109 -15 -218 9t-202.5 80t-172 144t-130 195.5t-72 240.5t-2.5 273z M536 246.5q0 -26.5 2.5 -52.5t8.5 -41t15.5 -27t23.5 -17t32 -5q32 0 56.5 28.5t41.5 86t27 109.5t21 133q0 114 31 272q-18 69 -65 74q-52 6 -100 -71q-54 -87 -73 -242q-7 -58 -11 -98t-7 -81.5t-3 -68z" />
<glyph unicode="A" horiz-adv-x="1427" d="M65 127q-21 56 -21 114q0 63 25 128q50 133 182 194q87 41 197 41q35 0 72 -4q19 -1 24.5 -21t-7.5 -26h-11q-111 0 -215 -112q-92 -100 -124 -226q-12 -46 -12 -84q0 -67 38 -104q16 -16 39 -25q35 -14 68 -14q50 0 98 32q78 53 184 193q-99 6 -207 37q-14 3 -15 19.5 t8 31t20 12.5q86 -21 176 -21q34 0 69 3q131 196 219 483.5t127 607.5q1 22 115 34q98 11 195 11h31q110 -2 110 -14l-177 -1174q0 -188 54 -225q30 -18 61 -18q36 0 73 24q70 44 102 140q10 34 35 41q21 7 24 -15q1 -3 1 -6q0 -7 -3 -16q-22 -73 -67.5 -125t-98.5 -74 q-48 -20 -97 -20q-5 1 -11 1q-56 2 -101 30q-105 65 -133 251q-120 -29 -282 -29q-29 0 -58 1q-124 -156 -274 -221q-84 -37 -163 -37q-60 0 -116 22q-111 43 -154 160zM836 311q68 9 145.5 28.5t114.5 37.5q2 59 8.5 175t17.5 287.5t17 268.5q-37 -131 -51.5 -179.5 t-50.5 -162.5t-61 -176t-63 -142t-77 -137z" />
<glyph unicode="B" horiz-adv-x="1273" d="M33 980q45 167 266 317q61 42 135 81q94 50 196 72q80 17 152 16q20 0 40 -1q90 -6 172.5 -35t140 -75.5t89.5 -110.5q26 -54 26 -115q0 -11 -1 -23q-3 -37 -19 -73t-45.5 -71t-53 -59t-62 -58.5t-51.5 -47.5q53 -25 98 -55.5t90 -75.5q44 -46 68 -109q19 -50 19 -106 q0 -14 -1 -29q-7 -91 -49 -171.5t-104 -138t-139 -96.5q-78 -38 -156 -52q-40 -7 -80 -7q-38 0 -75 6q-76 13 -132 55q-95 70 -138 196q-38 111 -38 320q0 28 1 60q6 254 71 661q2 15 75 19q30 2 59 2q43 0 85 -4q67 -6 67 -18l-157 -620q-45 -231 -45 -369q0 -17 1 -31 q6 -142 62 -183q55 -40 115 -45q9 -1 18 0q49 0 95 24q54 28 99 79.5t74.5 127t36.5 162.5q2 28 2 54q0 196 -114 268q-113 -75 -203 -88q-13 -2 -25 -2q-49 0 -75 36q-15 22 -15 45q0 22 13 46q33 62 135 78q26 5 55 5q50 0 109 -14q63 110 75 256q1 16 1 31q0 60 -18 108 q-24 62 -75 98t-122 48q-23 4 -49 4q-53 0 -117 -16q-95 -24 -201 -80q-140 -76 -212 -209q-50 -91 -50 -171q0 -37 10 -71q34 -109 168 -120q28 -3 32 -21q4 -17 -22 -23q-10 -2 -23 -2q-155 7 -237 99q-57 65 -57 148q0 35 10 74zM747 734q11 -25 37 -33q6 -1 12 -1h5 q5 1 9.5 3t11 8t10.5 10t13.5 15t14.5 16q-13 3 -28.5 8t-20.5 6.5t-19 3.5h-9q-8 0 -15 -2q-25 -4 -25 -20q0 -6 4 -14z" />
<glyph unicode="C" horiz-adv-x="1038" d="M47 1184q-6 3 -6 11q-1 8 7 22q14 26 37 46.5t34 12.5q72 -54 157 -102q81 107 200.5 176t232.5 89q78 14 148 13q31 0 61 -2q96 -9 147 -45q54 -40 54 -103q0 -16 -3 -33q-17 -91 -114 -160q-125 -89 -312 -89q-31 0 -63 2q-88 7 -183 33q-64 -129 -106 -340 q-26 -143 -26 -264q0 -158 44 -278q78 -211 262 -216h2q112 1 192 101q82 102 81 223v7q-1 80 -23 138q-24 60 -77 101t-141 47q-15 1 -31 0q-78 0 -183 -21q-13 -3 -16 10q-4 17 20 23q103 30 203 29q19 -1 37 -1q118 -6 210.5 -38.5t149 -94t56.5 -141.5q0 -86 -45 -168 q-46 -84 -120 -146q-75 -62 -173 -98q-91 -34 -184 -34h-15q-100 3 -197.5 59t-173.5 161q-76 104 -108 254q-16 74 -16 159q0 86 16 182q45 231 143 393q-93 38 -178 82zM477 1118q124 -49 220 -48q87 0 151 40q77 49 91 136q3 17 3 33q0 51 -32 83q-5 6 -11 10 q-39 28 -85 31h-11q-42 1 -90 -21q-54 -24 -115.5 -91.5t-120.5 -172.5z" />
<glyph unicode="D" horiz-adv-x="1249" d="M-7 939q45 173 267 335q75 54 166 104q90 48 190 63q47 7 94 7q53 0 105 -9q98 -17 185.5 -74t151.5 -145q62 -88 94 -226q22 -95 22 -204q0 -49 -4 -100q-11 -141 -55 -264t-106.5 -209.5t-140.5 -148t-158 -86.5q-58 -18 -115 -18q-21 0 -41 2q-78 9 -140 54 q-53 39 -85 115t-47 214q-7 66 -7 152q1 95 9 215q16 228 66 541q2 15 76 19q30 2 59 1q43 1 85 -3q67 -6 67 -20l-111 -414q-46 -194 -68 -328q-22 -136 -28 -238q-3 -48 -2 -84q0 -43 4 -72q8 -54 25 -67q43 -31 87 -39q14 -2 29 -2q29 0 57 11q42 16 80.5 52t72 94 t60.5 131.5t45.5 167.5t27.5 200q5 67 5 128q0 106 -16 194q-26 138 -83 218q-58 78 -138 114q-60 26 -127 27q-24 1 -48 -3q-95 -12 -197 -68q-78 -42 -139 -118.5t-87.5 -160.5t-26.5 -162t44 -131.5t125 -60.5q29 -1 32 -19q3 -16 -21 -22q-10 -2 -24 -2q-175 5 -265 104 q-61 68 -61 158q0 37 10 77z" />
<glyph unicode="E" horiz-adv-x="1138" d="M-14 1165q-5 3 -5 11q0 12 10 32q18 36 46 66t39 22q110 -83 145 -104q64 107 190.5 173t254.5 80q49 5 97 5q76 0 145 -14q113 -22 157 -76q39 -48 38 -102q1 -32 -13 -66q-38 -92 -155 -146q-104 -47 -234 -47q-102 0 -220 29q-30 7 -61 16q-24 -79 -24 -146 q0 -106 61 -181q102 32 201 32q20 0 40 -1q67 -3 85 -51q5 -14 5 -28q0 -31 -26 -60q-47 -53 -140 -53q-10 0 -20 1q-89 4 -182 55q-90 -86 -121 -245q-11 -54 -11 -102q0 -71 24 -127q40 -96 134 -140q78 -37 183 -36q21 0 43 1q135 7 218 97q84 91 85 225q0 125 -67 175 q-33 25 -73 25q-43 0 -91 -28q-96 -54 -162 -199q-5 -13 -17 -6q-15 8 -6 29q64 155 213 224q86 40 171 41q41 0 82 -10q114 -25 155 -109q18 -37 18 -84q0 -115 -84 -217q-84 -104 -215 -166t-272 -71q-20 -1 -39 -1q-69 0 -141 14q-92 18 -173 58t-140.5 97t-85.5 138 q-14 45 -14 93q0 39 9 79q43 200 217 301q-118 105 -118 254q0 64 22 137q0 1 14 33q-15 6 -86.5 30t-105.5 43zM442 1110q140 -60 246 -61q75 0 132 31q81 42 96 126q3 17 3 33q0 54 -36 94q-17 18 -53 30q-27 9 -64 9h-22q-51 -4 -103.5 -26.5t-106.5 -83t-92 -152.5z M508 670q57 -40 139 -47q5 0 11 -1q43 0 59 16q8 8 8 16q-1 10 -11 20q-20 19 -63 22h-19q-68 0 -124 -26z" />
<glyph unicode="F" horiz-adv-x="1216" d="M78 124q-14 47 -14 95q0 62 24 126q42 114 139 185q-35 72 -44 158q-3 25 -3 51q0 63 16 130q22 95 73 185t144.5 175.5t219.5 148.5q295 146 610 147q242 0 496 -87q8 -2 8 -27q0 -32 -14 -104q-25 -130 -47 -150q-4 -4 -7 -2q-159 101 -353 156q-175 50 -349 50 q-19 0 -37 -1q-192 -6 -328 -82q-101 -57 -176.5 -130t-119.5 -149q-42 -76 -62 -155q-15 -62 -16 -119q0 -16 2 -32q6 -72 32 -134q43 25 116 37q49 8 91 8q20 0 39 -2q20 -3 25.5 -22.5t-8.5 -26.5h-12q-43 -1 -81 -19q-44 -22 -96 -59q70 -106 207 -106h8q31 1 34 -14 q2 -12 -18 -19q-11 -3 -26 -4q-12 -1 -24 -1q-57 -1 -111 23q-66 28 -109 88q-71 -68 -108 -160q-28 -69 -28 -131q-1 -21 3 -41q12 -79 76 -108q24 -11 52 -11t61 11t68 36.5t70.5 62.5t71 93.5t68 125t62.5 160.5t53 198q-15 3 -30.5 6.5t-33 7.5t-26.5 6q-13 4 -16 23.5 t4 37t18 15.5q44 -12 102 -12q40 233 43 514q0 9 27 19t65 16.5t76 10.5q26 3 47 4q10 0 18 -1q26 -2 25 -10q-14 -291 -71 -549q41 5 78.5 13.5t58 14.5t71.5 23q22 7 30 -35q7 -35 7 -73q-1 -7 -1 -13q-2 -45 -5 -45q-39 -4 -89 -4q-77 0 -179 10q-42 -149 -101.5 -271.5 t-126 -203t-139 -136.5t-142.5 -79q-69 -23 -132 -23h-2q-64 0 -117 25q-105 48 -137 155z" />
<glyph unicode="G" horiz-adv-x="1226" d="M47 -536q21 105 130 193q151 123 378 132q16 1 33 1q107 0 219 -28q79 121 117 269q-143 -140 -322 -140h-8q-99 3 -184.5 59t-145 161t-78.5 255q-8 56 -8 118q0 104 21 225q41 226 143 391q-106 43 -178 84q-13 7 0 32.5t35.5 45.5t33.5 12q67 -50 158 -100 q82 107 201.5 175.5t232.5 88.5q78 14 148 14q32 0 62 -3q97 -9 147 -46q54 -40 54 -106q0 -15 -3 -31q-17 -94 -113 -167q-128 -98 -321 -98q-22 0 -46 1q-94 5 -194 32q-74 -159 -104 -319q-31 -172 -37 -307q-1 -31 -1 -60q0 -98 15 -176q20 -103 75 -158.5t144 -56.5h5 q142 0 226 168q85 171 85 506q0 24 71.5 48.5t131.5 27.5h15q46 0 52 -17q-15 -107 -20.5 -147t-22 -139.5t-28 -150t-33 -138t-43 -148t-53 -134.5t-68.5 -140q111 -41 192 -84q13 -7 -11 -47t-57 -74t-42 -25q-51 49 -84 75t-76 48q-73 -101 -166.5 -173.5t-182.5 -106.5 t-176 -45q-38 -5 -73 -5q-43 0 -81 8q-67 13 -110 44q-59 43 -59 116q0 19 4 40zM258 -461q-4 -21 -4 -40q0 -57 35 -99q10 -12 22 -21q40 -29 85 -33q7 -1 14 -1q40 0 87 20q56 24 121 100t130 199q-133 53 -236 53q-86 0 -151 -37q-85 -49 -103 -141zM592 1096 q119 -47 213 -47q90 0 156 44q79 53 94 145q3 18 3 34q0 53 -31 86q-6 7 -13 12q-38 28 -84 28q-50 0 -108 -33q-113 -64 -230 -269z" />
<glyph unicode="H" horiz-adv-x="1519" d="M58 76q-12 26 -12 55q0 44 26 94q65 117 208 167q100 35 229 35q56 0 118 -7q95 373 98 977q0 8 27 18t66 17q38 8 76 12q26 3 47 3q9 0 18 -1q27 -2 26 -10q-39 -679 -166 -1049q41 -8 88 -8q89 0 205 27q-1 25 -1 53q0 89 10 201q13 148 38 365t37 378q2 14 64 23 q51 7 101 7h23q59 -2 58 -15l-121 -965q21 4 42.5 12t48 20t34.5 15q21 9 21 -42q-1 -67 -23 -143q-3 -12 -4 -12q-74 -12 -115 -16q12 -223 78 -269q26 -18 55 -18q42 0 88 36q80 62 111 167q10 33 30 37q16 4 16 -20q0 -9 -3 -21q-26 -88 -100 -158q-72 -69 -156 -95 q-41 -12 -76 -13q-37 0 -68 14q-64 29 -114.5 117.5t-63.5 207.5q-90 1 -150.5 9t-178.5 32q-38 -95 -88.5 -167.5t-100.5 -114t-106 -67.5q-54 -24 -100 -32q-36 -6 -72 -6h-19q-80 3 -150 43.5t-99 106.5zM282 -2q26 -27 74 -27h4q71 3 129 91.5t119 291.5q-43 9 -82 9 q-153 0 -231 -140q-19 -32 -30 -74q-11 -40 -11 -79q1 -44 28 -72z" />
<glyph unicode="I" horiz-adv-x="864" d="M16 274q6 92 56 174t173 126q89 32 199 33q42 0 88 -5q19 -1 24.5 -21t-7.5 -26h-9q-70 0 -137 -45q-72 -48 -117 -122q-45 -76 -69 -154q-14 -47 -14 -88q1 -29 7 -56q16 -66 73 -88q21 -8 43 -8q38 0 76 23q62 37 125 141t115 259.5t86.5 394t39.5 521.5 q-86 -13 -152 -45t-104 -76q-37 -44 -55 -96q-14 -42 -14 -84q1 -12 1 -22q4 -54 28.5 -106t66.5 -95q3 -15 -53 -35q-38 -14 -59 -13q-10 0 -15 3q-126 81 -152 205q-6 30 -6 58q0 99 75 187q131 152 430 197q91 14 193 16q7 1 12 1q23 0 23 -11q-13 -193 -33.5 -363 t-48.5 -309.5t-63 -255.5t-75 -205t-86.5 -155.5t-96.5 -107.5t-104 -61q-50 -18 -102 -18h-10q-58 2 -118 25q-112 43 -176 129q-58 79 -59 163q1 8 1 15z" />
<glyph unicode="J" horiz-adv-x="1064" d="M55 -223q-10 33 -10 67q0 88 66 185q103 151 315 247q171 77 379 99q98 411 106 977q-102 -16 -180 -61t-117.5 -105t-52.5 -128q-5 -25 -5 -50q0 -42 14 -83q21 -66 71 -118q5 -15 -11 -35t-32 -10q-117 75 -187 163t-72 175v5q0 84 62 153q64 72 232.5 117.5 t421.5 47.5h9.5h11t13 -0.5t12.5 -0.5t11.5 -1t9 -1.5t6.5 -2t2 -2.5q-38 -614 -147 -1036q23 1 45 1l113 -7q19 -3 24 -22q1 -5 1 -10q0 -11 -9 -15q-24 2 -50 2q-64 0 -142 -11q-36 -128 -81.5 -236t-94 -185.5t-103 -138t-108.5 -94.5t-110 -54q-51 -18 -97 -18 q-6 0 -12 1q-52 2 -103 15q-163 49 -201 170zM235 -173q-11 -39 -11 -70q0 -68 52 -101q14 -10 33 -16q26 -6 54 -6h7q32 1 67.5 22t70.5 52.5t72 86.5t71.5 125t69.5 166.5t65 210.5q-213 -57 -381 -218q-132 -127 -170 -252z" />
<glyph unicode="K" horiz-adv-x="1265" d="M21 377q48 125 185 185q97 43 223 43q44 0 91 -5q19 -1 24.5 -21t-7.5 -26h-12q-124 0 -225 -121q-86 -104 -109 -234q-7 -37 -7 -68q0 -72 38 -109q13 -12 30 -19q23 -4 50 -5t56.5 24.5t59.5 58.5t59 96t55.5 138.5t49 185t38.5 236t25 291.5q8 148 8 314v37 q0 9 27 18.5t65.5 16t76.5 10.5q25 3 46 3q10 0 19 -1q27 -2 26 -10q-13 -198 -36 -372.5t-54 -311t-69 -253.5t-80 -199t-88 -148.5t-92 -101.5t-94 -59q-41 -20 -80 -20q-7 0 -13 1q-45 4 -88 16q-134 51 -190 172q-29 64 -29 128q0 55 21 110zM847 697q15 10 30 12h8 q350 77 350 706q0 8 28 18t69 17q40 8 80 12q28 3 51 3q10 0 18 -1q28 -2 28 -10q0 -292 -152 -511.5t-392 -270.5q94 -50 108 -205q23 -181 70 -320t104 -215t119 -114q52 -32 101 -32q9 0 17 1q56 7 101 49q33 0 47 -55q7 -26 6 -48q0 -24 -8 -44q-41 -102 -137 -128 q-28 -7 -56 -7q-85 0 -177 67q-168 123 -267 412q-62 180 -88 409q-4 32 -7 65.5t-4.5 52t-3.5 37.5t-4 28.5t-6 17.5t-9 11.5t-13 4.5h-10q-15 0 -19 -2q-11 -2 -11 6q0 15 29 34z" />
<glyph unicode="L" horiz-adv-x="907" d="M41 90q45 64 137 75q18 2 37 2q79 0 178 -38q92 235 166 670q38 224 139 393q-99 41 -174 82q-13 7 0 33t36 46.5t34 12.5q72 -54 156 -100q66 86 155.5 148t178.5 90q89 30 176 38q34 3 66 3q48 0 89 -8q68 -13 107 -42q59 -44 60 -115q0 -11 -2 -22q-11 -92 -103 -161 q-114 -87 -292 -87q-36 0 -75 4q-84 7 -176 33q-75 -147 -119 -344q-116 -531 -227 -737q202 -105 377 -165t303 -74q51 -6 98 -5q68 0 124 12q92 21 146 74q24 6 53 -20q29 -24 41 -60q5 -15 5 -31q0 -20 -9 -41q-27 -49 -78 -83q-50 -35 -124 -53q-47 -12 -104 -11 q-33 -1 -70 3q-101 10 -220 47t-270.5 117t-316.5 197q-47 -64 -144.5 -99.5t-203.5 -35.5q-59 0 -101 28q-42 30 -58 70q-16 38 -16 78q0 45 21 76zM115 10q3 -32 35 -56q30 -22 75 -22h8q29 0 66.5 37t65.5 92q-54 31 -97 44q-32 10 -55 10q-8 1 -15 -1q-27 -4 -43 -14.5 t-26 -25.5q-14 -27 -14 -54v-10zM969 1210q127 -50 228 -51q89 0 158 39q87 48 112 133q8 26 8 49q0 40 -24 68q-7 8 -15 14q-38 28 -90 30q-5 0 -10 1q-48 -1 -104 -23q-62 -24 -131.5 -91t-131.5 -169z" />
<glyph unicode="M" horiz-adv-x="1888" d="M41 352q44 139 177 205q96 47 223 47q39 0 81 -4q19 -3 24.5 -23t-7.5 -26h-11q-113 0 -217 -113q-92 -101 -124 -227q-11 -45 -11 -81q0 -68 39 -106q16 -15 37 -24q34 -13 70 -14q60 0 124 39q102 61 194.5 196t174.5 317.5t141 399.5t86 432q3 24 96 38q74 11 146 11 q19 -1 38 -1q89 -3 89 -16q0 -1 -24 -111q-21 -96 -25 -116.5t-21.5 -104t-22.5 -116t-17 -105t-16.5 -119t-10 -109.5t-8.5 -123q48 138 148.5 462.5t160.5 458.5h2q9 13 81 21q55 6 108 6h32q64 -2 64 -15l-112 -681q-24 -222 -23 -383q0 -67 4 -124q14 -192 69 -231 q22 -15 46 -15q38 -1 81 35q71 58 96 146q5 17 19 20t24 -8q7 -7 7 -17q0 -5 -2 -11q-18 -53 -52 -99.5t-76 -76.5t-87 -48q-44 -17 -86 -17q-1 1 -2 1q-43 0 -76 19q-97 61 -120 276q-8 74 -8 194q0 171 16 436q3 67 13 218q-47 -132 -94 -290t-108.5 -380t-96.5 -342 q-1 -7 -25 -14t-57.5 -10.5t-67 -5.5t-56.5 0.5t-23 9.5v19q1 132 37 491q40 386 43 520q-37 -142 -81.5 -270t-92.5 -233.5t-100.5 -196t-107 -159.5t-111 -122.5t-113 -87t-112.5 -50.5q-51 -16 -102 -16h-9q-54 2 -105 21q-110 42 -159 157q-29 67 -29 136q0 54 18 110z " />
<glyph unicode="N" horiz-adv-x="1501" d="M44 262q15 90 68 172q54 82 164 130q88 38 192 38q26 0 54 -2q19 -1 24.5 -21t-7.5 -26h-10q-114 0 -218 -114q-92 -102 -124 -228q-11 -45 -11 -81q0 -69 40 -107q15 -15 36 -23q33 -13 67 -13q59 -1 119 39q94 62 174.5 195.5t150.5 318t120.5 399t77.5 433.5 q3 23 91 36q76 11 150 11h23q84 -2 84 -15l-59 -427q-11 -137 -11 -254q0 -53 2 -101q7 -156 31 -341q40 196 87.5 367.5t99 308.5t108.5 252t115 199.5t120 148t122.5 102t122.5 57.5q59 18 116 18h5q60 -1 118 -20q17 -12 17 -35q0 -19 -13 -49q-28 -62 -85 -126 q-50 -56 -73 -55q-3 0 -6 1q-41 15 -83 16h-6q-39 0 -80 -12q-44 -12 -88 -42t-88 -74.5t-86 -111t-82 -149t-77 -191t-69.5 -234.5t-61 -282t-49.5 -331q-6 -21 -60 -30q-43 -7 -83 -7h-23q-52 2 -53 10q-6 49 -14.5 123.5t-13.5 116.5t-12 105.5t-10.5 107.5t-8 105 t-6.5 115.5t-3.5 122t-1.5 140.5t2 156q-50 -217 -116 -405.5t-148 -344t-175 -255t-197 -138.5q-49 -19 -100 -19q-56 0 -114 23q-97 41 -143 124q-35 63 -36 130q0 21 4 43z" />
<glyph unicode="O" horiz-adv-x="1380" d="M52 382q-9 58 -8 122q0 96 19 205q28 156 96.5 286.5t157.5 216.5t193 146q104 59 206 82q83 19 161 19q17 0 33 -1q92 -5 157 -39q16 -8 16 -16q0 -14 -49 -27q-60 -16 -105 -16h-10q-8 1 -10 2q-42 38 -91 46q-12 2 -25 2q-37 0 -74 -16q-50 -22 -100.5 -67.5 t-96.5 -112t-85.5 -145t-70 -170.5t-47.5 -186q-28 -142 -28 -267v-24q3 -135 34 -236t102 -163t175 -72q14 -1 27 -1q107 0 208 77q113 87 193 245.5t115 358.5q7 42 14 98q-69 -25 -146 -25q-23 0 -46 2q-102 10 -189 64q-61 39 -98 93.5t-47 110.5q-4 23 -4 46q0 34 9 68 q15 58 52.5 104.5t101.5 79.5t146 41q26 3 50 2q88 0 168 -35q102 -46 173 -151.5t82 -251.5q80 81 80 210q0 103 -51 236q-4 11 12 15q24 6 33 -17q50 -117 50 -221q-1 -30 -5 -59q-18 -129 -115 -216q0 -93 -14 -188q-22 -145 -85.5 -271t-152.5 -215t-195 -151 q-106 -63 -216 -89q-82 -19 -160 -19q-27 0 -53 2q-128 12 -230 72.5t-168.5 165t-88.5 250.5zM691 1023q0 -55 31.5 -109.5t88.5 -92.5q81 -51 175 -63q28 -3 55 -3q64 0 122 19q3 55 3 104q0 35 -2 67q-4 78 -22 139t-49.5 101t-82.5 58q-35 12 -79 12q-19 0 -40 -2 q-64 -7 -111.5 -41.5t-68 -84t-20.5 -104.5z" />
<glyph unicode="P" horiz-adv-x="1415" d="M32 129q-22 50 -22 96q0 50 25 96q55 103 208 124q34 4 70 4q112 0 254 -41q19 -6 21 -26.5t-13 -23.5q-61 14 -116 14q-111 0 -195 -60q-84 -61 -102 -151q-4 -22 -4 -41q0 -59 41 -98q15 -13 34 -22q27 -14 57 -14h2q30 0 64 15q36 15 71 45t70.5 83t67.5 124 t59.5 172.5t48 223t32 282t12.5 343.5q0 8 27 17.5t65.5 16.5t76.5 11q25 3 46 3q10 0 19 -1q27 -2 26 -10q-26 -453 -113 -762q35 -6 68 -5q48 0 94 12q76 20 133 67.5t98.5 115t62.5 148.5t21 168q0 173 -87 267q-85 92 -228 91h-6q-147 -2 -322 -96 q-84 -46 -147.5 -121.5t-89.5 -155.5q-24 -73 -24 -142q1 -6 1 -12q2 -74 48 -124t128 -57q27 -3 32 -21q4 -18 -24 -24q-9 -1 -20 -1q-215 8 -299 121q-42 57 -42 127q0 54 25 116q64 160 267 298q76 52 166 96q105 51 215 73q82 16 156 15q26 1 50 -1q96 -8 183 -40.5 t149 -85t98 -126.5t36 -160q0 -96 -26 -180.5t-71 -146t-105 -112.5t-129 -81.5t-143 -51.5q-72 -22 -144 -24q-24 -1 -48 -1q-46 0 -90 3q-46 -149 -110 -260.5t-132 -174.5t-142 -95q-71 -30 -134 -30h-6q-66 2 -127 29q-120 57 -167 162z" />
<glyph unicode="Q" horiz-adv-x="1382" d="M53 382q-9 59 -9 124q0 95 19 203q29 156 97.5 286.5t157.5 216.5t193 145.5t205 82.5q84 19 161 19q16 0 33 -1q91 -5 157 -39q16 -8 16 -16q0 -15 -50 -29q-61 -16 -104 -16h-9q-8 1 -9 2q-42 40 -91 48q-12 1 -25 1q-37 0 -74 -17q-50 -22 -100 -66.5t-96 -111 t-85.5 -145t-70 -170.5t-47.5 -186q-27 -151 -34 -266q-2 -28 -2 -56q0 -84 16 -162q22 -103 77 -166q12 25 31 46q48 57 155.5 57t210.5 -72l90 -65q45 26 82 65t65.5 91t50 106.5t39.5 125.5t30.5 132.5t25.5 142.5q-51 -16 -117 -16q-57 0 -125 12q-147 25 -239 82 q-73 46 -102 114q-19 43 -19 86q0 25 7 51q17 69 64 131.5t130 106.5t182 54q23 2 46 2q62 0 121 -17q81 -25 146 -79.5t108 -143t52 -198.5q79 82 79 211q0 103 -50 235q-6 11 11 15q22 4 32 -17q50 -117 50 -221q0 -30 -5 -59q-18 -129 -115 -216q1 -14 1 -29 q0 -74 -13 -159q-36 -234 -162 -400t-307 -257q325 -220 536 -291q102 -35 181 -35q83 0 141 39q5 -7 13.5 -18t26.5 -42.5t26 -59.5q6 -17 6 -36q0 -12 -2 -25q-6 -32 -33 -53q-44 -33 -89 -45q-23 -6 -49 -6q-28 0 -60 6q-63 13 -134.5 46t-179 100t-228.5 153t-294 215 q-101 -36 -201 -36l-53 2q-129 12 -231 72.5t-168.5 165t-88.5 250.5zM416 27q80 -65 186 -76q10 -1 20 -1q55 0 113 23l-47 37q-52 40 -95.5 61t-69.5 25t-47 -3t-29 -15t-15 -19zM695 1077q-4 -20 -4 -40q0 -47 21 -97q29 -72 101 -119q149 -96 269 -96q42 0 81 12 q4 59 4 111q0 56 -5 104q-9 95 -38.5 168t-87.5 108q-46 27 -107 27q-17 0 -36 -2q-79 -9 -132 -60t-66 -116z" />
<glyph unicode="R" horiz-adv-x="1431" d="M51 132q-5 22 -5 43q0 73 56 140q81 97 231 116q30 4 62 3q83 0 174 -26q18 -6 19 -26.5t-13 -23.5q-61 14 -116 14q-111 0 -195 -60q-84 -61 -102 -151q-4 -22 -5 -41q0 -59 42 -98q15 -13 34 -22q27 -14 57 -14h2q30 0 64 15q36 15 71 45t70.5 83t67.5 124t60 172.5 t48.5 223t32.5 282t13 343.5q0 8 27 17.5t65 16.5t76 11q25 3 46 3q11 0 19 -1q26 -2 25 -10q-23 -426 -100 -721q17 -7 27 -8t26 1.5t31 2.5q96 7 169 48t117 107.5t67 144t29 169.5q1 16 1 32q0 65 -16 122q-20 70 -71 120t-125 69q-33 8 -73 8q-51 0 -115 -14 q-112 -24 -246 -96q-140 -76 -212 -214q-50 -95 -50 -178q0 -38 10 -74q34 -114 168 -125q28 -3 33 -21q4 -18 -23 -23q-10 -2 -22 -2q-172 5 -249 108q-44 59 -44 134q0 48 18 102q55 166 257 310q62 45 135 84q118 63 236 90q88 20 165 20q26 0 50 -2q96 -9 179.5 -45.5 t139 -93.5t85.5 -132q25 -62 24 -129q0 -14 -1 -28q-7 -106 -51.5 -198t-116 -157t-159.5 -109t-187 -64q71 -3 120.5 -60.5t56.5 -166.5q23 -182 59.5 -305t77.5 -179q41 -58 89 -72q21 -6 41 -6q27 0 52 12q44 20 90 64q15 3 35 -13q13 -11 13 -21q0 -5 -3 -11 q-36 -56 -80 -103.5t-100 -81.5q-55 -36 -110 -44q-11 -2 -22 -1q-45 0 -90 28q-57 35 -105.5 113t-89.5 229.5t-66 363.5q-16 154 -29 192.5t-61 44.5q-58 0 -99 5q-45 -158 -110 -277.5t-134.5 -187t-145.5 -101.5q-74 -34 -142 -34l-2 1q-68 0 -129 29q-126 59 -148 165z " />
<glyph unicode="S" horiz-adv-x="1243" d="M27 362q6 78 55 140q46 58 124 98q79 38 178 48q29 3 59 4q70 0 140 -16q100 -22 199 -99.5t168 -200.5q3 -6 -13 -17t-41.5 -21.5t-53 -19.5t-46 -11t-22.5 5q-30 99 -75.5 166t-95 96.5t-101.5 33.5q-9 1 -18 1q-42 0 -82 -17q-48 -20 -87 -58q-48 -46 -70 -116 q-17 -54 -17 -109q0 -16 2 -32q6 -71 51.5 -135.5t124.5 -97.5q92 -40 191 -42h15q90 0 168 28q84 30 149 93.5t91 149.5q14 43 14 86q0 229 -397 426q-131 66 -205 167q-73 100 -74 213q0 115 78 218q68 91 210 138q111 37 226 37q32 0 64 -3q148 -13 235 -83 q80 -66 80 -171q0 -99 -80 -167q-75 -64 -173 -77q-23 -3 -44 -3q-74 0 -140 34q-86 44 -122 134q-4 9 3 14.5t17 4t13 -8.5q31 -67 93 -101q50 -27 103 -27q13 0 27 2q68 8 117 58q33 34 42 80q3 14 3 27q0 33 -16 71q-22 52 -72 95q-72 57 -152 67q-18 2 -36 2 q-60 0 -112 -25q-68 -32 -116 -95q-40 -54 -48 -116q-2 -14 -3 -27q-1 -47 21 -95q26 -62 94.5 -121.5t171.5 -105.5q140 -63 231 -137.5t131 -153.5q40 -80 46 -168q1 -14 1 -28q0 -75 -26 -152q-33 -114 -131 -196q-98 -84 -224 -120q-106 -31 -227 -30q-23 0 -47 1 q-148 7 -277 62q-94 40 -164 107.5t-102 142.5q-27 63 -27 129q0 12 1 24z" />
<glyph unicode="T" horiz-adv-x="1079" d="M48 763q-1 14 -1 29q0 72 20 148q24 92 73 177.5t133.5 164.5t193.5 133q268 133 592 137q12 0 24 1q313 0 641 -115q10 -3 10 -44q0 -34 -7 -94q-15 -129 -34 -144q-3 -3 -5 -1q-125 78 -280 135q-156 56 -320 84q-97 16 -194 16q-68 0 -136 -8q-166 -19 -291 -90 q-118 -65 -201.5 -171t-115.5 -215q-23 -77 -24 -152q0 -31 4 -61q14 -104 77 -169q43 40 163 63q83 16 146 16q27 0 51 -3q19 -1 24.5 -21t-7.5 -26h-8q-43 -1 -106 -31q-69 -34 -105 -69q54 -23 113 -23h14q29 1 35 -17q5 -17 -23 -25q-8 -2 -19 -3q-10 -1 -20 -1 q-28 0 -63 6q-47 8 -74 20q-72 -60 -108 -148q-28 -69 -28 -129q0 -17 2 -33q10 -74 64 -100q25 -12 54.5 -12t63.5 12q68 23 146 110.5t144 229t110.5 386t46.5 550.5q0 8 27 18t66 17q40 7 78 11q27 3 47 4q9 0 18 -1q27 -2 26 -10q-10 -188 -37 -355t-66 -296.5 t-89 -239.5t-105.5 -188t-116 -137.5t-121 -93t-118.5 -49.5q-47 -13 -90 -13q-12 0 -22 1q-52 4 -97 25q-91 41 -129 134q-25 61 -26 127q0 34 7 70q20 104 89 183q-52 49 -81.5 122.5t-34.5 157.5z" />
<glyph unicode="U" horiz-adv-x="1091" d="M37 896q21 262 86 570q3 14 72 20q41 4 81 4q28 0 56 -2q66 -4 65 -17l-135 -842q-12 -122 -13 -216q0 -196 54 -272q42 -59 117 -61h5q135 0 226 157q93 160 113 443q2 254 45 774q1 15 74 24q60 7 118 7h27q69 -2 68 -14l-145 -955q-5 -85 -5 -154q0 -244 66 -288 q29 -14 60 -14q40 0 83 24q77 42 111 147q11 34 32 39q18 5 18 -20q0 -8 -3 -19q-46 -147 -154 -207q-58 -32 -112 -32q-48 0 -93 24q-66 35 -116.5 122t-63.5 208q-72 -172 -169 -264q-93 -88 -231 -88h-12q-135 4 -216.5 120t-105.5 318q-13 108 -13 233q0 109 10 231z " />
<glyph unicode="V" horiz-adv-x="1298" d="M85 1265q-1 4 -1 9q0 6 2 14q17 57 56.5 103t87 69t99.5 30q13 2 26 2q37 0 69 -15q194 -85 278 -403q63 -237 64 -631q0 -135 -8 -289q403 452 489 1316q1 8 71 18q56 8 110 8h28q67 -2 66 -22q0 -140 -116 -434q-102 -259 -278 -538.5t-372 -472.5l-4 -4 q-12 -13 -84 -22q-61 -8 -118 -8q-10 1 -19 1q-64 1 -64 13l79 691q1 42 1 82q1 250 -41 404q-48 178 -137 221q-31 15 -61 15q-32 0 -61 -17q-58 -33 -83 -113q-10 -31 -42 -40q-29 -8 -37 13z" />
<glyph unicode="W" horiz-adv-x="1810" d="M85 1265q-1 4 -1 9q0 6 2 14q17 57 56.5 103t87 69t99.5 30q13 2 26 2q37 0 69 -15q180 -77 258 -377q65 -247 64 -658q0 -89 -3 -186q163 489 375 999q2 7 17.5 16t37.5 15.5t43.5 10t37 1t16.5 -11.5q48 -366 47 -796q0 -163 -6 -336q403 450 489 1316q1 8 70 18 q57 8 114 7h24q68 -2 67 -21q-3 -101 -76 -312q-65 -186 -165 -386.5t-241 -404t-290 -346.5q-11 -13 -82 -22q-61 -8 -118 -8q-10 1 -19 1q-64 1 -64 13l107 940q0 43 -1 83q-115 -241 -214 -507t-156 -488q0 -3 -13.5 -10.5t-39 -15.5t-52.5 -11q-36 -5 -89 -5 q-13 1 -27 1q-68 1 -68 13l73 539q9 127 8 234q0 105 -8 192q-17 176 -61 288.5t-110 144.5q-31 15 -61 15q-32 0 -61 -17q-58 -33 -83 -113q-10 -33 -42 -41q-29 -8 -37 14z" />
<glyph unicode="X" horiz-adv-x="1110" d="M43 1420q0 8 26 20q28 13 68 24.5t82.5 21t69.5 10.5t30 -7q27 -469 252 -868q147 231 231 456.5t105 401.5q1 8 71 16q51 6 100 6q20 0 38 -1q67 -3 66 -22v-1q-16 -159 -164.5 -412.5t-376.5 -550.5q242 -393 328 -451q38 -23 78 -27l14 -2q33 0 63 14q36 16 68 57 t51 102q11 26 33 29q17 3 17 -13v-2q0 -6 -3 -14q-23 -73 -73 -127.5t-107 -79.5q-58 -26 -118 -26h-3q-59 0 -102 28q-71 45 -170 139t-199 228q-65 -82 -181.5 -199.5t-154.5 -161.5q-14 -16 -46 -6q-25 10 -15 23q135 151 330 434q-408 593 -408 961z" />
<glyph unicode="Y" horiz-adv-x="1153" d="M45 -430q17 103 123 187q148 119 375 124h15q109 0 226 -28q64 175 97 325q-71 -97 -145 -148q-71 -48 -164 -48h-11q-111 3 -187 131t-106 334q-21 142 -21 314q0 78 5 161q13 269 72 546q3 14 72 20q43 5 85 5q25 0 51 -2q64 -4 64 -17l-43 -244q-18 -108 -36.5 -224 t-29 -206t-19 -182.5t-8.5 -162t5 -135t18.5 -110.5t34.5 -79.5t52 -51.5t71 -18h2q102 0 171 103q70 103 116 303q41 317 41 774q0 100 -2 207q0 8 29.5 17t71.5 15.5t84 9.5q29 3 52 3q10 0 18 -1q29 -1 29 -8q0 -1065 -288 -1660q131 -46 239 -107q12 -6 -6.5 -35 t-46.5 -53t-39 -16q-96 70 -194 123q-65 -105 -158 -183t-187.5 -117.5t-187.5 -55.5q-55 -9 -104 -9q-33 0 -62 5q-73 10 -115 40q-62 46 -62 120q0 16 3 34zM259 -335q-5 -21 -5 -40q0 -54 35 -94q10 -11 22 -20q33 -24 70 -36q25 -8 56 -8q15 0 30 1q49 6 95.5 35 t98 97.5t95.5 172.5q-142 58 -250 58q-82 0 -145 -34q-85 -45 -102 -132z" />
<glyph unicode="Z" horiz-adv-x="1200" d="M38 104q6 62 58 113q53 52 131 53q6 0 11 -1q85 -4 211 -66q187 220 366 637q64 148 123 246.5t133 189.5q-141 14 -313 84l-96 37q-49 -113 -142 -185q-90 -66 -177 -87q-44 -10 -81 -10.5t-68 10.5q-62 21 -101 73t-42 125v13q-1 102 75 180q80 82 225 110 q53 10 112 10q104 0 229 -30v10q0 100 -54 178q-58 82 -171 107q-13 3 -10 15q3 13 21 13h7q134 -25 197 -119q58 -85 57 -196v-21q51 -14 133 -47q22 -8 74 -28t73 -27.5t58 -20t66 -19.5t61 -13q44 40 92.5 70.5t92.5 47t87 26.5q39 9 72 8h6q36 -1 64 -7.5t44 -19.5 t19 -29q2 -11 2 -22q0 -78 -96 -149q-109 -81 -270 -91q-141 -193 -268 -465q-248 -506 -428 -684q131 -76 220.5 -126t199.5 -106.5t187 -87.5t163 -56q87 -25 149 -27h13q55 0 108 14q59 16 104 57q4 2 21.5 -16.5t28.5 -46.5q4 -11 4 -24q0 -19 -9 -42 q-52 -110 -170 -136q-38 -9 -83 -8q-90 0 -202 36q-167 54 -374.5 176.5t-448.5 308.5q-105 -86 -316 -86h-23q-77 1 -119 45q-36 38 -36 90q-1 8 0 16zM117 1343q3 -52 45 -84q43 -33 102 -39q16 -2 33 -2q44 0 94 13q68 17 119 57q61 47 102 125q-164 55 -278 64 q-23 2 -44 2q-82 0 -124 -28q-50 -33 -49 -98v-10zM120 122q-1 -6 0 -12q0 -34 22 -58q26 -30 81 -29h2q51 0 170 122q-113 72 -179 72q-38 0 -60 -24q-32 -31 -36 -71zM1421 1421q20 -1 38 -1q77 0 121 20q47 22 47 67q0 7 -1 15q-4 26 -28 26q-12 0 -28 -6 q-60 -22 -149 -121z" />
<glyph unicode="[" horiz-adv-x="1165" d="M21 51.5q-5 263.5 42 511.5q42 230 84.5 395.5t86 268t82 160.5t87.5 102q30 28 132 49.5t215.5 29t216 3.5t135.5 -21q3 0 -9 -15.5t-31.5 -27.5t-35.5 -6q-34 16 -105.5 12.5t-146 -16.5t-139 -36.5t-82.5 -47.5q-105 -128 -234 -844q-39 -210 -63.5 -460t-1.5 -297 q58 -118 283 -123q9 0 1 -22q-13 -37 -49 -42h-10q-122 3 -245 32t-152 62q-56 69 -61 332.5z" />
<glyph unicode="\" horiz-adv-x="765" d="M23 1495q-7 16 79 30q106 16 154 4q13 -3 14 -9q88 -413 207 -809t225 -686q8 -19 -8 -35q-21 -22 -46 11q-10 13 -19 36q-43 112 -271 653.5t-335 804.5z" />
<glyph unicode="]" horiz-adv-x="1165" d="M63 -354q-3 1 8.5 16.5t31 27.5t36.5 5q33 -16 104.5 -12t145.5 17.5t138.5 36.5t82.5 46q105 132 236 846q39 219 63 465t0 292q-58 118 -282 123q-9 0 -1 22q12 37 48 42h10q122 -3 246 -32t153 -64q56 -67 60.5 -331t-41.5 -511q-42 -230 -85 -395.5t-86.5 -268 t-82 -160.5t-86.5 -102q-30 -28 -132.5 -49.5t-216 -29.5t-216 -4t-134.5 20z" />
<glyph unicode="^" horiz-adv-x="722" d="M27 952q87 77 201.5 187t148.5 153q13 16 36 15t36 -19q1 0 217 -358q4 -7 -3.5 -14.5t-13.5 -2.5q-162 159 -264 250q-1 0 -24.5 -41.5t-65 -112.5t-76.5 -126q-7 -12 -122 34q-77 30 -70 35z" />
<glyph unicode="_" horiz-adv-x="1024" d="M64 41.5q-6 10.5 4 22t47 14.5q463 31 811 67q14 1 25.5 -60.5t11 -113t-12.5 -57.5q-173 49 -466.5 83t-409.5 34q-4 0 -10 10.5z" />
<glyph unicode="`" horiz-adv-x="475" d="M27 1137q-11 5 67 134q64 105 70 97q18 -31 73 -127.5t96.5 -164t74.5 -109.5q10 -12 -15 -17q-8 -1 -12 0q-52 28 -172 90.5t-182 96.5z" />
<glyph unicode="a" d="M49 469q12 102 47.5 179t82.5 118.5t101 63.5q49 20 96 20h10q52 -2 95.5 -20.5t69.5 -49.5q36 30 148 48q45 7 72 7q35 0 40 -12q1 -3 0 -6q-37 -105 -58.5 -238.5t-27.5 -230.5q-3 -45 -3 -82q0 -170 52 -205q30 -18 58 -18q26 -1 52 17q50 36 77 120q10 34 31 42 q18 5 18 -17q0 -9 -4 -21q-23 -72 -64 -120q-42 -46 -90 -64q-34 -12 -71 -13q-15 0 -30 2q-53 7 -99 36.5t-83 83.5t-53 124q-22 -107 -62.5 -165t-109.5 -58q-40 0 -83 15.5t-86.5 51.5t-75.5 87.5t-47 131.5q-8 44 -8 92q0 39 5 81zM286 177q20 -97 93 -97q22 0 38.5 14 t28 43t19 60t13.5 78t9 83.5t7.5 90.5t7.5 86q7 98 20 170q-17 74 -63 83q-6 1 -12 1q-44 0 -85 -66q-52 -83 -71 -238q-15 -118 -14 -200q0 -65 9 -108z" />
<glyph unicode="b" horiz-adv-x="749" d="M66 440q-12 117 -11 278q0 271 33 664q1 14 71 23q57 7 114 7h25q67 -2 67 -14l-121 -909q33 170 97.5 271.5t156.5 101.5q49 0 100.5 -31t93.5 -87q44 -56 64 -146q12 -53 12 -112q0 -40 -6 -83q-12 -98 -54 -178.5t-100 -128.5q-57 -48 -123 -74q-55 -21 -110 -22 q-11 0 -21 1q-66 5 -118 38q-138 87 -170 401zM250 227q15 -101 24 -122q9 -20 23 -29q38 -23 70 -23q45 0 75 47q52 80 78 287q9 68 13.5 116t6.5 98q1 18 1 34q-1 28 -3 48q-4 32 -13 58.5t-26 39t-42 12.5q-46 0 -88.5 -86t-71 -208.5t-47.5 -267.5v-4z" />
<glyph unicode="c" horiz-adv-x="645" d="M47 477q8 64 28.5 120t49.5 97t66 74t77 52q40 20 82 32q38 11 73 11q5 -1 9 -1q40 -2 76 -8q62 -15 96 -66.5t36 -115.5v-8q0 -61 -29 -128q-31 -71 -91 -122q-9 -8 -18 -8q-21 0 -47 36q-38 52 -62 115q-19 50 -19 62q0 3 1 4q115 59 147 125q9 19 9 34q0 25 -27 37 l-10 4q-10 3 -20 3q-50 0 -101 -69q-61 -82 -84 -263q-9 -82 -10 -149q0 -278 165 -292q10 -1 19 -1q85 0 167 54q92 60 115 140q12 39 30 46q11 4 13 -13q0 -9 -2 -23q-20 -106 -140 -187q-104 -71 -219 -71q-17 0 -34 2q-50 4 -100.5 22t-100.5 56t-86 90q-36 54 -54 134 q-10 48 -10 100q0 36 5 75z" />
<glyph unicode="d" horiz-adv-x="825" d="M47 471q13 110 54 190.5t94.5 120.5t113.5 56q38 10 73 10q22 0 42 -4q54 -10 94 -37q7 177 35 557q1 14 71 23q57 7 114 7h25q66 -2 66 -15l-109 -656q-20 -190 -20 -327q0 -72 6 -130q16 -166 72 -205q29 -19 56 -20q26 0 51 19q50 37 76 122q9 33 30 40q18 6 18 -18 q0 -8 -3 -18q-24 -82 -67.5 -130.5t-92.5 -58.5q-18 -4 -37 -4q-33 0 -65 11q-52 17 -95 57.5t-73.5 102.5t-36.5 133q-21 -126 -79 -205.5t-138 -79.5q-39 0 -80 15.5t-81 51.5t-69.5 87.5t-42.5 130.5q-7 43 -7 90q0 40 5 84zM284 179q20 -97 95 -97q17 0 31.5 8.5 t25.5 27t19.5 38.5t16 52.5t12.5 58t9.5 66.5t7.5 67.5t7 70.5l6 66q-1 20 -1 50q0 61 3 163q-27 48 -64 48q-11 0 -22 -4q-63 -21 -104 -142q-24 -71 -35 -167q-15 -119 -15 -201q-1 -63 8 -105z" />
<glyph unicode="e" horiz-adv-x="749" d="M45 428q11 89 58 170.5t112 137.5t140 89t143 33q133 0 201 -59q63 -55 63 -139v-13q-5 -90 -67.5 -190.5t-164.5 -178.5t-211 -100q32 -60 70.5 -92.5t97.5 -38.5q12 -1 24 -1q102 0 201 76q111 84 138 175q10 38 29 44q12 6 12 -16q0 -8 -2 -18q-10 -54 -52.5 -112.5 t-103 -106t-140.5 -74.5q-64 -21 -125 -21q-16 0 -32 1q-57 5 -114.5 24t-112 55t-94.5 85t-60 119q-13 47 -13 98q0 26 3 53zM285 453q-6 -49 -6 -92q0 -88 26 -150q94 23 153 130t72 237q3 33 3 62q1 52 -9 94q-14 64 -53 65q-59 0 -113 -91t-73 -255z" />
<glyph unicode="f" horiz-adv-x="802" d="M33 625q-2 1 -2 5q0 11 13 45q18 45 40 85t29 33q79 -94 153 -127q17 150 50 270t74 196.5t91.5 130.5t100 79t101.5 34q32 6 61 6q17 0 32 -2q42 -6 80 -20q76 -28 108 -110q23 -60 23 -127q0 -26 -3 -54q-13 -98 -62 -201t-123 -170q-85 -79 -152.5 -117.5 t-152.5 -48.5q-10 -76 -11 -83q55 -38 92.5 -106.5t75.5 -170.5q159 92 279 215q10 10 32 2q13 -5 7 -12q-136 -170 -297 -262q33 -108 36 -225q1 -16 1 -31q0 -99 -19 -179q-23 -94 -71 -158.5t-111 -72.5q-8 -1 -17 -1q-28 0 -56 13q-36 17 -70 61.5t-60 112t-43 171 t-20 231.5q-101 30 -145 109q-31 54 -31 111q0 25 6 50q12 63 64 103.5t116 56.5q0 9 1 26.5t1 26.5q2 6 2 19q-53 11 -81 18t-69 24.5t-73 43.5zM186 309q-6 -34 -6 -63q0 -92 60 -137q0 152 8 297q-49 -31 -62 -97zM434 -290q1 -65 6.5 -103t16.5 -65.5t29 -37.5 q12 -7 28 -7q7 0 14 1q56 8 66 182q2 31 2 63q0 146 -37 308q-72 -28 -113 -31q-6 -105 -9 -176q-3 -60 -3 -116v-18zM449 82q69 12 100 27q-37 211 -74 268q-22 -202 -26 -295zM502 610q75 0 131.5 28t124.5 91q61 57 104 148.5t56 180.5q5 31 5 60q0 54 -16 101 q-24 73 -86 94q-12 5 -25 6h-4q-12 0 -26 -4q-18 -5 -35 -17t-37.5 -37t-39.5 -60.5t-39.5 -91t-39.5 -124.5t-38 -165t-35 -210z" />
<glyph unicode="g" horiz-adv-x="790" d="M37 -286q46 118 180 195q123 71 291 85q10 120 10 223q-25 -96 -72.5 -147.5t-113.5 -51.5q-39 0 -80.5 15.5t-82 51.5t-69.5 87.5t-42 130.5q-7 41 -7 86q0 42 6 88q11 87 38.5 156.5t65 112t82.5 70t91 34.5q30 5 59 5q15 0 30 -1q43 -4 78.5 -22t57.5 -44 q38 30 150 47q43 6 69 6q37 0 41 -12q1 -3 0 -6q-38 -107 -62.5 -244.5t-27.5 -224.5q-5 -181 -33 -358q220 -7 373 -135q7 -7 7 -15q0 -10 -8 -16q-7 -5 -15 0q-10 6 -52.5 29.5t-54.5 29.5t-48 21.5t-60.5 20.5t-64.5 11t-85 7q-23 -115 -61.5 -206t-82.5 -147t-97 -93 t-101.5 -51.5t-97.5 -14.5q-144 0 -202 90q-28 44 -28 96q0 43 19 91zM204 -397q8 -84 53 -107q12 -6 26 -6q53 0 93.5 39.5t74 143.5t51.5 274h-2q-170 -11 -250 -144q-48 -80 -48 -166q0 -17 2 -34zM294 186q20 -98 93 -98q33 0 57 54.5t37 140t21.5 172t17 167.5 t17.5 111q-18 69 -65 74h-7q-48 0 -93 -71q-54 -87 -73 -242q-15 -118 -15 -200q0 -66 10 -108z" />
<glyph unicode="h" horiz-adv-x="821" d="M41 14q4 95 12.5 285t11.5 262t8 208.5t7 215.5t4.5 187t3.5 214q0 14 70 22q51 6 103 6q19 0 37 -1q67 -3 67 -15l-54 -424q-34 -336 -51 -626q0 -17 5.5 -16t8.5 18q67 244 108 336q77 172 185 180h11q116 0 157 -104q22 -56 22 -146q0 -77 -16 -180q-23 -136 -23 -219 v-21q4 -86 24 -117.5t61 -31.5q47 0 89.5 41.5t63.5 104.5q9 34 30 42q18 6 18 -18q0 -9 -3 -20q-30 -98 -98 -155.5t-158 -57.5q-139 0 -201 106q-45 78 -46 202q0 44 6 95q8 64 23.5 135.5t27 115t17 82t-5 56t-40.5 17.5q-45 0 -98.5 -124t-93.5 -292t-60 -326 q-3 -19 -55 -31.5t-102 -17.5q-20 -2 -35 -2q-41 0 -41 14z" />
<glyph unicode="i" horiz-adv-x="385" d="M60 275q-14 78 -14 166q0 135 32 292q4 17 78 27q54 7 105 6h37q64 -3 64 -18l-102 -438q-4 -46 -5 -84q0 -127 48 -163q33 -23 68 -23q31 0 63 18q70 38 88 130q6 34 27 42q20 7 20 -20q0 -8 -2 -17q-23 -88 -84.5 -146t-136.5 -67q-14 -2 -27 -2q-62 0 -126 34 q-99 65 -133 263zM113 1020q-3 10 -3 20q0 32 27 65q35 44 103 60q31 7 59 6q37 -1 65 -11q52 -20 58 -66q1 -6 1 -13q0 -34 -30 -72q-36 -46 -98 -59q-26 -5 -49 -5q-40 1 -70 15q-48 22 -63 60z" />
<glyph unicode="j" horiz-adv-x="374" d="M-406 -300q53 114 190 190q116 65 265 83q43 260 43 566l-4 191q0 17 68 28q51 7 101 7q19 0 38 -1q67 -4 67 -20q0 -252 -120 -764q239 0 401 -136q8 -8 8 -16q0 -9 -9 -14q-7 -5 -15 0q-7 4 -38 21.5t-38.5 21.5t-34 18t-38.5 17.5t-37.5 13t-44.5 12.5t-46.5 7.5 t-56.5 5.5t-62 1q-65 -253 -174 -382.5t-235 -129.5q-169 0 -228 95q-25 39 -25 85.5t25 99.5zM-256 -414q20 -78 76 -103q19 -9 39 -9q54 0 95 109.5t85 342.5q-195 -23 -269 -152q-35 -60 -35 -124q0 -31 9 -64zM104 1020q-3 10 -3 20q0 32 27 65q35 44 103 60q32 7 59 7 q36 0 66 -12q51 -19 58 -66q1 -6 1 -13q0 -33 -30 -72q-36 -46 -98 -59q-26 -5 -49 -5q-40 0 -70 15q-49 22 -64 60z" />
<glyph unicode="k" horiz-adv-x="778" d="M78 1382q0 14 70 24q64 9 127 9h13q66 -1 66 -13v-1q-19 -80 -45.5 -402t-46.5 -655q-2 -19 8 -20q6 -2 9 8l2 6q16 79 34.5 147t43 132.5t52 114t61.5 90t72 60.5q38 21 84 28q13 2 26 1q34 0 71 -12q60 -19 88 -73q22 -42 22 -94q0 -15 -2 -31q-8 -71 -39.5 -144 t-93.5 -136.5t-139 -94.5q-3 -1 1.5 -27.5t17.5 -64.5t31.5 -76.5t48 -67t61.5 -31.5q7 -1 13 0q49 -1 92 39q49 46 83 133q13 33 35 38q17 5 17 -15q0 -10 -5 -23q-46 -119 -140 -189q-82 -62 -175 -61q-13 0 -27 1q-44 4 -86 46.5t-70.5 100t-50 114.5t-30.5 97t-6 41 q138 63 213 199q48 87 48 159q0 13 -2 25q-6 51 -40 59q-6 1 -12 1q-24 0 -48 -20q-32 -26 -65 -89t-65.5 -155t-64.5 -223.5t-59 -289.5q-6 -43 -75 -49q-25 -2 -61 -2q-34 0 -66 4q-31 3 -31 10z" />
<glyph unicode="l" horiz-adv-x="442" d="M85 684q5 156 17.5 324t34.5 389q1 14 71 22q51 6 101 6q19 0 38 -1q67 -3 67 -16l-120 -762q-21 -188 -21 -312q0 -70 6 -118q18 -138 83 -161q13 -5 28 -5q29 0 64 20q52 30 90.5 77t51.5 86q13 36 33 41q15 4 17 -15q0 -10 -3 -23q-14 -49 -51.5 -98t-90.5 -86 t-115 -50q-23 -5 -46 -5q-41 0 -82 15q-52 19 -87.5 70t-55.5 138q-19 88 -27 198q-4 66 -5 149q0 55 2 117z" />
<glyph unicode="m" horiz-adv-x="1169" d="M65 500q0 208 -22 346v1q0 13 70 27q72 14 134 17h17q47 0 53 -10q-38 -273 -55 -533q-1 -17 5 -16t9 18q63 228 81 281q62 178 147 218q28 13 61 13q85 0 135 -72q41 -59 41 -168q0 -24 -2 -51q4 12 11 35q14 43 20.5 64t19 54t22 48.5t24 36.5t30 30t36.5 16t46 7 q179 0 179 -255q0 -73 -15 -167q-24 -158 -28 -244q-1 -16 -1 -29q1 -61 13 -91q16 -36 53 -39q3 0 5 -1q43 0 86 46q45 48 65 111q11 37 32 42q15 4 16 -15v-4q0 -8 -3 -19q-31 -105 -107 -165q-69 -55 -139 -56q-7 0 -14 1q-225 17 -225 305q0 50 7 109q8 66 19.5 135.5 t19.5 110t13 75.5t1 49.5t-18 14.5q-61 0 -122 -200.5t-99 -503.5q-3 -20 -40 -32.5t-79 -16.5q-16 -1 -33 -1q-20 0 -42 2q-41 4 -41 11q24 167 47 356q6 46 14 98t14 86.5t11.5 70t6.5 57t-1 39.5t-9.5 26t-21.5 8q-45 0 -94.5 -121t-85 -281.5t-56.5 -322.5 q-6 -43 -75 -49q-25 -2 -61 -2q-34 0 -66 4q-31 3 -31 10z" />
<glyph unicode="n" horiz-adv-x="802" d="M43 14q23 286 23 494l-23 339q0 13 70 27q72 14 134 17h17q47 0 53 -10q-38 -273 -55 -533q-1 -17 5 -16t9 18q66 240 105 329q73 167 176 182q10 1 21 1q102 0 150 -106q28 -63 28 -162q0 -68 -13 -154q-25 -158 -29 -244q-1 -15 0 -29q0 -63 13 -91q16 -36 55 -39h5 l85 44q45 47 66 112q9 34 30 42q18 6 18 -18q0 -9 -3 -20q-27 -93 -99 -155q-65 -55 -143 -55q-9 0 -18 1q-135 10 -187 111q-37 71 -36 187q0 49 6 105q6 47 14.5 98t15.5 86t13.5 70t9 57t0.5 40t-11 26t-26 8q-45 0 -97 -120t-90.5 -283t-58.5 -322q-3 -20 -39.5 -32.5 t-76.5 -16.5q-16 -1 -34 -1q-20 -1 -42 1q-41 4 -41 12z" />
<glyph unicode="o" horiz-adv-x="778" d="M49 457q28 234 183 346q98 70 208 70q11 0 23 -1q99 -7 140 -66q14 -19 18 -42q2 -11 -12 -13q-24 0 -40 13q-14 65 -63 67h-3q-54 0 -110 -73q-81 -106 -102 -285q-14 -116 -15 -201q0 -225 103 -225q146 0 186 330l4 24q-138 8 -189 89q-26 41 -26 81q0 39 25 77 q50 77 160 77q41 0 81.5 -15t77.5 -46t59 -86q21 -53 21 -121v-6q35 8 107 43q5 2 9.5 -7.5t4.5 -19.5t-6 -14q-70 -34 -117 -45q0 -9 -2 -15q-9 -85 -42 -154.5t-77 -113.5t-99.5 -73.5t-108.5 -41.5t-105 -12q-42 0 -85.5 15.5t-86.5 51.5t-74 87.5t-45 130.5q-8 43 -8 90 q0 40 6 84zM428 522q30 -74 143 -82q5 68 5 116q0 54 -6 81q-12 51 -68 51q-38 0 -65 -49q-19 -35 -19 -69q0 -24 10 -48z" />
<glyph unicode="p" horiz-adv-x="751" d="M43 -539v7q0 18 5 86q7 88 17.5 226.5t14.5 233.5q12 246 12 430l-24 403q0 13 70 27q72 15 134 17h17q46 0 53 -10q-27 -207 -33 -267q58 131 82 167q47 69 109 69q46 0 96.5 -30t94 -85t65.5 -147q15 -58 15 -123q0 -38 -5 -78q-12 -103 -55 -189t-101 -135.5 t-121 -71.5q-35 -12 -68 -12q-28 0 -55 8q-59 18 -98 74q-29 -376 -37 -573q0 -15 -14.5 -24t-38.5 -11q-12 -1 -29 -1q-21 0 -51 2q-52 2 -55 7zM274 162q43 -114 94 -114q13 0 26 7q59 30 100 168q21 70 30 148q15 97 15 182q0 41 -3 79q-11 118 -57 118q-39 0 -73 -44.5 t-57.5 -118.5t-38.5 -150t-25 -158q-1 -25 -5.5 -63t-5.5 -54z" />
<glyph unicode="q" horiz-adv-x="792" d="M47 471q12 101 47.5 177.5t82.5 118.5t101 63q50 20 98 20h8q52 -2 95.5 -19.5t69.5 -48.5q38 29 150 46q44 7 71 7q37 0 41 -13q1 -1 1 -2.5t-1 -2.5q-88 -250 -125 -499t-74 -830q0 -13 -32 -23t-62 -12q-12 -1 -25 -1q-16 0 -35 2q-34 2 -34 7q20 397 39 684 q-68 -133 -141 -133q-39 0 -80 15.5t-81 51.5t-69.5 87.5t-42.5 130.5q-7 43 -7 90q0 40 5 84zM289 485q-15 -130 -15 -218q0 -185 68 -185q37 0 75.5 75t59.5 181q19 226 49 389q-18 69 -64 73h-7q-48 0 -93 -73q-54 -88 -73 -242z" />
<glyph unicode="r" horiz-adv-x="694" d="M63 820q0 15 70 29q72 15 134 17h17q47 0 54 -10q-33 -240 -51 -508q-1 -17 5 -16t9 18q11 47 26.5 122t24.5 116t24.5 98.5t31 89.5t38.5 66t53 52.5t68 25.5q13 3 26 2q43 0 79 -28q48 -36 68 -90q16 -41 15 -78q0 -11 -1 -21q-3 -23 -84 -62q-89 -43 -139 -43 q-6 0 -12 1q-29 3 -23 30q4 15 10.5 39t11 40.5t9.5 37t6.5 33.5t1.5 24.5t-5 16.5t-14 3q-34 -8 -62 -68.5t-52.5 -178.5t-41 -222t-40.5 -274q-5 -34 -7 -51q-3 -23 -65 -29q-29 -3 -59 -2q-33 0 -63 3q-60 6 -58 11q19 245 19 438z" />
<glyph unicode="s" horiz-adv-x="700" d="M14 293q13 37 52 67q27 21 57 21q13 0 27 -4q26 49 42.5 116.5t22.5 113t14 130.5q-45 38 -77 84q-31 45 -31 82q0 33 25 55q24 20 58 26q32 8 66 8h10q27 0 47 -3q23 -3 23 -4q-4 -23 -4 -45q0 -36 10 -68q16 -52 50.5 -91t78 -76t87.5 -75.5t80 -81.5q36 -42 54 -101 q13 -43 13 -91q0 -18 -2 -37q-8 -71 -35 -128.5t-65.5 -94.5t-86.5 -64.5t-98 -37.5q-52 -10 -102 -14q-14 -1 -28 -1q-35 0 -66 7q-80 14 -139 63.5t-81 115.5q-12 35 -12 68q0 30 10 60zM172 144q-7 -18 -8 -35q0 -21 12 -39q20 -32 78 -41q12 -2 23 -2q71 1 121 65 q58 74 73 207q3 29 3 57q0 208 -185 336l-13 10q-12 -117 -30 -197t-56 -147q45 -22 55 -68q3 -12 3 -22q0 -29 -21 -47q-39 -37 -55 -77z" />
<glyph unicode="t" horiz-adv-x="456" d="M-86 944q0 10 8 19t19 6q3 -5 60.5 -4.5t66.5 0.5l20 237q2 14 72 23q58 7 115 7h25q66 -2 65 -14v-1q-6 -33 -21 -113t-22 -125q42 5 85.5 21t65.5 27t74 43l65 40q3 2 6 2q16 0 20 -59q2 -24 2 -48q0 -51 -8 -96q0 -6 -1 -6q-65 -20 -149 -22q-21 -1 -42 -1 q-64 0 -129 5q-48 -322 -48 -520q0 -35 1 -66q10 -208 107 -244q17 -7 34 -7q44 0 92 42q67 58 89 123q13 35 33 40q14 4 15 -14q1 -10 -3 -24q-9 -34 -38 -75.5t-73.5 -79t-98.5 -52.5q-24 -7 -49 -7q-32 0 -65 11q-91 34 -151 158t-82 310q-14 115 -13 247q0 83 5 172 q-55 7 -138 27q-14 4 -14 18z" />
<glyph unicode="u" d="M43 397q5 106 18.5 217t26.5 146q10 28 126 56q75 17 115 17q20 0 31 -4q10 -4 7 -12q-19 -39 -31.5 -74.5t-28 -118t-26.5 -200.5q-7 -77 -6 -136q0 -206 77 -206q90 0 146 373q3 148 37 305q6 28 115 56q75 19 119 19q19 0 32 -4q15 -4 12 -14q-38 -105 -60 -238 t-28 -231q-5 -69 -5 -121q0 -43 4 -75q8 -70 36 -91q25 -17 52 -17q34 0 74 28q70 48 95 131q10 33 32 40q18 6 18 -18q0 -8 -3 -18q-21 -70 -63 -119q-43 -50 -93 -73q-47 -22 -99 -22q-3 1 -7 1q-56 2 -105 27t-89 78.5t-58 127.5q-38 -121 -70.5 -168t-99.5 -47 q-36 0 -76 13t-81.5 43.5t-74.5 73.5q-32 44 -52 110q-18 60 -17 130v15z" />
<glyph unicode="v" horiz-adv-x="784" d="M46 484q-1 21 -1 43q0 105 31 233q7 29 100 56q64 19 100 19q17 0 28 -4q12 -4 9 -14q-39 -146 -50 -273q-5 -61 -5 -111q0 -55 6 -98q12 -82 36 -141.5t49.5 -85.5t45.5 -26q57 0 126.5 103.5t109.5 244.5q-21 -1 -41 -1q-58 1 -106 11q-64 14 -100 41t-54 65 q-18 36 -18 76q0 44 18 90q17 44 47 84.5t73.5 74.5t94.5 55q21 8 45 9h6q22 1 45 -5q27 -6 52 -25.5t45 -48.5t32 -76t12 -106q0 -95 -22 -185q21 1 56.5 19t51.5 24q26 10 36 -4q3 -4 3 -8q0 -12 -25 -26q-6 -4 -14 -7q-13 -6 -34.5 -15.5t-31.5 -14t-26 -9.5t-31 -8 q-51 -168 -172 -298t-213 -130q-37 0 -85.5 28t-100 86t-86 147t-42.5 211zM487 682q3 -66 44 -123.5t116 -66.5q17 96 17 151q0 88 -18 147.5t-45 79.5q-16 12 -33 13q-11 0 -23 -6q-29 -13 -45 -71q-14 -49 -13 -103v-21z" />
<glyph unicode="w" horiz-adv-x="1241" d="M47 484q-1 19 -1 38q0 107 32 238q6 28 112 56q76 20 119 20q19 0 32 -4q16 -5 13 -15q-28 -106 -44 -202q-17 -97 -20 -169q-2 -36 -2 -70t2 -64q4 -62 14 -103.5t24 -70.5t28.5 -42.5t28.5 -13.5q37 0 67.5 47.5t67.5 142.5q-3 9 -13.5 41t-14.5 45t-12.5 44.5 t-11 50.5t-6 51.5t-2 59t5.5 60.5t13 68q6 29 113 58q76 20 121 20q18 0 30 -3q16 -4 13 -15q-28 -106 -41 -199q-11 -81 -11 -141v-18q2 -66 12.5 -121t28 -89.5t37.5 -58t38 -33.5t32 -10q55 0 125 104t110 244h-23q-56 0 -101 12q-55 15 -89 43t-54 66q-20 39 -22 81v14 q0 36 10 72q12 44 37.5 83t65.5 72.5t90 52.5q21 8 45 9h6q22 1 45 -5q27 -6 52 -25.5t45.5 -48.5t32.5 -76t12 -106q0 -101 -20 -182q13 1 29.5 5t27.5 8.5t34 13.5t33 13q27 10 38 -4q3 -4 3 -9q0 -12 -24 -25q-6 -4 -14 -7q-82 -35 -144 -47q-51 -168 -172 -298 t-213 -130q-58 0 -138.5 50t-129.5 143q-52 -94 -99.5 -143.5t-99.5 -49.5q-37 0 -84 28t-97 86t-82.5 147t-39.5 211zM960 692q6 -64 44 -123.5t102 -76.5q14 79 14 151q0 88 -18 147.5t-45 79.5q-16 12 -33 13q-11 0 -23 -6q-23 -11 -35 -65q-8 -36 -8 -76q0 -22 2 -44z " />
<glyph unicode="x" horiz-adv-x="1024" d="M45 576q7 90 53.5 163.5t120.5 112.5q47 25 100.5 25t107 -25.5t101 -72.5t85 -123t55.5 -171l18 -100q52 73 78 184t43 289q4 38 73 46q26 3 52 2q42 0 84 -8q67 -12 67 -21q-6 -107 -119 -289q-104 -168 -253 -316q36 -142 49 -173q25 -57 71 -70q11 -3 25 -3 q37 0 90 24q72 33 136.5 89.5t91.5 110.5q17 34 40 35q14 2 14 -11q0 -3 -1 -7q-1 -9 -8 -21q-63 -115 -156 -186q-93 -72 -190 -88q-26 -4 -52 -4q-71 0 -141 32q-96 44 -164 150q-100 -83 -174 -128t-158 -67q-4 -1 -8 -1q-12 0 -14 14q-3 19 12 27q2 0 4 1q19 5 41 16.5 t38 22t41 28t38 25.5q-106 51 -178 134t-96 174q-19 71 -19 141q0 19 2 39zM98 542.5q0 -76.5 26 -155t94.5 -150t168.5 -112.5q59 45 94 82q-8 22 -14 50.5t-12.5 69t-10.5 58.5q-50 243 -99 335q-33 62 -83 62q-24 0 -51 -14q-52 -27 -82.5 -88t-30.5 -137.5z" />
<glyph unicode="y" horiz-adv-x="792" d="M19 -286q38 118 173 196q130 75 318 90q10 120 10 201q-32 -95 -81.5 -147t-104.5 -52q-46 0 -94.5 22.5t-92.5 66.5t-71 121q-24 68 -24 150q0 12 1 25q3 104 17 215.5t28 147.5q10 29 125 57q75 18 115 18q19 0 30 -4t7 -12q-7 -14 -26.5 -89.5t-39.5 -185t-29 -212.5 q-4 -34 -4 -65q0 -63 14 -112q19 -73 72 -73q25 0 45.5 18.5t35.5 54.5t26.5 75t20.5 95t14.5 98.5t11.5 100.5q6 147 27 248q6 29 115 57q76 20 119 20q19 0 32 -4q16 -4 12 -14q-41 -119 -60.5 -256t-32 -298.5t-30.5 -264.5q218 -7 373 -133q8 -8 8 -16q0 -10 -9 -15 q-7 -6 -15 -2q-9 5 -36 21t-36 21t-32 17t-35.5 16.5t-35 13.5t-40.5 12.5t-42.5 8t-51 6.5t-56.5 3q-23 -115 -61.5 -205.5t-82.5 -147t-97 -93.5t-101.5 -51.5t-97.5 -14.5q-143 0 -207 89q-37 49 -37 109q0 35 13 73zM206 -388q8 -85 54 -109q13 -7 27 -7q53 0 93 39.5 t73.5 143.5t52.5 274q-169 -8 -251 -140q-50 -81 -50 -172q0 -15 1 -29z" />
<glyph unicode="z" horiz-adv-x="935" d="M57 166q6 69 45 114q38 46 94 62q54 16 118 16h4q66 0 128.5 -17.5t112.5 -45.5q40 70 58.5 104.5t44.5 100t45 141.5q-69 24 -130.5 39.5t-110.5 22.5q-50 7 -92 8h-11q-35 1 -61 -5q-30 -6 -56 -16.5t-40.5 -26t-24.5 -33.5t-10 -39t3 -42q12 -61 55 -85q29 -16 61 -16 q16 0 30 4q48 11 91.5 43.5t59.5 73.5q4 10 15 12.5t18.5 -5.5t1.5 -23q-16 -41 -60.5 -77t-101 -53.5t-113 -17.5t-101.5 32.5t-60 94.5q-5 29 -5 58q1 7 1 15q2 37 20.5 69.5t45 62t70.5 52t95.5 38t119.5 20.5q32 2 66 2q37 -1 77 -3q74 -6 165.5 -24.5t189.5 -51.5 q47 -15 55 -33q3 -6 2 -15q0 -18 -11 -50q-36 -109 -118.5 -256.5t-150.5 -227.5q55 -78 102 -119q46 -41 82 -50q10 -3 21 -3q25 0 50 16q35 22 61.5 57.5t60.5 96.5q19 32 39 30q12 -1 12 -14q0 -6 -2 -13q-3 -8 -8 -17q-41 -69 -77 -112.5t-81 -69.5q-39 -23 -81 -23 q-6 0 -13 1q-49 4 -111 37.5t-137 100.5q-101 -91 -272 -110q-18 -2 -35 -2q-45 0 -91 12q-66 17 -112 60q-43 40 -43 91v9zM250 174v-9q0 -49 20 -87q20 -37 50 -37h6q10 1 19 4.5t19 10t17.5 11.5t19 17t17.5 18.5t19 23t18.5 23t20.5 26t20 26.5q-50 59 -96 85 q-35 19 -63 19q-9 0 -17 -2q-32 -8 -51 -42t-19 -87z" />
<glyph unicode="{" horiz-adv-x="1259" d="M22 667q4 13 7 13q39 8 59 10h8q22 4 34.5 8.5t27 16.5t23.5 35t16 59q27 150 86.5 275.5t135 208.5t164.5 145t178 93t173 43.5t151 5t111 -29.5q2 0 -10 -15.5t-32 -27.5t-36 -6q-34 15 -78.5 18t-99.5 -10.5t-111.5 -43.5t-113.5 -86t-106.5 -131t-90.5 -187t-65 -246 q-13 -90 -109 -137q93 -42 68 -170q-144 -813 198 -819q9 0 1 -22q-12 -37 -48 -42h-10q-75 2 -145 34t-132 98.5t-99 169.5t-46.5 246t25.5 329q11 62 -25 98t-86 31q-17 -2 -22 10.5t-1 25.5z" />
<glyph unicode="|" horiz-adv-x="425" d="M63 -356q13 107 29 866.5t35 1050.5q1 15 71 25t139 9t66 -14q-53 -203 -104.5 -525.5t-79.5 -567t-60 -550.5t-36 -344q-2 -17 -22 -24q-26 -10 -36 22q-6 19 -2 52z" />
<glyph unicode="}" horiz-adv-x="1259" d="M63 -344q-2 2 10 17t31 27t35 5q34 -15 79.5 -18t100.5 11t111.5 44t113.5 86t106.5 131.5t90.5 187.5t64 246q15 86 108 137q-89 37 -67 170q144 811 -197 820q-8 0 -1 21q12 35 46 41q6 1 13 1q75 -2 144.5 -34t131.5 -99t99 -169.5t46.5 -245.5t-26.5 -328 q-11 -62 25.5 -99.5t86.5 -32.5q17 2 21.5 -10t0.5 -25t-7 -14l-60 -8q-4 0 -6 -2q-22 -4 -34.5 -8t-27.5 -15.5t-24 -34.5t-16 -59q-24 -132 -72.5 -245.5t-111.5 -193.5t-137.5 -143.5t-152.5 -101t-155.5 -61t-147.5 -28t-126.5 3t-94.5 26.5z" />
<glyph unicode="~" horiz-adv-x="593" d="M49 1102q-5 15 1.5 24.5t15 12t10.5 0.5q32 -25 55 -27t41.5 14.5t36.5 37.5t48.5 42t68.5 27q77 11 134 -38.5t91 -123.5q3 -6 -6.5 -10.5t-12.5 0.5q-30 32 -46.5 41.5t-31 1.5t-27 -22.5t-44 -33.5t-72.5 -28q-85 -17 -166 8t-96 74z" />
<glyph unicode="&#xa1;" horiz-adv-x="477" d="M-14 -391q37 142 100.5 375t87.5 327.5t51.5 225.5t40.5 237q2 16 26 24q34 11 49 -20q9 -19 5 -53q-12 -95 -19 -239.5t-18 -386.5t-26 -470q-1 -15 -76.5 -25t-149.5 -9t-71 14zM211 1024q-2 29 23.5 59t74.5 35q52 3 83 -20t34 -54q2 -30 -23.5 -58.5t-74.5 -31.5 q-51 -6 -82.5 16.5t-34.5 53.5z" />
<glyph unicode="&#xa2;" horiz-adv-x="645" d="M47 477q10 88 44.5 159.5t83.5 116.5t105 71.5t115 33.5q4 96 8 150q1 15 51 25t98.5 9t45.5 -14q-22 -83 -47 -192q62 -35 81 -111.5t-11 -162.5t-101 -148q-18 -16 -43 2q-19 -139 -35 -363h2q94 -7 185.5 53.5t115.5 139.5q12 39 30 46q11 4 13 -13q0 -9 -2 -23 q-19 -97 -122 -174.5t-226 -81.5q-4 -60 -16 -180q-2 -17 -22 -24q-26 -11 -36 21q-6 19 -2 52q10 98 11 133q-63 8 -123 39t-112.5 86t-78.5 146t-12 204zM289 494q-40 -339 86 -418q2 73 4 245t4 261q-13 36 -8 41q1 1 4.5 2t5.5 2q0 22 1 47t2.5 56.5t2.5 49.5 q-77 -84 -102 -286z" />
<glyph unicode="&#xa3;" horiz-adv-x="907" d="M20 18.5q1 42.5 21 71.5q45 64 137.5 75t214.5 -36q61 154 109 375q-70 2 -180 2q-19 -1 -28 17q-12 24 27 38q16 6 41 8l156 13q17 81 41 217q38 224 139 393q-99 41 -174 82q-13 7 0 33t36 46.5t34 12.5q72 -54 156 -100q66 86 155.5 148t178.5 90.5t176 37t155 -4.5 t107 -42q68 -50 58 -137q-11 -92 -103 -161q-137 -104 -367 -83q-84 7 -176 33q-75 -147 -119 -344q-32 -143 -47 -201q94 8 145 14q20 1 38 -77q17 -77 5 -93q-3 -3 -6 -2q-90 28 -211 43q-73 -274 -151 -421q202 -105 377 -165t303.5 -74t221 7t146.5 74q24 6 53 -19.5 t41 -61t-4 -71.5q-27 -49 -77.5 -83t-124 -52.5t-174.5 -8t-220 47t-270.5 116.5t-316.5 197q-47 -64 -144.5 -99.5t-203.5 -35.5q-59 0 -101 28.5t-58.5 69t-15.5 83zM115 10q3 -32 35.5 -56t82.5 -22q29 0 66.5 37t65.5 92q-54 31 -97 44t-70 8.5t-43 -14.5t-26 -25 q-17 -32 -14 -64zM969 1210q237 -94 386 -12q87 48 112 133q21 73 -16 117q-7 8 -15 14q-38 28 -90.5 30.5t-114 -22t-131 -91.5t-131.5 -169z" />
<glyph unicode="&#xa4;" horiz-adv-x="921" d="M29 528q24 194 163 300.5t343 97.5q162 -6 267.5 -126t96.5 -282q-5 -105 -52.5 -195.5t-122 -150.5t-169.5 -91.5t-193 -25.5q-69 3 -133.5 37t-114 92t-74 148t-11.5 196zM229 346q1 -54 12 -93t30 -72.5t52.5 -51.5t79.5 -20q104 -5 166.5 94.5t71.5 285.5q6 76 2 143 t-17 118t-48.5 83t-92.5 37q-110 7 -167 -76.5t-78 -236.5q-7 -61 -9.5 -109t-1.5 -102z" />
<glyph unicode="&#xa5;" horiz-adv-x="1132" d="M160 1231q-9 11 40.5 58.5t105.5 85.5t63 26q52 -95 129.5 -245t131.5 -256.5t60 -115.5q8 8 89.5 110.5t194 238t189.5 217.5q9 9 75 -25.5t123 -76.5t46 -50q-195 -139 -263 -188t-174 -130t-175 -143q30 3 79 9.5t89 9.5q14 2 31 -54t21 -103.5t-7 -51.5 q-152 41 -244 53l-23 -147q11 1 234 24q14 1 31.5 -55.5t22 -104t-6.5 -51.5q-171 49 -297 60q-8 -53 -24.5 -151t-20.5 -140q-2 -16 -39.5 -25t-72 8.5t-29.5 65.5q19 172 24 250q-151 10 -233 10q-18 0 -28 23q-14 33 21 51q17 8 46 10t89 8t113 10l11 164 q-144 13 -267 13q-17 0 -27 22q-14 33 20 52q18 10 48 12l228 18q-47 56 -424 504z" />
<glyph unicode="&#xa6;" horiz-adv-x="534" d="M63 -356q8 66 12.5 117.5t6.5 128t2 133t0.5 203.5t1.5 268q0 14 70 24.5t139 9.5t65 -14q-32 -127 -89 -322.5t-95 -341.5t-53 -256q-2 -17 -22 -24q-26 -10 -36 22q-6 19 -2 52zM215 705q8 65 12.5 120.5t6.5 143t2.5 137.5t1 204.5t0.5 243.5q0 14 70 24.5t139 10 t65 -13.5q-21 -83 -119.5 -428.5t-118.5 -491.5q-2 -17 -22 -24q-26 -10 -35 22q-6 20 -2 52z" />
<glyph unicode="&#xa7;" horiz-adv-x="1404" d="M27 743q18 132 117 235.5t239 145.5l4 2q-3 99 41 195q28 61 84 111.5t124.5 81.5t143.5 47.5t147.5 14t129.5 -23.5q123 -44 143 -148q18 -95 -55 -192q-80 -103 -214 -137q-91 -23 -188 -4q-16 3 -18.5 20t8.5 21q146 -20 264 59q91 61 113 146q24 93 -58 154 q-29 21 -71 36q-123 44 -246.5 -7.5t-175.5 -162.5q-29 -61 -29 -119.5t29 -110.5t101.5 -90t181.5 -54q79 -12 155 -36t152.5 -68t130.5 -100.5t82.5 -139t15.5 -177.5q-19 -138 -101 -239.5t-214 -141.5q-1 0 -3 -1t-3 -1q12 -105 -37 -215q-28 -61 -91 -109.5t-141 -76.5 t-162.5 -41.5t-162.5 -9t-135 25.5q-123 44 -139 145q-15 92 62 183q86 101 225 131q91 20 186 2q14 -3 17.5 -20t-7.5 -21q-149 21 -273 -55q-94 -58 -119 -137q-27 -90 55 -149q28 -20 68 -34q126 -43 259.5 0.5t185.5 149.5q29 61 29 122.5t-29.5 117.5t-102.5 98 t-182 57q-79 12 -155.5 36t-152.5 67.5t-130.5 100t-82.5 139t-15 177.5zM221 756q-7 -47 1.5 -89.5t26 -75t49.5 -61.5t62.5 -49t75.5 -38.5t78 -29.5t81 -22.5t73 -16.5t65 -12q126 -22 204 -85t107 -152q46 17 86 107.5t54 197.5q7 47 -1.5 89.5t-26 74.5t-49.5 61 t-62 49t-76 39t-78 29.5t-81 22t-73 16.5t-65 12q-67 11 -115.5 33.5t-79 55.5t-48 67.5t-30.5 81.5q-59 -21 -109 -97.5t-69 -207.5z" />
<glyph unicode="&#xa8;" horiz-adv-x="634" d="M-4 1008q-11 41 24 85t103 60q72 15 123.5 -5t58.5 -67q7 -39 -29 -84.5t-98 -58.5q-71 -13 -119 9.5t-63 60.5zM330 1008q-11 41 24 85t103 60q72 15 123.5 -5t58.5 -67q7 -39 -29 -84.5t-98 -58.5q-71 -13 -119 9.5t-63 60.5z" />
<glyph unicode="&#xa9;" horiz-adv-x="1705" d="M-6 739q21 165 103.5 307.5t204.5 240.5t278 154t321 56q102 0 201 -31t184.5 -91.5t143.5 -150.5t79 -207.5t-10 -262.5q-32 -146 -101 -270t-157 -209t-191.5 -144.5t-206.5 -87t-200 -27.5q-101 0 -201.5 33.5t-187.5 98t-151 150.5t-94 201t-15 240zM233 741 q-23 -189 21.5 -337t154.5 -232t269 -84q93 0 186 45.5t173.5 127t141 206t85.5 272.5q14 84 19.5 156t1.5 145t-20.5 131.5t-49.5 110t-82.5 86t-122.5 54.5t-166 20q-241 0 -407.5 -194.5t-203.5 -506.5zM447.5 590.5q-33.5 117.5 5.5 281.5q23 88 63 156t89 107.5 t104 60.5t108.5 20t102.5 -20q45 -17 75 -69.5t36 -115t-21 -128t-86 -105.5q-31 -20 -70.5 20t-64 90.5t-17.5 51.5q76 27 122 77t42.5 89t-35.5 61q-33 15 -66 -6.5t-69.5 -95t-69.5 -197.5q-28 -108 -40 -189.5t-9 -144t28.5 -92.5t74.5 -26q58 6 97.5 59.5t45.5 120.5 q3 22 22 30q16 6 17 -12q0 -94 -62.5 -172.5t-160.5 -87.5q-81 -8 -154.5 55.5t-107 181z" />
<glyph unicode="&#xaa;" d="M49 1104q12 102 47.5 179t82.5 118.5t101.5 63.5t106 19.5t95 -20.5t69.5 -49q36 30 148 48q103 16 112 -5q1 -3 0 -6q-37 -105 -58.5 -238.5t-27.5 -230.5q-14 -245 49 -287q60 -36 110.5 -0.5t76.5 119.5q10 34 31 42q17 5 18 -14q1 -10 -4 -24q-23 -72 -64.5 -119.5 t-89.5 -65t-101 -10.5t-99 36.5t-83 83.5t-53 124q-22 -107 -62.5 -165t-109.5 -58q-40 0 -83 15.5t-86.5 51.5t-75.5 87.5t-47 131t-3 173.5zM285.5 812q20.5 -97 93.5 -97q22 0 38.5 14t28 42.5t19 59.5t13.5 78t9 84t7.5 90.5t7.5 85.5q7 98 20 170q-17 74 -63 83 q-50 10 -97 -64q-52 -83 -71 -238q-26 -211 -5.5 -308z" />
<glyph unicode="&#xab;" horiz-adv-x="731" d="M50 122.5q-2 5.5 1 8.5q38 34 96.5 86t89 79t63.5 58.5t50 51.5q-2 0 -43.5 17t-112 50.5t-128.5 67.5q-12 7 7 110q12 68 19 62q33 -34 92.5 -82.5t110 -85t110.5 -79.5t72 -52q13 -10 13.5 -35.5t-15.5 -36.5q0 -1 -66.5 -33t-168 -88t-172.5 -106q-4 -4 -10 -1t-8 8.5 zM270.5 137q-1.5 5 1.5 8q186 140 320 269l-16 9q-17 9 -45 24t-61 34t-73.5 44.5t-74.5 49.5q-10 9 13 110q16 66 23 60q37 -47 111 -113.5t156.5 -134t93.5 -77.5q12 -10 10.5 -36.5t-16.5 -35.5q-1 -2 -70.5 -35.5t-176 -87.5t-179.5 -98q-4 -2 -9.5 1.5t-7 8.5z" />
<glyph unicode="&#xac;" horiz-adv-x="1046" d="M64.5 493.5q-6.5 10.5 3.5 22t47 14.5q65 4 403 40.5t449 47.5q25 2 32 -109t2 -223t-10 -116q-2 -5 -15.5 -11t-30 4t-21.5 46q-2 17 -17 75.5t-24 100.5q-187 39 -452 68.5t-355 29.5q-5 0 -11.5 10.5z" />
<glyph unicode="&#xad;" horiz-adv-x="792" d="M64 379q-12 24 26 38q17 7 43 9q17 2 208 16.5t343 30.5q20 1 38 -77q17 -77 5 -93q-3 -3 -6 -2q-114 38 -295 51.5t-334 9.5q-19 -1 -28 17z" />
<glyph unicode="&#xae;" horiz-adv-x="1705" d="M2 739q21 165 104 307.5t205 240.5t277.5 154t320.5 56q102 0 201 -31t185 -91.5t144 -150.5t78.5 -207.5t-10.5 -262.5q-32 -146 -101 -270t-157 -209t-191.5 -144.5t-206.5 -87t-200 -27.5q-101 0 -201.5 33.5t-187.5 98t-151 150.5t-94 201t-15 240zM242 741 q-23 -190 22 -337t154 -231.5t268 -84.5q93 0 186 45.5t173.5 127t141 206t85.5 272.5q14 84 19.5 156t1.5 145t-20.5 131.5t-49.5 110t-82.5 86t-122.5 54.5t-166 20q-241 0 -407 -194.5t-203 -506.5zM494 1188q-2 15 69.5 30t133.5 17t71 -10q-33 -240 -51 -508 q-1 -17 5 -16t9 18q11 46 26.5 121.5t24.5 116.5t24.5 98t31 89t38.5 66t53 52.5t68 25.5q89 17 152.5 -34.5t54.5 -118.5q-3 -24 -86 -69q-99 -56 -149 -54q-29 2 -23 28q29 112 24 136q-3 22 -24 18q-33 -8 -62 -71t-52 -172.5t-41.5 -228t-40.5 -270.5q-4 -35 -7 -53 q-4 -23 -65.5 -28t-121 1t-58.5 11q41 524 -4 805z" />
<glyph unicode="&#xaf;" horiz-adv-x="710" d="M64 1080q-8 19 28 29q12 3 27 5q43 5 216.5 37t285.5 47q12 2 20.5 -59.5t7.5 -122.5t-12 -58q-139 38 -303 67.5t-246 37.5q-19 1 -24 17z" />
<glyph unicode="&#xb0;" horiz-adv-x="442" d="M22 983q-3 30 6.5 60.5t33.5 60t59 47.5q72 39 190.5 30.5t147.5 -55.5q37 -48 15 -115.5t-93 -103.5q-42 -23 -115.5 -29.5t-139 8.5t-85.5 46q-16 21 -19 51zM172.5 1045.5q-8.5 -55.5 5.5 -95.5q12 -35 53 -41t64 21q28 32 36 85t-7 97q-10 34 -51 41.5t-64 -18.5 q-28 -34 -36.5 -89.5z" />
<glyph unicode="&#xb1;" horiz-adv-x="856" d="M92 174q-13 23 23 37q17 7 45 10q18 2 51 6.5t85.5 11.5t96.5 13q0 3 -1 9.5t-1 10.5q-2 16 -12 85.5t-17 121.5q-153 30 -243 27q-18 -1 -27 16q-13 23 23 37q17 7 45 10q49 6 188 25l-24 229q-1 14 66.5 29t124.5 17t63 -9q-29 -86 -70 -246l203 23q14 1 29 -66.5 t17 -124.5t-9 -63q-101 34 -271 74q-22 -136 -22 -197l256 29q14 1 29 -66.5t17 -124.5t-9 -63q-142 47 -331 86.5t-298 36.5q-18 -1 -27 16z" />
<glyph unicode="&#xb2;" horiz-adv-x="686" d="M37 1186.5q4 60.5 30 120t68.5 105t102.5 73t127 24.5q124 -6 212.5 -82.5t84.5 -183.5q-4 -131 -125.5 -285t-384.5 -372q92 -3 217 45t233 112q14 8 19 -38q9 -75 -2 -171q-2 -16 -3 -16q-50 -17 -121.5 -19.5t-147.5 7t-143 23t-130 30.5q-11 3 -11.5 14t7.5 17 q2 5 10 10q100 84 169.5 168t107.5 164t55.5 149t23.5 146q10 218 -110 223q-71 4 -116 -29t-54.5 -84.5t17.5 -118.5t89 -126q9 -9 -20 -43.5t-67 -61t-50 -18.5q-48 41 -70 99t-18 118.5z" />
<glyph unicode="&#xb3;" horiz-adv-x="768" d="M14 826q1 50 29.5 103.5t83.5 98.5q12 9 50 -7.5t67.5 -40.5t19.5 -34q-68 -63 -94 -123t-11.5 -103.5t56.5 -72t104 -33.5q44 -3 79.5 16.5t57.5 53t34.5 72.5t15.5 80q9 110 -28 173.5t-118 73.5q-12 0 -18 2q-8 2 -13 18t0.5 30.5t22.5 11.5q65 -14 103.5 23t44.5 135 q7 89 -14.5 133t-94.5 47q-48 3 -80.5 -13t-39.5 -40t12 -51t63 -44q13 -5 -8.5 -35.5t-54 -57.5t-47.5 -23q-60 18 -69 86q-10 73 44 140q72 90 205 89h14q126 -5 220.5 -66.5t90.5 -148.5q-3 -71 -64.5 -125.5t-141.5 -87.5q88 -37 151.5 -100.5t58.5 -143.5 q-12 -139 -143 -231.5t-309 -77.5q-60 5 -113 29.5t-90 61t-57 84.5t-19 98z" />
<glyph unicode="&#xb4;" horiz-adv-x="526" d="M63 987q-1 15 3 19q29 35 118.5 144.5t137.5 164.5q5 6 57 -40t100 -94.5t41 -50.5q-34 -11 -139.5 -44.5t-180.5 -60t-124 -50.5q-11 -5 -13 12z" />
<glyph unicode="&#xb6;" horiz-adv-x="1615" d="M29 1024q17 108 86.5 183.5t168 110t217 46t237.5 -3.5t225.5 -44t183.5 -69q49 60 135 75.5t172.5 -3t175.5 -59.5q18 -8 -17 -25q-16 -8 -18 -6q-36 15 -59.5 23t-55 14.5t-53 2.5t-48 -16.5t-45.5 -38.5t-40.5 -67.5t-38 -100.5t-32.5 -139.5t-29 -181.5 q-21 -162 -62.5 -296t-93.5 -223.5t-112.5 -155.5t-120.5 -100t-118 -49.5t-103.5 -11.5t-77.5 21q-152 -103 -307 -31q-118 55 -124 162q-5 95 75 180q90 95 222 111q77 9 154 -13q19 -6 21 -26.5t-12 -24.5q-188 44 -302 -42q-76 -59 -83 -146q-7 -82 53 -130 q14 -10 30 -18q30 -14 63 -14t70.5 15.5t75 56.5t74 102t71 158.5t62.5 220.5q-320 -10 -489.5 146.5t-130.5 406.5zM275.5 880.5q-1.5 -70.5 21.5 -130t65.5 -103t119.5 -67.5t184 -25q48 264 51 629q0 9 26.5 19t64.5 16.5t76 11t64.5 2.5t26.5 -10q-15 -266 -58 -488.5 t-104.5 -375t-128.5 -255t-141 -165.5q10 -3 20 -9q13 -7 29.5 -7.5t38.5 8t45 25.5t49.5 48.5t52.5 74t52.5 104.5t51 137t47.5 174.5t42 214.5q56 351 145 493l-14 8q-77 42 -177.5 67t-205.5 25t-196.5 -24.5t-156.5 -88.5t-79 -159q-10 -79 -11.5 -149.5z" />
<glyph unicode="&#xb7;" horiz-adv-x="335" d="M68.5 652q14.5 38 54.5 63q40 23 81 17.5t60 -36.5q17 -31 2 -69.5t-55 -63.5q-40 -23 -80 -17.5t-59 36.5q-18 32 -3.5 70z" />
<glyph unicode="&#xb8;" horiz-adv-x="335" d="M21.5 -292.5q-1.5 11.5 4.5 22.5t9 10q41 0 80 23.5t43 70.5q5 38 -12 68.5t-50 31.5q-10 0 -4 31q4 22 17 68l30 -4q-6 -33 -16 -70l2 2q73 0 133 -33.5t55 -97.5q-3 -38 -37.5 -67t-81.5 -42.5t-88 -20t-67 -5.5q-16 1 -17.5 12.5z" />
<glyph unicode="&#xb9;" horiz-adv-x="432" d="M10 1305q134 75 172 105q47 36 78 81q0 11 45.5 15.5t61.5 0.5q1 0 6.5 -1t7 -1.5t6.5 -2t7 -3.5t5.5 -4.5t5 -6.5t4 -9t3 -12t0.5 -15q-1 -79 -8.5 -198t-23 -334.5t-26.5 -382.5q-1 -11 -61.5 -19t-119.5 -7.5t-56 11.5q76 287 106 490.5t35 388.5q-26 -31 -67 -96.5 t-68 -100.5q-1 -3 -37 18.5t-64 47.5t-12 35z" />
<glyph unicode="&#xba;" horiz-adv-x="759" d="M49 1071q28 234 183 346q108 77 231 69q99 -7 140 -66q14 -19 18 -42q2 -11 -12 -13q-24 0 -40 13q-14 65 -63 67q-55 2 -113 -73q-81 -106 -102 -285q-53 -425 88 -425q146 0 186 329l4 25q-138 8 -189 88.5t-1 157.5t160 77q41 0 81.5 -15t77.5 -46t59 -86t21 -127 q35 8 107 43q5 2 9.5 -7.5t4.5 -19.5t-6 -14q-70 -34 -117 -45q0 -8 -2 -14q-9 -85 -42 -154.5t-77 -113.5t-99.5 -73.5t-108.5 -42t-105 -12.5q-42 0 -85.5 15.5t-86.5 51.5t-74 87.5t-45 130.5t-2 174zM428 1137q30 -74 143 -82q11 146 -1.5 197t-67.5 51q-38 0 -65 -49 q-32 -60 -9 -117z" />
<glyph unicode="&#xbb;" horiz-adv-x="731" d="M49 439.5q2 26.5 17 35.5q1 2 70.5 35.5t176 87.5t179.5 98q4 2 9 -1.5t6.5 -8.5t-1.5 -8q-191 -144 -320 -268l16 -9q17 -9 45 -24.5t61.5 -34.5t74 -44.5t74.5 -49.5q10 -9 -14 -110q-16 -66 -23 -60q-37 47 -111 113.5t-156.5 134t-93.5 77.5q-12 10 -10 36.5z M287.5 445q-0.5 25 15.5 36q0 1 67 33.5t168.5 88.5t172.5 106q4 4 9.5 0.5t7.5 -9t-1 -8.5q-40 -36 -120.5 -106.5t-118.5 -106t-60 -61.5q2 0 43.5 -17t112.5 -50.5t129 -67.5q12 -7 -7 -110q-13 -68 -20 -62q-33 34 -92.5 82.5t-110 85t-110.5 79.5t-72 52 q-13 10 -13.5 35z" />
<glyph unicode="&#xbc;" horiz-adv-x="1337" d="M-27 1262q271 97 322 221v2q4 15 29.5 23t50 -8.5t24.5 -61.5q-1 -157 -9 -299.5t-38 -606.5q-1 -14 -71 -24t-139 -9.5t-66 13.5q18 63 55.5 191.5t55 191.5t41.5 157.5t37 170t20 149.5q-92 -195 -215 -266q-5 -2 -39 33.5t-57 75t-1 47.5zM309 -2q-2 20 10 53 q151 397 510 1438q6 20 98 20q86 1 95 -15q1 -3 0 -5q-73 -131 -148.5 -286t-129 -273.5t-122.5 -287t-99 -244t-90 -234t-66 -172.5q-6 -17 -27 -20q-27 -4 -31 26zM616 276q159 96 274.5 295t115.5 381q0 12 48.5 17.5t97.5 1t50 -18.5v-8q4 -16 4 -33q-1 -80 -35 -583 q74 19 123 47q19 11 22 -42q2 -58 -7 -88q-1 -3 -2 -3q-67 -21 -144 -29q-3 -41 -7.5 -110.5t-6.5 -104.5q-1 -11 -61.5 -19t-120 -7t-56.5 12q47 171 58 221q-166 -6 -303 33q-21 0 -46 14q-24 13 -4 24zM750 303q111 -11 237 4q42 211 55 395q-157 -287 -292 -399z" />
<glyph unicode="&#xbd;" horiz-adv-x="1413" d="M-27 1262q271 97 322 221v2q4 15 29.5 23t50 -8.5t24.5 -61.5q-1 -157 -9 -299.5t-38 -606.5q-1 -14 -71 -24t-139 -9.5t-66 13.5q18 63 55.5 191.5t55 191.5t41.5 157.5t37 170t20 149.5q-92 -195 -215 -266q-5 -2 -39 33.5t-57 75t-1 47.5zM309 -2q-2 20 10 53 q151 397 510 1438q6 20 98 20q86 1 95 -15q1 -3 0 -5q-73 -131 -148.5 -286t-129 -273.5t-122.5 -287t-99 -244t-90 -234t-66 -172.5q-6 -17 -27 -20q-27 -4 -31 26zM678 13.5q5 17.5 24 25.5q126 69 225 152t154.5 160t84.5 142t32 115q4 65 -0.5 114.5t-20 90.5t-47 63.5 t-79.5 24.5q-89 4 -146.5 -39.5t-71.5 -112t18.5 -155t111.5 -160.5q12 -12 -13.5 -46t-61.5 -58.5t-50 -12.5q-61 51 -91 121.5t-29.5 142t28.5 142.5t76.5 125t121 85.5t156.5 27.5q152 -8 256 -102t98 -230q-3 -73 -58.5 -156.5t-148 -162.5t-201.5 -150.5t-231 -134.5 q122 -10 289 39t293 122q20 12 25 -54q8 -83 -4 -170q-2 -13 -3 -13q-90 -27 -225 -25.5t-266 19.5t-230 45q-21 8 -16 25.5z" />
<glyph unicode="&#xbe;" horiz-adv-x="1554" d="M-80 752q-5 65 35 122t97.5 90.5t121.5 47.5q17 5 28 -15t8 -43t-20 -26q-51 -10 -76.5 -48.5t-23.5 -95.5q3 -84 45 -139t121 -61q85 -7 145 30.5t86.5 97t26.5 132.5q0 115 -45.5 177t-155.5 54q-9 3 -14.5 19.5t1.5 30t28 8.5q36 -8 65 2t47 31t30 50.5t17 58.5t5 58 q0 82 -35.5 133.5t-112.5 55.5q-30 2 -58.5 -10.5t-44 -35t-18.5 -48t18.5 -52t65.5 -43.5q21 -7 -22 -53q-47 -49 -86 -61q-10 -4 -17 -2q-66 21 -81 89q-18 76 36 148q74 97 227 106q14 1 29 1q155 0 255 -54.5t100 -154.5q0 -70 -71.5 -138.5t-162.5 -111.5 q50 -13 91.5 -31.5t80 -47t60.5 -70.5t22 -93q0 -102 -72 -178.5t-197 -112.5t-278 -24q-106 8 -200.5 66t-100.5 141zM547 -2q-2 20 10 53q151 397 510 1438q6 20 98 20q86 1 95 -15q1 -3 0 -5q-73 -131 -149 -287t-128.5 -271.5t-123.5 -289t-98.5 -242.5t-91 -235.5 t-65.5 -171.5q-6 -17 -27 -20q-27 -4 -30 26zM821 276q159 96 274 295t115 381q0 12 49 17.5t98 1t50 -18.5v-8q4 -16 4 -33q-1 -80 -35 -583q74 19 123 47q19 11 21 -42q2 -58 -7 -88q-1 -3 -2 -3q-67 -21 -143 -29q-3 -41 -7.5 -110.5t-6.5 -104.5q-1 -11 -61.5 -19 t-120 -7t-56.5 12q47 171 58 221q-166 -6 -304 33q-21 0 -46 15q-22 12 -3 23zM954 303q112 -11 238 4q42 211 55 395q-156 -286 -293 -399z" />
<glyph unicode="&#xbf;" horiz-adv-x="813" d="M-199 25q16 71 71 144t124.5 138t139 133t124.5 152t70 170q4 27 34 39q30 13 41 -11q5 -11 3 -28q-9 -76 -42.5 -153.5t-77 -144.5t-87.5 -132.5t-80 -140.5t-47 -146q-13 -109 -8.5 -195.5t42.5 -139.5t107 -52q84 1 134 32.5t64 81t5 112t-34.5 123t-61.5 118.5 q-9 14 32 56t90 73t60 16q35 -48 51.5 -116.5t14.5 -142.5t-28.5 -147.5t-72.5 -132t-123.5 -96t-175.5 -38.5q-90 -2 -167.5 34t-127 96t-70.5 139t-4 159zM283 1036q-2 29 23.5 59t74.5 35q52 3 83 -19.5t34 -53.5q2 -30 -24 -58.5t-75 -31.5q-51 -6 -82 16t-34 53z" />
<glyph unicode="&#xc0;" horiz-adv-x="1427" d="M65 127q-44 118 4 242q50 133 182 194q115 54 269 37q19 -1 24.5 -21t-7.5 -26q-117 6 -226 -112q-92 -100 -124 -226q-33 -129 26 -188q16 -16 39 -25q87 -35 165.5 18t184.5 193q-99 6 -207 37q-14 3 -15 19.5t8 31t20 12.5q119 -29 245 -18q131 196 219 483.5 t127 607.5q2 22 115.5 34.5t225.5 10.5t110 -14q-275 -1295 -123 -1399q64 -38 134 5.5t102 140.5q10 34 35 41q21 7 24 -15q2 -9 -2 -22q-22 -73 -67.5 -125t-98.5 -74t-108.5 -19.5t-100.5 30.5q-105 65 -133 251q-141 -34 -340 -28q-125 -156 -274.5 -221t-278.5 -15 q-111 43 -154 160zM836 311q68 9 145.5 28.5t114.5 37.5q2 59 8.5 175t17.5 287.5t17 268.5q-37 -131 -51.5 -179.5t-50.5 -162.5t-61 -176t-63 -142t-77 -137zM1096 1731q-11 5 67 134q64 105 70 97q18 -31 73 -127.5t96.5 -164t74.5 -109.5q10 -12 -15 -17q-8 -1 -12 0 q-52 28 -172 90.5t-182 96.5z" />
<glyph unicode="&#xc1;" horiz-adv-x="1427" d="M65 127q-44 118 4 242q50 133 182 194q115 54 269 37q19 -1 24.5 -21t-7.5 -26q-117 6 -226 -112q-92 -100 -124 -226q-33 -129 26 -188q16 -16 39 -25q87 -35 165.5 18t184.5 193q-99 6 -207 37q-14 3 -15 19.5t8 31t20 12.5q119 -29 245 -18q131 196 219 483.5 t127 607.5q2 22 115.5 34.5t225.5 10.5t110 -14q-275 -1295 -123 -1399q64 -38 134 5.5t102 140.5q10 34 35 41q21 7 24 -15q2 -9 -2 -22q-22 -73 -67.5 -125t-98.5 -74t-108.5 -19.5t-100.5 30.5q-105 65 -133 251q-141 -34 -340 -28q-125 -156 -274.5 -221t-278.5 -15 q-111 43 -154 160zM836 311q68 9 145.5 28.5t114.5 37.5q2 59 8.5 175t17.5 287.5t17 268.5q-37 -131 -51.5 -179.5t-50.5 -162.5t-61 -176t-63 -142t-77 -137zM1040 1499q-2 15 2 19q29 35 118.5 144.5t137.5 164.5q5 6 57.5 -40t100.5 -94.5t41 -50.5 q-34 -11 -139.5 -44.5t-180.5 -60t-124 -50.5q-11 -5 -13 12z" />
<glyph unicode="&#xc2;" horiz-adv-x="1427" d="M65 127q-44 118 4 242q50 133 182 194q115 54 269 37q19 -1 24.5 -21t-7.5 -26q-117 6 -226 -112q-92 -100 -124 -226q-33 -129 26 -188q16 -16 39 -25q87 -35 165.5 18t184.5 193q-99 6 -207 37q-14 3 -15 19.5t8 31t20 12.5q119 -29 245 -18q131 196 219 483.5 t127 607.5q2 22 115.5 34.5t225.5 10.5t110 -14q-275 -1295 -123 -1399q64 -38 134 5.5t102 140.5q10 34 35 41q21 7 24 -15q2 -9 -2 -22q-22 -73 -67.5 -125t-98.5 -74t-108.5 -19.5t-100.5 30.5q-105 65 -133 251q-141 -34 -340 -28q-125 -156 -274.5 -221t-278.5 -15 q-111 43 -154 160zM836 311q68 9 145.5 28.5t114.5 37.5q2 59 8.5 175t17.5 287.5t17 268.5q-37 -131 -51.5 -179.5t-50.5 -162.5t-61 -176t-63 -142t-77 -137zM913 1505q88 78 202.5 188t148.5 152q13 16 35.5 15t35.5 -19q1 0 217 -358q4 -7 -3 -14.5t-13 -2.5 q-162 159 -264 250q-1 0 -24.5 -41.5t-65 -112.5t-76.5 -126q-7 -12 -122 33q-78 31 -71 36z" />
<glyph unicode="&#xc3;" horiz-adv-x="1427" d="M65 127q-44 118 4 242q50 133 182 194q115 54 269 37q19 -1 24.5 -21t-7.5 -26q-117 6 -226 -112q-92 -100 -124 -226q-33 -129 26 -188q16 -16 39 -25q87 -35 165.5 18t184.5 193q-99 6 -207 37q-14 3 -15 19.5t8 31t20 12.5q119 -29 245 -18q131 196 219 483.5 t127 607.5q2 22 115.5 34.5t225.5 10.5t110 -14q-275 -1295 -123 -1399q64 -38 134 5.5t102 140.5q10 34 35 41q21 7 24 -15q2 -9 -2 -22q-22 -73 -67.5 -125t-98.5 -74t-108.5 -19.5t-100.5 30.5q-105 65 -133 251q-141 -34 -340 -28q-125 -156 -274.5 -221t-278.5 -15 q-111 43 -154 160zM836 311q68 9 145.5 28.5t114.5 37.5q2 59 8.5 175t17.5 287.5t17 268.5q-37 -131 -51.5 -179.5t-50.5 -162.5t-61 -176t-63 -142t-77 -137zM1006 1614q-5 15 1 24.5t14.5 12t10.5 0.5q32 -25 55 -27t41.5 14.5t36.5 37.5t48.5 42t68.5 27 q77 11 134 -38.5t91 -123.5q3 -6 -6 -10.5t-12 0.5q-30 32 -46.5 41.5t-31 1.5t-27 -22.5t-44 -33.5t-72.5 -28q-85 -17 -166 8t-96 74z" />
<glyph unicode="&#xc4;" horiz-adv-x="1427" d="M65 127q-44 118 4 242q50 133 182 194q115 54 269 37q19 -1 24.5 -21t-7.5 -26q-117 6 -226 -112q-92 -100 -124 -226q-33 -129 26 -188q16 -16 39 -25q87 -35 165.5 18t184.5 193q-99 6 -207 37q-14 3 -15 19.5t8 31t20 12.5q119 -29 245 -18q131 196 219 483.5 t127 607.5q2 22 115.5 34.5t225.5 10.5t110 -14q-275 -1295 -123 -1399q64 -38 134 5.5t102 140.5q10 34 35 41q21 7 24 -15q2 -9 -2 -22q-22 -73 -67.5 -125t-98.5 -74t-108.5 -19.5t-100.5 30.5q-105 65 -133 251q-141 -34 -340 -28q-125 -156 -274.5 -221t-278.5 -15 q-111 43 -154 160zM836 311q68 9 145.5 28.5t114.5 37.5q2 59 8.5 175t17.5 287.5t17 268.5q-37 -131 -51.5 -179.5t-50.5 -162.5t-61 -176t-63 -142t-77 -137zM944 1561q-11 41 24 85t103 60q72 15 123.5 -5t58.5 -67q7 -39 -29 -84.5t-98 -58.5q-71 -13 -119 9.5t-63 60.5 zM1278 1561q-11 41 24 85t103 60q72 15 123.5 -5t58.5 -67q7 -39 -29 -84.5t-98 -58.5q-71 -13 -119 9.5t-63 60.5z" />
<glyph unicode="&#xc5;" horiz-adv-x="1427" d="M65 127q-44 118 4 242q50 133 182 194q115 54 269 37q19 -1 24.5 -21t-7.5 -26q-117 6 -226 -112q-92 -100 -124 -226q-33 -129 26 -188q16 -16 39 -25q87 -35 165.5 18t184.5 193q-99 6 -207 37q-14 3 -15 19.5t8 31t20 12.5q119 -29 245 -18q131 196 219 483.5 t127 607.5q2 22 115.5 34.5t225.5 10.5t110 -14q-275 -1295 -123 -1399q64 -38 134 5.5t102 140.5q10 34 35 41q21 7 24 -15q2 -9 -2 -22q-22 -73 -67.5 -125t-98.5 -74t-108.5 -19.5t-100.5 30.5q-105 65 -133 251q-141 -34 -340 -28q-125 -156 -274.5 -221t-278.5 -15 q-111 43 -154 160zM836 311q68 9 145.5 28.5t114.5 37.5q2 59 8.5 175t17.5 287.5t17 268.5q-37 -131 -51.5 -179.5t-50.5 -162.5t-61 -176t-63 -142t-77 -137zM1079 1597q-23 58 12 112t115 85q99 35 165.5 20t86.5 -67q19 -51 -22 -113t-117 -86q-83 -27 -151.5 -13.5 t-88.5 62.5zM1198 1683q-11 -41 2 -75q14 -34 44 -39.5t59 20.5q29 25 39.5 66.5t-3.5 75.5q-12 34 -42.5 39.5t-59.5 -19.5q-28 -27 -39 -68z" />
<glyph unicode="&#xc6;" horiz-adv-x="2193" d="M65 127q-44 118 4 242q50 133 182 194q115 54 269 37q19 -1 24.5 -21t-7.5 -26q-117 6 -226 -112q-92 -100 -124 -226q-33 -129 26 -188q16 -16 39 -25q87 -35 165.5 18t184.5 193q-99 6 -207 37q-14 3 -15 19.5t8 31t20 12.5q119 -29 245 -18q131 196 219 483.5 t127 607.5q2 22 115.5 34.5t225.5 10.5t110 -14l-16 -69q113 69 259 92t263 -0.5t164 -79.5q62 -77 24.5 -168.5t-154.5 -145.5q-185 -83 -454 -18q-30 7 -61 16q-63 -206 36 -327q123 39 242 31q67 -3 85 -51q17 -45 -21 -88q-52 -58 -160 -52q-89 4 -182 55 q-90 -86 -121 -245q-28 -133 12 -228.5t134 -140t226 -35.5q135 7 218.5 96.5t85.5 221.5q1 128 -67.5 179t-164 -3t-162.5 -199q-5 -13 -17 -6q-14 8 -5 29q64 155 213 224q127 60 253 31q114 -25 155 -109q18 -37 18 -81q1 -117 -83.5 -220.5t-216 -165.5t-272.5 -71 q-124 -7 -247.5 29t-218.5 115.5t-119 185.5q-106 -23 -324 -16q-125 -156 -274.5 -221t-278.5 -15q-111 43 -154 160zM803 297q193 24 295 68v2q3 23 12 47q-3 15 -1 86t2 94.5t4.5 102t6 110t7.5 117t8 123.5q-127 -445 -334 -750zM1497 1110q239 -102 377 -31 q80 42 96 125q14 77 -33 129q-17 19 -52.5 30.5t-86.5 8t-103 -26t-106 -83t-92 -152.5zM1563 670q57 -40 139 -47q52 -2 70 15t-2.5 36t-63.5 22q-80 4 -143 -26z" />
<glyph unicode="&#xc7;" horiz-adv-x="1038" d="M47 1184q-12 7 1.5 33t36.5 46.5t34 12.5q72 -54 157 -102q81 107 200.5 176t232.5 89t209.5 11t146.5 -45q68 -50 51 -136q-17 -91 -114 -160q-146 -104 -375 -87q-88 7 -183 33q-64 -129 -106 -340q-60 -331 18.5 -542t261.5 -216q112 -1 193.5 100.5t81.5 223.5 q1 84 -22.5 144.5t-77 101.5t-141 46.5t-214.5 -20.5q-13 -3 -16 10q-4 17 20 23q122 35 240 28.5t210.5 -39t149 -94t56.5 -137.5q1 -88 -45 -172.5t-120 -146t-172.5 -98t-199.5 -33.5q-100 3 -197.5 59t-174 160.5t-108 254.5t0.5 341q45 231 143 393q-93 38 -178 82z M408.5 -401.5q-1.5 11.5 4.5 22.5t9 10q40 0 79.5 24t43.5 71q5 38 -12 68.5t-50 31.5q-10 0 -5 27q4 22 18 71l30 -4q-6 -33 -16 -70l2 3q73 0 133 -34t55 -98q-3 -38 -37.5 -67t-81.5 -42.5t-88 -20t-67 -5.5q-16 1 -17.5 12.5zM477 1118q237 -93 371 -8q77 49 91 136 q13 74 -29 116q-5 6 -11 10q-39 28 -85.5 31t-100.5 -21.5t-115.5 -91.5t-120.5 -172z" />
<glyph unicode="&#xc8;" horiz-adv-x="1159" d="M135 1165q-13 7 5 42.5t46 66t39 22.5q106 -80 146 -104q64 107 190.5 173t254.5 80t241 -8.5t157 -76.5q62 -77 24.5 -168.5t-154.5 -145.5q-185 -83 -454 -18q-30 7 -61 16q-63 -205 37 -327q123 39 242 31q67 -3 85 -51q17 -45 -21 -88q-52 -58 -160 -52 q-90 4 -183 55q-89 -85 -120 -245q-28 -133 12 -228.5t134 -140t226 -35.5q135 7 218 96.5t85 221.5q1 128 -67 179t-163.5 -3t-162.5 -199q-5 -13 -17 -6q-14 8 -5 29q64 155 213 224q127 60 253 31q114 -25 155 -109q18 -37 18 -81q1 -117 -83.5 -220.5t-216 -165.5 t-272.5 -71q-88 -5 -180 12.5t-173 58t-140.5 97.5t-85 138t-4.5 172q43 200 217 301q-170 151 -97 391q2 8 7.5 18.5t7.5 14.5q-15 6 -87 30t-106 43zM592 1110q239 -102 377 -31q80 42 96 125q14 77 -33 129q-17 19 -52.5 30.5t-86.5 8t-103 -26t-106 -83t-92 -152.5z M602 1669q-11 5 68 135q63 105 69 97q19 -32 73.5 -128t96 -164t74.5 -110q10 -12 -15 -16q-8 -1 -12 0q-56 30 -174.5 91.5t-179.5 94.5zM657 670q57 -40 140 -47q52 -2 70 15t-2.5 36t-63.5 22q-81 4 -144 -26z" />
<glyph unicode="&#xc9;" horiz-adv-x="1159" d="M135 1165q-13 7 5 42.5t46 66t39 22.5q106 -80 146 -104q64 107 190.5 173t254.5 80t241 -8.5t157 -76.5q62 -77 24.5 -168.5t-154.5 -145.5q-185 -83 -454 -18q-30 7 -61 16q-63 -205 37 -327q123 39 242 31q67 -3 85 -51q17 -45 -21 -88q-52 -58 -160 -52 q-90 4 -183 55q-89 -85 -120 -245q-28 -133 12 -228.5t134 -140t226 -35.5q135 7 218 96.5t85 221.5q1 128 -67 179t-163.5 -3t-162.5 -199q-5 -13 -17 -6q-14 8 -5 29q64 155 213 224q127 60 253 31q114 -25 155 -109q18 -37 18 -81q1 -117 -83.5 -220.5t-216 -165.5 t-272.5 -71q-88 -5 -180 12.5t-173 58t-140.5 97.5t-85 138t-4.5 172q43 200 217 301q-170 151 -97 391q2 8 7.5 18.5t7.5 14.5q-15 6 -87 30t-106 43zM513 1480q-1 15 3 19q29 35 118.5 144.5t137.5 164.5q5 6 57.5 -39.5t100.5 -94t41 -50.5q-32 -11 -139.5 -45 t-182 -60.5t-123.5 -50.5q-11 -5 -13 12zM592 1110q239 -102 377 -31q80 42 96 125q14 77 -33 129q-17 19 -52.5 30.5t-86.5 8t-103 -26t-106 -83t-92 -152.5zM657 670q57 -40 140 -47q52 -2 70 15t-2.5 36t-63.5 22q-81 4 -144 -26z" />
<glyph unicode="&#xca;" horiz-adv-x="1159" d="M135 1165q-13 7 5 42.5t46 66t39 22.5q106 -80 146 -104q64 107 190.5 173t254.5 80t241 -8.5t157 -76.5q62 -77 24.5 -168.5t-154.5 -145.5q-185 -83 -454 -18q-30 7 -61 16q-63 -205 37 -327q123 39 242 31q67 -3 85 -51q17 -45 -21 -88q-52 -58 -160 -52 q-90 4 -183 55q-89 -85 -120 -245q-28 -133 12 -228.5t134 -140t226 -35.5q135 7 218 96.5t85 221.5q1 128 -67 179t-163.5 -3t-162.5 -199q-5 -13 -17 -6q-14 8 -5 29q64 155 213 224q127 60 253 31q114 -25 155 -109q18 -37 18 -81q1 -117 -83.5 -220.5t-216 -165.5 t-272.5 -71q-88 -5 -180 12.5t-173 58t-140.5 97.5t-85 138t-4.5 172q43 200 217 301q-170 151 -97 391q2 8 7.5 18.5t7.5 14.5q-15 6 -87 30t-106 43zM442 1483q88 78 202.5 188t148.5 152q13 16 35.5 15t35.5 -19q3 -2 33.5 -52.5t89 -148.5t94.5 -158q4 -7 -3 -14t-13 -2 q-162 159 -264 250q-1 0 -24.5 -41.5t-65 -113t-76.5 -126.5q-7 -12 -122 34q-78 31 -71 36zM592 1110q239 -102 377 -31q80 42 96 125q14 77 -33 129q-17 19 -52.5 30.5t-86.5 8t-103 -26t-106 -83t-92 -152.5zM657 670q57 -40 140 -47q52 -2 70 15t-2.5 36t-63.5 22 q-81 4 -144 -26z" />
<glyph unicode="&#xcb;" horiz-adv-x="1159" d="M135 1165q-13 7 5 42.5t46 66t39 22.5q106 -80 146 -104q64 107 190.5 173t254.5 80t241 -8.5t157 -76.5q62 -77 24.5 -168.5t-154.5 -145.5q-185 -83 -454 -18q-30 7 -61 16q-63 -205 37 -327q123 39 242 31q67 -3 85 -51q17 -45 -21 -88q-52 -58 -160 -52 q-90 4 -183 55q-89 -85 -120 -245q-28 -133 12 -228.5t134 -140t226 -35.5q135 7 218 96.5t85 221.5q1 128 -67 179t-163.5 -3t-162.5 -199q-5 -13 -17 -6q-14 8 -5 29q64 155 213 224q127 60 253 31q114 -25 155 -109q18 -37 18 -81q1 -117 -83.5 -220.5t-216 -165.5 t-272.5 -71q-88 -5 -180 12.5t-173 58t-140.5 97.5t-85 138t-4.5 172q43 200 217 301q-170 151 -97 391q2 8 7.5 18.5t7.5 14.5q-15 6 -87 30t-106 43zM455 1573q-11 41 24 85t103 60q72 15 123.5 -4.5t58.5 -66.5q7 -39 -29 -85t-98 -59q-71 -13 -119 9.5t-63 60.5z M592 1110q239 -102 377 -31q80 42 96 125q14 77 -33 129q-17 19 -52.5 30.5t-86.5 8t-103 -26t-106 -83t-92 -152.5zM657 670q57 -40 140 -47q52 -2 70 15t-2.5 36t-63.5 22q-81 4 -144 -26zM788 1573q-11 41 24 85t103 60q73 15 124.5 -4.5t58.5 -66.5q7 -39 -29 -85 t-98 -59q-71 -13 -119.5 9.5t-63.5 60.5z" />
<glyph unicode="&#xcc;" horiz-adv-x="864" d="M15.5 274q5.5 92 56 174t173.5 126.5t287 27.5q19 -1 24.5 -21t-7.5 -26q-74 3 -146 -45t-117 -122.5t-69 -153t-7.5 -144.5t73.5 -88q56 -22 118.5 15t125.5 141t115 259.5t86.5 394t39.5 521.5q-86 -13 -152 -45t-103.5 -75.5t-55.5 -96t-13.5 -106t29 -106t66.5 -95.5 q3 -14 -53.5 -34.5t-73.5 -10.5q-126 81 -152 205q-28 132 69 245q131 152 430 197q91 14 193 16q35 3 35 -10q-13 -193 -33.5 -363t-48.5 -309.5t-63 -255.5t-75 -205t-86.5 -155.5t-96.5 -107.5t-104.5 -61t-112 -18t-117.5 25q-113 44 -176.5 129.5t-58 177.5zM557 1739 q-11 5 67 134q64 105 70 97q18 -31 73 -127.5t96.5 -164t74.5 -109.5q10 -12 -15 -17q-8 -1 -12 0q-52 28 -172 90.5t-182 96.5z" />
<glyph unicode="&#xcd;" horiz-adv-x="864" d="M15.5 274q5.5 92 56 174t173.5 126.5t287 27.5q19 -1 24.5 -21t-7.5 -26q-74 3 -146 -45t-117 -122.5t-69 -153t-7.5 -144.5t73.5 -88q56 -22 118.5 15t125.5 141t115 259.5t86.5 394t39.5 521.5q-86 -13 -152 -45t-103.5 -75.5t-55.5 -96t-13.5 -106t29 -106t66.5 -95.5 q3 -14 -53.5 -34.5t-73.5 -10.5q-126 81 -152 205q-28 132 69 245q131 152 430 197q91 14 193 16q35 3 35 -10q-13 -193 -33.5 -363t-48.5 -309.5t-63 -255.5t-75 -205t-86.5 -155.5t-96.5 -107.5t-104.5 -61t-112 -18t-117.5 25q-113 44 -176.5 129.5t-58 177.5zM546 1472 q-1 15 3 19q29 35 118.5 144.5t137.5 164.5q5 6 57.5 -39.5t100.5 -94t41 -50.5q-32 -11 -139.5 -45t-182 -60.5t-123.5 -50.5q-11 -5 -13 12z" />
<glyph unicode="&#xce;" horiz-adv-x="864" d="M15.5 274q5.5 92 56 174t173.5 126.5t287 27.5q19 -1 24.5 -21t-7.5 -26q-74 3 -146 -45t-117 -122.5t-69 -153t-7.5 -144.5t73.5 -88q56 -22 118.5 15t125.5 141t115 259.5t86.5 394t39.5 521.5q-86 -13 -152 -45t-103.5 -75.5t-55.5 -96t-13.5 -106t29 -106t66.5 -95.5 q3 -14 -53.5 -34.5t-73.5 -10.5q-126 81 -152 205q-28 132 69 245q131 152 430 197q91 14 193 16q35 3 35 -10q-13 -193 -33.5 -363t-48.5 -309.5t-63 -255.5t-75 -205t-86.5 -155.5t-96.5 -107.5t-104.5 -61t-112 -18t-117.5 25q-113 44 -176.5 129.5t-58 177.5zM403 1565 q88 78 202.5 188t148.5 152q13 16 35.5 15t35.5 -19q3 -2 33.5 -52.5t89 -148.5t94.5 -158q4 -7 -3 -14t-13 -2q-162 159 -264 250q-1 0 -24.5 -41.5t-65 -113t-76.5 -126.5q-7 -12 -122 34q-78 31 -71 36z" />
<glyph unicode="&#xcf;" horiz-adv-x="864" d="M15.5 274q5.5 92 56 174t173.5 126.5t287 27.5q19 -1 24.5 -21t-7.5 -26q-74 3 -146 -45t-117 -122.5t-69 -153t-7.5 -144.5t73.5 -88q56 -22 118.5 15t125.5 141t115 259.5t86.5 394t39.5 521.5q-86 -13 -152 -45t-103.5 -75.5t-55.5 -96t-13.5 -106t29 -106t66.5 -95.5 q3 -14 -53.5 -34.5t-73.5 -10.5q-126 81 -152 205q-28 132 69 245q131 152 430 197q91 14 193 16q35 3 35 -10q-13 -193 -33.5 -363t-48.5 -309.5t-63 -255.5t-75 -205t-86.5 -155.5t-96.5 -107.5t-104.5 -61t-112 -18t-117.5 25q-113 44 -176.5 129.5t-58 177.5zM430 1622 q-11 41 24 85t103 60q72 15 123.5 -4.5t58.5 -66.5q7 -39 -29 -85t-98 -59q-71 -13 -119 9.5t-63 60.5zM764 1622q-11 41 24 85t103 60q72 15 123.5 -4.5t58.5 -66.5q7 -39 -29 -85t-98 -59q-71 -13 -119 9.5t-63 60.5z" />
<glyph unicode="&#xd0;" horiz-adv-x="1228" d="M-7 939q45 173 267 335q75 54 166 104q90 48 190.5 63t198.5 -2t185.5 -74t151 -145t95 -225.5t17.5 -304.5q-11 -141 -55 -264t-106.5 -209.5t-140.5 -148t-157.5 -86.5t-157 -16t-139.5 54q-129 93 -137 420q-165 7 -256 4q-19 -1 -28 17q-12 24 26 38q17 7 43 9 q20 2 92.5 7t120.5 9q3 287 75 733q2 14 75.5 18.5t144.5 -2t67 -20.5q-122 -404 -174 -712q106 9 150 14q20 1 38 -77q16 -77 4 -93q-3 -3 -6 -2q-88 28 -204 43q-22 -171 -17.5 -264t29.5 -111q43 -31 87.5 -38.5t86 8.5t80 52t72 94t60.5 131.5t45.5 167.5t27.5 200 q15 183 -11 321.5t-83 218t-137.5 115t-175.5 23t-197 -67.5q-78 -42 -139 -118.5t-87.5 -160.5t-26.5 -162t44 -131.5t125 -60.5q29 -1 32 -19q3 -16 -21 -22q-10 -2 -24 -2q-175 5 -265 104q-86 96 -51 235z" />
<glyph unicode="&#xd1;" horiz-adv-x="1501" d="M44 262.5q15 90.5 68.5 172.5t163.5 129.5t246 35.5q19 -1 24.5 -21t-7.5 -26q-119 5 -228 -114q-92 -102 -124 -228q-32 -130 29 -188q15 -15 36 -23q92 -35 186.5 26.5t174.5 195t150 318t120.5 399t77.5 433.5q3 23 90.5 36t173.5 11t84 -16q-44 -227 -59.5 -426 t-8.5 -355t31 -341q40 196 87.5 367.5t99 308.5t108.5 252t115 199.5t120 148t122.5 102t122.5 57.5t121.5 18t117.5 -20q32 -23 4 -84.5t-85 -125t-79 -54.5q-41 15 -83 16t-86 -11.5t-88 -42.5t-88 -74.5t-86 -111t-82 -149t-77 -191t-69.5 -234.5t-61 -282t-49.5 -331 q-5 -21 -59.5 -30t-106.5 -6.5t-53 9.5q-6 49 -14.5 123.5t-13.5 116.5t-12 105.5t-10.5 107.5t-8 105t-6.5 115.5t-3.5 122t-1.5 140.5t2 156q-50 -217 -116 -405.5t-148 -344t-175 -255t-197 -138.5t-214 4q-97 41 -143.5 124t-31.5 173.5zM1104 1573q-5 15 1 24.5 t14.5 12t10.5 0.5q32 -25 55 -27t41.5 14.5t36.5 37.5t48.5 42t68.5 27q77 11 135 -38.5t91 -123.5q3 -6 -6.5 -10.5t-12.5 0.5q-30 32 -46.5 41.5t-31 1.5t-27 -22.5t-44 -33.5t-72.5 -28q-85 -17 -166 8t-96 74z" />
<glyph unicode="&#xd2;" horiz-adv-x="1380" d="M52.5 381.5q-21.5 145.5 10.5 327.5q28 156 96.5 286.5t157.5 216.5t193.5 145.5t206 82.5t193 18t157.5 -39q44 -23 -33 -43q-67 -18 -115 -16q-8 1 -10 2q-42 39 -91 46.5t-99 -15t-100.5 -67.5t-96.5 -111.5t-85.5 -145t-70 -170.5t-47.5 -186q-31 -156 -28 -291 t34 -236t102 -163t175 -72q122 -11 235 76t193 245.5t115 358.5q7 42 14 98q-90 -32 -192 -22.5t-189 63.5q-61 39 -98 93.5t-47 111t5 114t52.5 104t101.5 79.5t146 41q116 13 218.5 -33t173 -151.5t81.5 -251.5q143 146 29 446q-4 11 12 15q24 6 33 -17q64 -151 45.5 -280 t-115.5 -216q0 -93 -14 -188q-22 -145 -85.5 -271t-152.5 -215t-194.5 -151.5t-216 -88.5t-213.5 -17q-128 12 -230 72.5t-168.5 165t-88 250zM676 1700q-11 5 67 134q64 105 70 97q18 -31 73 -127.5t96.5 -164t74.5 -109.5q10 -12 -15 -17q-8 -1 -12 0q-52 28 -172 90.5 t-182 96.5zM691 1023q0 -55 31.5 -109.5t88.5 -92.5q81 -51 175 -62.5t177 15.5q5 93 1.5 171t-22 139t-50 101t-82.5 58t-119 10q-64 -7 -111.5 -41.5t-68 -84t-20.5 -104.5z" />
<glyph unicode="&#xd3;" horiz-adv-x="1380" d="M52.5 381.5q-21.5 145.5 10.5 327.5q28 156 96.5 286.5t157.5 216.5t193.5 145.5t206 82.5t193 18t157.5 -39q44 -23 -33 -43q-67 -18 -115 -16q-8 1 -10 2q-42 39 -91 46.5t-99 -15t-100.5 -67.5t-96.5 -111.5t-85.5 -145t-70 -170.5t-47.5 -186q-31 -156 -28 -291 t34 -236t102 -163t175 -72q122 -11 235 76t193 245.5t115 358.5q7 42 14 98q-90 -32 -192 -22.5t-189 63.5q-61 39 -98 93.5t-47 111t5 114t52.5 104t101.5 79.5t146 41q116 13 218.5 -33t173 -151.5t81.5 -251.5q143 146 29 446q-4 11 12 15q24 6 33 -17q64 -151 45.5 -280 t-115.5 -216q0 -93 -14 -188q-22 -145 -85.5 -271t-152.5 -215t-194.5 -151.5t-216 -88.5t-213.5 -17q-128 12 -230 72.5t-168.5 165t-88 250zM599 1472q-1 15 3 19q29 35 118.5 144.5t137.5 164.5q5 6 57.5 -39.5t100.5 -94t41 -50.5q-32 -11 -139.5 -45t-182 -60.5 t-123.5 -50.5q-11 -5 -13 12zM691 1023q0 -55 31.5 -109.5t88.5 -92.5q81 -51 175 -62.5t177 15.5q5 93 1.5 171t-22 139t-50 101t-82.5 58t-119 10q-64 -7 -111.5 -41.5t-68 -84t-20.5 -104.5z" />
<glyph unicode="&#xd4;" horiz-adv-x="1380" d="M52.5 381.5q-21.5 145.5 10.5 327.5q28 156 96.5 286.5t157.5 216.5t193.5 145.5t206 82.5t193 18t157.5 -39q44 -23 -33 -43q-67 -18 -115 -16q-8 1 -10 2q-42 39 -91 46.5t-99 -15t-100.5 -67.5t-96.5 -111.5t-85.5 -145t-70 -170.5t-47.5 -186q-31 -156 -28 -291 t34 -236t102 -163t175 -72q122 -11 235 76t193 245.5t115 358.5q7 42 14 98q-90 -32 -192 -22.5t-189 63.5q-61 39 -98 93.5t-47 111t5 114t52.5 104t101.5 79.5t146 41q116 13 218.5 -33t173 -151.5t81.5 -251.5q143 146 29 446q-4 11 12 15q24 6 33 -17q64 -151 45.5 -280 t-115.5 -216q0 -93 -14 -188q-22 -145 -85.5 -271t-152.5 -215t-194.5 -151.5t-216 -88.5t-213.5 -17q-128 12 -230 72.5t-168.5 165t-88 250zM496 1522q87 77 201.5 187t148.5 153q13 16 36 15t36 -19q3 -2 33.5 -52.5t89 -148.5t94.5 -158q4 -7 -3.5 -14t-13.5 -2 q-162 159 -264 250q-1 0 -24.5 -41.5t-65 -113t-76.5 -126.5q-7 -12 -122 34q-77 31 -70 36zM691 1023q0 -55 31.5 -109.5t88.5 -92.5q81 -51 175 -62.5t177 15.5q5 93 1.5 171t-22 139t-50 101t-82.5 58t-119 10q-64 -7 -111.5 -41.5t-68 -84t-20.5 -104.5z" />
<glyph unicode="&#xd5;" horiz-adv-x="1380" d="M52.5 381.5q-21.5 145.5 10.5 327.5q28 156 96.5 286.5t157.5 216.5t193.5 145.5t206 82.5t193 18t157.5 -39q44 -23 -33 -43q-67 -18 -115 -16q-8 1 -10 2q-42 39 -91 46.5t-99 -15t-100.5 -67.5t-96.5 -111.5t-85.5 -145t-70 -170.5t-47.5 -186q-31 -156 -28 -291 t34 -236t102 -163t175 -72q122 -11 235 76t193 245.5t115 358.5q7 42 14 98q-90 -32 -192 -22.5t-189 63.5q-61 39 -98 93.5t-47 111t5 114t52.5 104t101.5 79.5t146 41q116 13 218.5 -33t173 -151.5t81.5 -251.5q143 146 29 446q-4 11 12 15q24 6 33 -17q64 -151 45.5 -280 t-115.5 -216q0 -93 -14 -188q-22 -145 -85.5 -271t-152.5 -215t-194.5 -151.5t-216 -88.5t-213.5 -17q-128 12 -230 72.5t-168.5 165t-88 250zM608 1626q-5 15 1.5 24.5t15 12t10.5 0.5q32 -25 55 -27t41.5 14.5t36.5 37.5t48.5 42t68.5 27q77 11 134 -38.5t91 -123.5 q3 -6 -6 -10.5t-12 0.5q-30 32 -47 41.5t-31 1.5t-27 -22.5t-44.5 -33.5t-72.5 -28q-85 -17 -166 8t-96 74zM691 1023q0 -55 31.5 -109.5t88.5 -92.5q81 -51 175 -62.5t177 15.5q5 93 1.5 171t-22 139t-50 101t-82.5 58t-119 10q-64 -7 -111.5 -41.5t-68 -84t-20.5 -104.5z " />
<glyph unicode="&#xd6;" horiz-adv-x="1380" d="M52.5 381.5q-21.5 145.5 10.5 327.5q28 156 96.5 286.5t157.5 216.5t193.5 145.5t206 82.5t193 18t157.5 -39q44 -23 -33 -43q-67 -18 -115 -16q-8 1 -10 2q-42 39 -91 46.5t-99 -15t-100.5 -67.5t-96.5 -111.5t-85.5 -145t-70 -170.5t-47.5 -186q-31 -156 -28 -291 t34 -236t102 -163t175 -72q122 -11 235 76t193 245.5t115 358.5q7 42 14 98q-90 -32 -192 -22.5t-189 63.5q-61 39 -98 93.5t-47 111t5 114t52.5 104t101.5 79.5t146 41q116 13 218.5 -33t173 -151.5t81.5 -251.5q143 146 29 446q-4 11 12 15q24 6 33 -17q64 -151 45.5 -280 t-115.5 -216q0 -93 -14 -188q-22 -145 -85.5 -271t-152.5 -215t-194.5 -151.5t-216 -88.5t-213.5 -17q-128 12 -230 72.5t-168.5 165t-88 250zM508 1589q-11 41 24 85.5t103 60.5q72 15 123.5 -5t58.5 -67q7 -39 -29 -84.5t-98 -58.5q-71 -13 -119 9t-63 60zM691 1023 q0 -55 31.5 -109.5t88.5 -92.5q81 -51 175 -62.5t177 15.5q5 93 1.5 171t-22 139t-50 101t-82.5 58t-119 10q-64 -7 -111.5 -41.5t-68 -84t-20.5 -104.5zM842 1589q-11 41 24 85.5t103 60.5q72 15 123.5 -5t58.5 -67q7 -39 -29 -84.5t-98 -58.5q-71 -13 -119 9t-63 60z" />
<glyph unicode="&#xd7;" horiz-adv-x="737" d="M57 590q-11 9 25.5 66t79.5 105t49 36q50 -101 125 -224q56 73 127 160q9 11 66 -25t105 -79t36 -49q-110 -55 -246 -140q82 -116 145 -176q15 -12 8 -32q-9 -25 -47 -6q-15 8 -34 24l-166 127q-128 -88 -193 -156q-12 -15 -31 -8q-26 9 -9 47q8 16 24 35q24 28 117 151z " />
<glyph unicode="&#xd8;" horiz-adv-x="1380" d="M63 709q27 149 90.5 275t147 211t182.5 145.5t196 88.5t189 29l54 154q7 20 137 20q122 0 136 -16q2 -2 1 -4q-68 -120 -156 -301q148 -20 252.5 -134t118.5 -300q143 146 29 446q-4 11 12 15q24 6 33 -17q64 -151 45.5 -280t-115.5 -216q0 -93 -14 -188 q-22 -145 -85.5 -271t-152.5 -215t-194.5 -151.5t-216 -88.5t-213.5 -17q-54 6 -103 18l-39 -105q-6 -18 -28 -20q-26 -3 -29 28q-2 20 10 52l23 65q-188 78 -275 281.5t-35 495.5zM298 311.5q22 -179.5 112 -272.5q49 143 266 827q-48 71 -48.5 152.5t47 152.5t134.5 109 q3 10 18 54t23 67q-58 22 -124 -4t-128 -90.5t-117.5 -155.5t-98 -205t-63.5 -233q-43 -222 -21 -401.5zM469 -6q54 -34 133 -43q122 -11 235 76t193 245.5t115 358.5q7 42 14 98q-88 -32 -186.5 -23.5t-184.5 58.5q-152 -349 -319 -770zM701 1102.5q-23 -75.5 4 -148.5 l83 265q-64 -41 -87 -116.5zM813 819q80 -51 173.5 -62t176.5 17q26 409 -155 469q-83 -170 -195 -424z" />
<glyph unicode="&#xd9;" horiz-adv-x="1091" d="M37 896.5q21 262.5 86 569.5q3 14 72 20.5t136.5 2t65.5 -18.5q-110 -607 -135 -841q-38 -375 41 -488q42 -59 117 -61q138 -3 231 157t113 443q2 254 45 774q1 15 74 24t144.5 7t68.5 -15q-121 -569 -145 -954.5t61 -441.5q66 -33 143 9.5t111 147.5q11 34 32 39 q17 5 18 -16q1 -10 -3 -23q-46 -148 -154 -207.5t-205 -7.5q-66 35 -116.5 122t-63.5 208q-72 -173 -169 -264.5t-243 -87.5q-135 4 -216.5 120t-105.5 318t-3 464.5zM397 1731q-11 5 68 134q64 105 70 97q20 -33 73.5 -128t95 -163t74.5 -110q10 -12 -13 -16q-9 -2 -13 -1 q-54 29 -174 91t-181 96z" />
<glyph unicode="&#xda;" horiz-adv-x="1091" d="M37 896.5q21 262.5 86 569.5q3 14 72 20.5t136.5 2t65.5 -18.5q-110 -607 -135 -841q-38 -375 41 -488q42 -59 117 -61q138 -3 231 157t113 443q2 254 45 774q1 15 74 24t144.5 7t68.5 -15q-121 -569 -145 -954.5t61 -441.5q66 -33 143 9.5t111 147.5q11 34 32 39 q17 5 18 -16q1 -10 -3 -23q-46 -148 -154 -207.5t-205 -7.5q-66 35 -116.5 122t-63.5 208q-72 -173 -169 -264.5t-243 -87.5q-135 4 -216.5 120t-105.5 318t-3 464.5zM442 1540q-2 15 2 19q29 35 118.5 144.5t137.5 164.5q5 6 57.5 -40t100.5 -94.5t41 -50.5 q-34 -11 -139.5 -44.5t-180.5 -60t-124 -50.5q-11 -5 -13 12z" />
<glyph unicode="&#xdb;" horiz-adv-x="1091" d="M37 896.5q21 262.5 86 569.5q3 14 72 20.5t136.5 2t65.5 -18.5q-110 -607 -135 -841q-38 -375 41 -488q42 -59 117 -61q138 -3 231 157t113 443q2 254 45 774q1 15 74 24t144.5 7t68.5 -15q-121 -569 -145 -954.5t61 -441.5q66 -33 143 9.5t111 147.5q11 34 32 39 q17 5 18 -16q1 -10 -3 -23q-46 -148 -154 -207.5t-205 -7.5q-66 35 -116.5 122t-63.5 208q-72 -173 -169 -264.5t-243 -87.5q-135 4 -216.5 120t-105.5 318t-3 464.5zM305 1636q87 77 201.5 187t148.5 153q13 16 36 15t36 -19q1 0 217 -358q4 -7 -3 -14.5t-13 -2.5 q-162 159 -264 250q-1 0 -24.5 -41.5t-65 -112.5t-76.5 -126q-7 -12 -122 33q-78 31 -71 36z" />
<glyph unicode="&#xdc;" horiz-adv-x="1091" d="M37 896.5q21 262.5 86 569.5q3 14 72 20.5t136.5 2t65.5 -18.5q-110 -607 -135 -841q-38 -375 41 -488q42 -59 117 -61q138 -3 231 157t113 443q2 254 45 774q1 15 74 24t144.5 7t68.5 -15q-121 -569 -145 -954.5t61 -441.5q66 -33 143 9.5t111 147.5q11 34 32 39 q17 5 18 -16q1 -10 -3 -23q-46 -148 -154 -207.5t-205 -7.5q-66 35 -116.5 122t-63.5 208q-72 -173 -169 -264.5t-243 -87.5q-135 4 -216.5 120t-105.5 318t-3 464.5zM274 1628q-11 41 24 85.5t103 60.5q72 15 124 -5t59 -67q7 -39 -29 -84.5t-98 -58.5q-71 -13 -119.5 9 t-63.5 60zM608 1628q-11 41 24 85.5t103 60.5q72 15 124 -5t59 -67q7 -39 -29 -84.5t-98 -58.5q-71 -13 -119.5 9t-63.5 60z" />
<glyph unicode="&#xdd;" horiz-adv-x="1132" d="M45 -430q17 103 123 187q148 119 375 124q116 2 241 -28q64 175 97 325q-71 -97 -145.5 -148t-174.5 -48q-111 3 -187 131t-106 334t-16.5 475t72.5 546q3 14 72 20.5t136 2.5t64 -18q-25 -135 -43 -243t-36.5 -224t-29 -206t-19 -182.5t-8.5 -162t5 -135t18.5 -110.5 t34.5 -79.5t52 -51.5t71 -18q103 -1 173 102.5t116 303.5q50 387 39 981q0 8 29.5 17t71.5 15.5t83.5 10t71 2t28.5 -9.5q-109 -1289 -288 -1659q131 -46 239 -107q12 -6 -6.5 -35t-46.5 -53t-39 -16q-96 70 -194 123q-65 -105 -158 -183t-187.5 -117.5t-187.5 -55t-166 -5 t-115 40.5q-76 56 -59 154zM259 -335q-17 -79 30 -134q10 -11 22 -20q33 -24 70 -36t86 -6.5t95.5 34.5t98 97.5t95.5 172.5q-250 102 -395 24q-85 -45 -102 -132zM583 1525q-1 15 3 19q29 35 118.5 144.5t137.5 164.5q5 6 57 -39.5t100 -94t41 -50.5q-30 -10 -138.5 -44.5 t-182.5 -61t-123 -50.5q-11 -5 -13 12z" />
<glyph unicode="&#xde;" horiz-adv-x="1314" d="M-21 496q30 171 233 321q91 67 212 125l18 496q0 15 72.5 24t144.5 6.5t70 -16.5q-25 -175 -53 -453q170 37 315.5 -4.5t227.5 -147.5t73 -249q-9 -128 -54 -231t-113.5 -170.5t-157.5 -111.5t-183.5 -60.5t-193.5 -10.5q-19 -244 -19 -293q0 -12 -21 -21.5t-50.5 -14.5 t-59 -7t-50.5 1t-21 10q30 531 51 1161q-141 -44 -231 -185q-78 -124 -76 -251q2 -124 84 -169q30 -17 69 -20q29 -3 34 -21q4 -17 -22 -22q-10 -2 -22 -2q-135 5 -216 94q-84 92 -61 222zM594 68q175 -18 301 120.5t141 386.5q10 193 -92.5 279.5t-277.5 50.5 q-42 -418 -72 -837z" />
<glyph unicode="&#xdf;" horiz-adv-x="972" d="M23 14q37 337 81 578.5t105.5 424.5t144.5 273t189 90q59 0 103.5 -55.5t65 -145.5t7.5 -218t-64 -259q-6 -11 1 -16.5t36 -9.5q113 -22 186.5 -99t73.5 -208q0 -99 -42.5 -179.5t-109 -128t-143.5 -72.5t-152 -20.5t-128 35.5q-32 17 -12 32q19 14 46 6q4 -1 7 -3 q41 -19 81.5 -20.5t79 23.5t68 65t47 104t17.5 141q0 133 -61.5 210t-192.5 116q-46 13 -31 47q53 126 87 225.5t52 184.5t3.5 131.5t-62.5 46.5q-58 0 -95.5 -54.5t-64.5 -196.5t-38 -394t-9 -641q0 -14 -70 -22.5t-139 -6t-67 15.5z" />
<glyph unicode="&#xe0;" d="M49 469q12 102 47.5 179t82.5 118.5t101.5 63.5t106 19.5t95 -20.5t69.5 -49q36 30 148 48q103 16 112 -5q1 -3 0 -6q-37 -105 -58.5 -238.5t-27.5 -230.5q-14 -245 49 -287q60 -36 110.5 -0.5t76.5 119.5q10 34 31 42q17 5 18 -14q1 -10 -4 -24q-23 -72 -64.5 -119.5 t-89.5 -65t-101 -10.5t-99 36.5t-83 83.5t-53 124q-22 -107 -62.5 -165t-109.5 -58q-40 0 -83 15.5t-86.5 51.5t-75.5 87.5t-47 131t-3 173.5zM285.5 177q20.5 -97 93.5 -97q22 0 38.5 14t28 43t19 60t13.5 78t9 83.5t7.5 90.5t7.5 86q7 98 20 170q-17 74 -63 83 q-50 10 -97 -65q-52 -83 -71 -238q-26 -211 -5.5 -308zM303 1116q-11 5 68 135q63 105 69 97q19 -32 73.5 -128t96 -164t74.5 -110q10 -12 -15 -16q-8 -1 -12 0q-56 30 -174.5 91.5t-179.5 94.5z" />
<glyph unicode="&#xe1;" d="M49 469q12 102 47.5 179t82.5 118.5t101.5 63.5t106 19.5t95 -20.5t69.5 -49q36 30 148 48q103 16 112 -5q1 -3 0 -6q-37 -105 -58.5 -238.5t-27.5 -230.5q-14 -245 49 -287q60 -36 110.5 -0.5t76.5 119.5q10 34 31 42q17 5 18 -14q1 -10 -4 -24q-23 -72 -64.5 -119.5 t-89.5 -65t-101 -10.5t-99 36.5t-83 83.5t-53 124q-22 -107 -62.5 -165t-109.5 -58q-40 0 -83 15.5t-86.5 51.5t-75.5 87.5t-47 131t-3 173.5zM285.5 177q20.5 -97 93.5 -97q22 0 38.5 14t28 43t19 60t13.5 78t9 83.5t7.5 90.5t7.5 86q7 98 20 170q-17 74 -63 83 q-50 10 -97 -65q-52 -83 -71 -238q-26 -211 -5.5 -308zM331 946q-1 15 3 19q29 35 118.5 144.5t137.5 164.5q5 6 57 -39.5t100 -94t41 -50.5q-30 -10 -138.5 -44.5t-182.5 -61t-123 -50.5q-11 -5 -13 12z" />
<glyph unicode="&#xe2;" d="M49 469q12 102 47.5 179t82.5 118.5t101.5 63.5t106 19.5t95 -20.5t69.5 -49q36 30 148 48q103 16 112 -5q1 -3 0 -6q-37 -105 -58.5 -238.5t-27.5 -230.5q-14 -245 49 -287q60 -36 110.5 -0.5t76.5 119.5q10 34 31 42q17 5 18 -14q1 -10 -4 -24q-23 -72 -64.5 -119.5 t-89.5 -65t-101 -10.5t-99 36.5t-83 83.5t-53 124q-22 -107 -62.5 -165t-109.5 -58q-40 0 -83 15.5t-86.5 51.5t-75.5 87.5t-47 131t-3 173.5zM164 950q87 77 201.5 187t148.5 153q13 16 36 15t36 -19q1 0 217 -358q4 -7 -3.5 -14.5t-13.5 -2.5q-162 159 -264 250 q-1 0 -24.5 -41.5t-65 -112.5t-76.5 -126q-7 -12 -122 34q-77 30 -70 35zM285.5 177q20.5 -97 93.5 -97q22 0 38.5 14t28 43t19 60t13.5 78t9 83.5t7.5 90.5t7.5 86q7 98 20 170q-17 74 -63 83q-50 10 -97 -65q-52 -83 -71 -238q-26 -211 -5.5 -308z" />
<glyph unicode="&#xe3;" d="M49 469q12 102 47.5 179t82.5 118.5t101.5 63.5t106 19.5t95 -20.5t69.5 -49q36 30 148 48q103 16 112 -5q1 -3 0 -6q-37 -105 -58.5 -238.5t-27.5 -230.5q-14 -245 49 -287q60 -36 110.5 -0.5t76.5 119.5q10 34 31 42q17 5 18 -14q1 -10 -4 -24q-23 -72 -64.5 -119.5 t-89.5 -65t-101 -10.5t-99 36.5t-83 83.5t-53 124q-22 -107 -62.5 -165t-109.5 -58q-40 0 -83 15.5t-86.5 51.5t-75.5 87.5t-47 131t-3 173.5zM274 1061q-5 15 1.5 24.5t15 12t10.5 0.5q32 -25 55 -27t41.5 14.5t36.5 37.5t48.5 42t68.5 27q77 11 134 -38.5t91 -123.5 q3 -6 -6 -10.5t-12 0.5q-30 32 -46.5 41.5t-31 1.5t-27 -22.5t-44 -33.5t-72.5 -28q-85 -17 -166.5 8t-96.5 74zM285.5 177q20.5 -97 93.5 -97q22 0 38.5 14t28 43t19 60t13.5 78t9 83.5t7.5 90.5t7.5 86q7 98 20 170q-17 74 -63 83q-50 10 -97 -65q-52 -83 -71 -238 q-26 -211 -5.5 -308z" />
<glyph unicode="&#xe4;" d="M49 469q12 102 47.5 179t82.5 118.5t101.5 63.5t106 19.5t95 -20.5t69.5 -49q36 30 148 48q103 16 112 -5q1 -3 0 -6q-37 -105 -58.5 -238.5t-27.5 -230.5q-14 -245 49 -287q60 -36 110.5 -0.5t76.5 119.5q10 34 31 42q17 5 18 -14q1 -10 -4 -24q-23 -72 -64.5 -119.5 t-89.5 -65t-101 -10.5t-99 36.5t-83 83.5t-53 124q-22 -107 -62.5 -165t-109.5 -58q-40 0 -83 15.5t-86.5 51.5t-75.5 87.5t-47 131t-3 173.5zM176 1008q-11 41 24 85t103 60q72 15 123.5 -5t58.5 -67q7 -39 -29 -84.5t-98 -58.5q-71 -13 -119 9.5t-63 60.5zM285.5 177 q20.5 -97 93.5 -97q22 0 38.5 14t28 43t19 60t13.5 78t9 83.5t7.5 90.5t7.5 86q7 98 20 170q-17 74 -63 83q-50 10 -97 -65q-52 -83 -71 -238q-26 -211 -5.5 -308zM510 1008q-11 41 24 85t103 60q72 15 123.5 -5t58.5 -67q7 -39 -29 -84.5t-98 -58.5q-71 -13 -119 9.5 t-63 60.5z" />
<glyph unicode="&#xe5;" d="M49 469q12 102 47.5 179t82.5 118.5t101.5 63.5t106 19.5t95 -20.5t69.5 -49q36 30 148 48q103 16 112 -5q1 -3 0 -6q-37 -105 -58.5 -238.5t-27.5 -230.5q-14 -245 49 -287q60 -36 110.5 -0.5t76.5 119.5q10 34 31 42q17 5 18 -14q1 -10 -4 -24q-23 -72 -64.5 -119.5 t-89.5 -65t-101 -10.5t-99 36.5t-83 83.5t-53 124q-22 -107 -62.5 -165t-109.5 -58q-40 0 -83 15.5t-86.5 51.5t-75.5 87.5t-47 131t-3 173.5zM285.5 177q20.5 -97 93.5 -97q22 0 38.5 14t28 43t19 60t13.5 78t9 83.5t7.5 90.5t7.5 86q7 98 20 170q-17 74 -63 83 q-50 10 -97 -65q-52 -83 -71 -238q-26 -211 -5.5 -308zM326 977q-23 58 12 112t115 85q99 35 165.5 19.5t86.5 -67.5q19 -51 -22.5 -112.5t-117.5 -85.5q-83 -27 -151 -13.5t-88 62.5zM444 1062q-11 -41 2 -75t43.5 -39t59.5 21q29 25 40 66t-3 75q-12 34 -43 39.5 t-60 -19.5q-28 -27 -39 -68z" />
<glyph unicode="&#xe6;" horiz-adv-x="1323" d="M49 469q12 102 47.5 179t82.5 118.5t101.5 63.5t106 19.5t95 -20.5t69.5 -49q41 34 156 81q110 43 104 18q-16 -48 -18 -58q73 37 149 37q133 0 201 -59t63 -152q-8 -141 -143 -288.5t-299 -180.5q32 -60 70.5 -92.5t97.5 -38.5q77 -7 157 33.5t134 100t71 116.5 q10 38 29 44q11 5 12 -11q1 -9 -2 -23q-10 -54 -52.5 -112.5t-102.5 -106t-140 -74.5t-157 -20q-72 6 -141 32.5t-130.5 80.5t-91.5 126h-2q-22 -107 -62.5 -165t-109.5 -58q-40 0 -83 15.5t-86.5 51.5t-75.5 87.5t-47 131t-3 173.5zM285.5 177q20.5 -97 93.5 -97 q22 0 38.5 14t28 43t19 60t13.5 78t9 83.5t7.5 90.5t7.5 86q7 98 20 170q-17 74 -63 83q-50 10 -97 -65q-52 -83 -71 -238q-26 -211 -5.5 -308zM729 453q-19 -149 21 -242q94 23 153 130t72 237q8 91 -7 156t-53 65q-59 0 -113 -91t-73 -255z" />
<glyph unicode="&#xe7;" horiz-adv-x="645" d="M47 477q8 64 28.5 120t49.5 97t66 74t77 52t82 31.5t81.5 11t76.5 -8.5q62 -15 96 -66.5t36 -116t-29 -135.5t-91 -122q-27 -24 -65 28t-62 115t-18 66q115 59 147 125q25 52 -18 71l-10 4q-60 16 -121 -66t-84 -263q-49 -413 145 -441h10q18 -3 39 0h11l18 4q24 3 47 13 l37 16l18 10q7 4 25 17l8 6l17 12l26 25q2 3 9.5 10.5t9.5 11.5q14 16 24 37q2 3 5 11.5t5 11.5q0 4 2 8q3 10 9 20q0 1 1 3t1 3l6 9l8 8q4 4 6 4q6 3 10 -8q0 -1 1 -3t1 -3v-13q0 -1 -1 -3t-1 -3v-4q-4 -22 -8 -31q-4 -8 -4 -10q-12 -31 -43 -70q-24 -30 -61 -59l-23 -16 q-21 -15 -45 -27q-17 -9 -61 -27l-27 -6l-27 -6q-24 -4 -41 -4q-26 -3 -53 0q-43 3 -76 14l-14 -55l2 2q68 0 111 -32.5t37 -98.5q-4 -38 -26 -67t-53 -43t-60 -20t-54 -5q-16 1 -17.5 12.5t4.5 22.5t9 10q26 0 50.5 7t47 29.5t25.5 57.5q4 44 -24.5 71t-78.5 29 q-11 0 -4 31q4 20 15 60q-54 21 -99.5 57t-83 89.5t-53.5 132.5t-4 173z" />
<glyph unicode="&#xe8;" horiz-adv-x="729" d="M45 428q11 89 58 170.5t112 137.5t140 89t143 33q133 0 201 -59t63 -152q-5 -90 -67.5 -190.5t-164.5 -178.5t-211 -100q32 -60 70.5 -92.5t97.5 -38.5q114 -10 225 74.5t138 175.5q10 38 29 44q11 5 12 -11q1 -9 -2 -23q-10 -54 -52.5 -112.5t-103 -106t-140.5 -74.5 t-157 -20q-57 5 -114.5 24t-112 55t-94.5 85t-60 119t-10 151zM254 1137q-11 5 67 134q64 105 70 97q18 -31 73 -127.5t96.5 -164t74.5 -109.5q10 -12 -15 -17q-8 -1 -12 0q-52 28 -172 90.5t-182 96.5zM285 453q-19 -151 20 -242q94 23 153 130t72 237q8 92 -6.5 156.5 t-52.5 64.5q-59 0 -113 -91t-73 -255z" />
<glyph unicode="&#xe9;" horiz-adv-x="729" d="M45 428q11 89 58 170.5t112 137.5t140 89t143 33q133 0 201 -59t63 -152q-5 -90 -67.5 -190.5t-164.5 -178.5t-211 -100q32 -60 70.5 -92.5t97.5 -38.5q114 -10 225 74.5t138 175.5q10 38 29 44q11 5 12 -11q1 -9 -2 -23q-10 -54 -52.5 -112.5t-103 -106t-140.5 -74.5 t-157 -20q-57 5 -114.5 24t-112 55t-94.5 85t-60 119t-10 151zM261 966q-1 15 3 19q29 35 118.5 144.5t137.5 164.5q5 6 57.5 -39.5t100.5 -94t41 -50.5q-32 -11 -139.5 -45t-182 -60.5t-123.5 -50.5q-11 -5 -13 12zM285 453q-19 -151 20 -242q94 23 153 130t72 237 q8 92 -6.5 156.5t-52.5 64.5q-59 0 -113 -91t-73 -255z" />
<glyph unicode="&#xea;" horiz-adv-x="729" d="M45 428q11 89 58 170.5t112 137.5t140 89t143 33q133 0 201 -59t63 -152q-5 -90 -67.5 -190.5t-164.5 -178.5t-211 -100q32 -60 70.5 -92.5t97.5 -38.5q114 -10 225 74.5t138 175.5q10 38 29 44q11 5 12 -11q1 -9 -2 -23q-10 -54 -52.5 -112.5t-103 -106t-140.5 -74.5 t-157 -20q-57 5 -114.5 24t-112 55t-94.5 85t-60 119t-10 151zM156 952q87 77 201.5 187t148.5 153q13 16 36 15t36 -19q1 0 217 -358q4 -7 -3.5 -14.5t-13.5 -2.5q-162 159 -264 250q-1 0 -24.5 -41.5t-65 -112.5t-76.5 -126q-7 -12 -122 34q-77 30 -70 35zM285 453 q-19 -151 20 -242q94 23 153 130t72 237q8 92 -6.5 156.5t-52.5 64.5q-59 0 -113 -91t-73 -255z" />
<glyph unicode="&#xeb;" horiz-adv-x="729" d="M45 428q11 89 58 170.5t112 137.5t140 89t143 33q133 0 201 -59t63 -152q-5 -90 -67.5 -190.5t-164.5 -178.5t-211 -100q32 -60 70.5 -92.5t97.5 -38.5q114 -10 225 74.5t138 175.5q10 38 29 44q11 5 12 -11q1 -9 -2 -23q-10 -54 -52.5 -112.5t-103 -106t-140.5 -74.5 t-157 -20q-57 5 -114.5 24t-112 55t-94.5 85t-60 119t-10 151zM145 1008q-11 41 24 85t103 60q72 15 124 -5t59 -67q7 -39 -29 -84.5t-98 -58.5q-71 -13 -119.5 9.5t-63.5 60.5zM285 453q-19 -151 20 -242q94 23 153 130t72 237q8 92 -6.5 156.5t-52.5 64.5q-59 0 -113 -91 t-73 -255zM479 1008q-11 41 24 85t103 60q72 15 123.5 -5t58.5 -67q7 -39 -28.5 -84.5t-97.5 -58.5q-71 -13 -119.5 9.5t-63.5 60.5z" />
<glyph unicode="&#xec;" horiz-adv-x="602" d="M27 1116q-11 5 68 135q63 105 69 97q19 -32 73.5 -128t96 -164t74.5 -110q10 -12 -15 -16q-8 -1 -12 0q-56 30 -174.5 91.5t-179.5 94.5zM59.5 275q-34.5 198 18.5 458q4 17 77.5 26.5t143 6t63.5 -20.5q-84 -235 -102.5 -435t43.5 -247q61 -43 131.5 -5.5t87.5 130.5 q6 34 27 42q17 6 20 -15q1 -9 -2 -22q-23 -88 -84.5 -146t-136.5 -67t-153 32q-99 65 -133.5 263z" />
<glyph unicode="&#xed;" horiz-adv-x="602" d="M14 966q-2 15 2 19q29 35 118.5 144.5t137.5 164.5q5 6 57.5 -39.5t100.5 -94t41 -50.5q-30 -10 -138.5 -44.5t-182.5 -61t-123 -50.5q-11 -5 -13 12zM59.5 275q-34.5 198 18.5 458q4 17 77.5 26.5t143 6t63.5 -20.5q-84 -235 -102.5 -435t43.5 -247q61 -43 131.5 -5.5 t87.5 130.5q6 34 27 42q17 6 20 -15q1 -9 -2 -22q-23 -88 -84.5 -146t-136.5 -67t-153 32q-99 65 -133.5 263z" />
<glyph unicode="&#xee;" horiz-adv-x="602" d="M-113 932q88 78 202.5 188t148.5 152q13 16 35.5 15t35.5 -19q3 -2 33.5 -52.5t89 -148.5t94.5 -158q4 -7 -3 -14t-13 -2q-162 159 -264 250q-1 0 -24.5 -41.5t-65 -113t-76.5 -126.5q-7 -12 -122 34q-78 31 -71 36zM59.5 275q-34.5 198 18.5 458q4 17 77.5 26.5t143 6 t63.5 -20.5q-84 -235 -102.5 -435t43.5 -247q61 -43 131.5 -5.5t87.5 130.5q6 34 27 42q17 6 20 -15q1 -9 -2 -22q-23 -88 -84.5 -146t-136.5 -67t-153 32q-99 65 -133.5 263z" />
<glyph unicode="&#xef;" horiz-adv-x="602" d="M-102 1008q-11 41 24 85t103 60q72 15 123.5 -5t58.5 -67q7 -39 -29 -84.5t-98 -58.5q-71 -13 -119 9.5t-63 60.5zM59.5 275q-34.5 198 18.5 458q4 17 77.5 26.5t143 6t63.5 -20.5q-84 -235 -102.5 -435t43.5 -247q61 -43 131.5 -5.5t87.5 130.5q6 34 27 42q17 6 20 -15 q1 -9 -2 -22q-23 -88 -84.5 -146t-136.5 -67t-153 32q-99 65 -133.5 263zM231 1008q-11 41 24 85t103 60q72 15 124 -5t59 -67q7 -39 -29 -84.5t-98 -58.5q-71 -13 -119.5 9.5t-63.5 60.5z" />
<glyph unicode="&#xf0;" horiz-adv-x="880" d="M49 455q13 111 54 192.5t94.5 121.5t113.5 56.5t114.5 7t94.5 -37.5q-15 100 -29 161t-40 115q-87 -12 -172 -6q-17 1 -14.5 16t16.5 15q71 3 145 24q-3 6 -15 27.5t-15.5 27.5t-14.5 24.5t-15.5 25.5t-15 22t-17 22.5t-17.5 19.5t-20 19.5t-20.5 16.5t-23.5 16 q-20 11 -9 24q10 12 29 3q189 -90 277 -203q102 42 172 115q15 14 28 -27q15 -48 14 -83q0 -3 -1 -3q-57 -38 -168 -63q162 -251 162 -492q0 -168 -57.5 -310t-153 -223t-203.5 -81q-39 0 -82 15.5t-86 51t-75 86.5t-47 130.5t-3 173.5zM291 471q-53 -422 88 -422 q64 0 108.5 149.5t44.5 393.5q0 26 -4 96v2q-16 73 -63 83q-51 12 -99 -59q-56 -84 -75 -243z" />
<glyph unicode="&#xf1;" horiz-adv-x="802" d="M43 14q45 572 0 832q-2 14 70 28.5t134 16.5t70 -10q-38 -273 -55 -533q-1 -17 5 -16t9 18q66 240 105 329q73 167 176 182q10 1 21 1q102 0 150 -106t15 -316q-25 -158 -28.5 -243.5t12.5 -121t55 -38.5q45 -3 90 44t66 112q9 34 30 42q16 5 18 -14q1 -10 -3 -24 q-27 -93 -99.5 -154.5t-160.5 -54.5q-134 10 -186.5 111t-30.5 292q6 47 14.5 98t15.5 86t13.5 70t9 57t0.5 40t-11 26t-26 8q-45 0 -97 -120t-90.5 -283t-58.5 -322q-3 -20 -39.5 -32.5t-76.5 -16.5q-35 -3 -76 0.5t-41 11.5zM160 1102q-5 15 1 24.5t14.5 12t10.5 0.5 q32 -25 55 -27t41.5 14.5t36.5 37.5t48.5 42t68.5 27q77 11 135 -38.5t91 -123.5q3 -6 -6.5 -10.5t-12.5 0.5q-30 32 -46.5 41.5t-31 1.5t-27 -22.5t-44 -33.5t-72.5 -28q-85 -17 -166 8t-96 74z" />
<glyph unicode="&#xf2;" horiz-adv-x="759" d="M49 457q28 234 183 346q108 77 231 69q99 -7 140 -66q14 -19 18 -42q2 -11 -12 -13q-24 0 -40 13q-14 65 -63 67q-55 2 -113 -73q-81 -106 -102 -285q-53 -426 88 -426q146 0 186 330l4 24q-138 8 -189 89t-1 158t160 77q41 0 81.5 -15t77.5 -46t59 -86t21 -127 q35 8 107 43q5 2 9.5 -7.5t4.5 -19.5t-6 -14q-70 -34 -117 -45q0 -9 -2 -15q-9 -85 -42 -154.5t-77 -113.5t-99.5 -73.5t-108.5 -41.5t-105 -12q-42 0 -85.5 15.5t-86.5 51.5t-74 87.5t-45 130.5t-2 174zM311 1137q-11 5 68 134q64 105 70 97q20 -33 73.5 -128t95 -163 t74.5 -110q10 -12 -13 -16q-9 -2 -13 -1q-54 29 -174 91t-181 96zM428 522q30 -74 143 -82q11 146 -1.5 197t-67.5 51q-38 0 -65 -49q-32 -60 -9 -117z" />
<glyph unicode="&#xf3;" horiz-adv-x="759" d="M49 457q28 234 183 346q108 77 231 69q99 -7 140 -66q14 -19 18 -42q2 -11 -12 -13q-24 0 -40 13q-14 65 -63 67q-55 2 -113 -73q-81 -106 -102 -285q-53 -426 88 -426q146 0 186 330l4 24q-138 8 -189 89t-1 158t160 77q41 0 81.5 -15t77.5 -46t59 -86t21 -127 q35 8 107 43q5 2 9.5 -7.5t4.5 -19.5t-6 -14q-70 -34 -117 -45q0 -9 -2 -15q-9 -85 -42 -154.5t-77 -113.5t-99.5 -73.5t-108.5 -41.5t-105 -12q-42 0 -85.5 15.5t-86.5 51.5t-74 87.5t-45 130.5t-2 174zM276 966q-1 15 3 19q29 35 118.5 144.5t137.5 164.5q5 6 57 -39.5 t100 -94t41 -50.5q-30 -10 -138.5 -44.5t-182.5 -61t-123 -50.5q-11 -5 -13 12zM428 522q30 -74 143 -82q11 146 -1.5 197t-67.5 51q-38 0 -65 -49q-32 -60 -9 -117z" />
<glyph unicode="&#xf4;" horiz-adv-x="759" d="M49 457q28 234 183 346q108 77 231 69q99 -7 140 -66q14 -19 18 -42q2 -11 -12 -13q-24 0 -40 13q-14 65 -63 67q-55 2 -113 -73q-81 -106 -102 -285q-53 -426 88 -426q146 0 186 330l4 24q-138 8 -189 89t-1 158t160 77q41 0 81.5 -15t77.5 -46t59 -86t21 -127 q35 8 107 43q5 2 9.5 -7.5t4.5 -19.5t-6 -14q-70 -34 -117 -45q0 -9 -2 -15q-9 -85 -42 -154.5t-77 -113.5t-99.5 -73.5t-108.5 -41.5t-105 -12q-42 0 -85.5 15.5t-86.5 51.5t-74 87.5t-45 130.5t-2 174zM129 952q87 77 201.5 187t148.5 153q13 16 36 15t36 -19 q1 0 217 -358q4 -7 -3 -14.5t-13 -2.5q-153 150 -265 250q-1 0 -24.5 -41.5t-64.5 -112.5t-76 -126q-7 -12 -122 33q-78 31 -71 36zM428 522q30 -74 143 -82q11 146 -1.5 197t-67.5 51q-38 0 -65 -49q-32 -60 -9 -117z" />
<glyph unicode="&#xf5;" horiz-adv-x="759" d="M49 457q28 234 183 346q108 77 231 69q99 -7 140 -66q14 -19 18 -42q2 -11 -12 -13q-24 0 -40 13q-14 65 -63 67q-55 2 -113 -73q-81 -106 -102 -285q-53 -426 88 -426q146 0 186 330l4 24q-138 8 -189 89t-1 158t160 77q41 0 81.5 -15t77.5 -46t59 -86t21 -127 q35 8 107 43q5 2 9.5 -7.5t4.5 -19.5t-6 -14q-70 -34 -117 -45q0 -9 -2 -15q-9 -85 -42 -154.5t-77 -113.5t-99.5 -73.5t-108.5 -41.5t-105 -12q-42 0 -85.5 15.5t-86.5 51.5t-74 87.5t-45 130.5t-2 174zM203 1061q-5 15 1 24.5t14.5 12t10.5 0.5q32 -25 55 -27t41.5 14.5 t36.5 37.5t48.5 42t68.5 27q77 11 135 -38.5t91 -123.5q3 -6 -6.5 -10.5t-12.5 0.5q-30 32 -46.5 41.5t-31 1.5t-27 -22.5t-44 -33.5t-72.5 -28q-85 -17 -166 8t-96 74zM428 522q30 -74 143 -82q11 146 -1.5 197t-67.5 51q-38 0 -65 -49q-32 -60 -9 -117z" />
<glyph unicode="&#xf6;" horiz-adv-x="759" d="M49 457q28 234 183 346q108 77 231 69q99 -7 140 -66q14 -19 18 -42q2 -11 -12 -13q-24 0 -40 13q-14 65 -63 67q-55 2 -113 -73q-81 -106 -102 -285q-53 -426 88 -426q146 0 186 330l4 24q-138 8 -189 89t-1 158t160 77q41 0 81.5 -15t77.5 -46t59 -86t21 -127 q35 8 107 43q5 2 9.5 -7.5t4.5 -19.5t-6 -14q-70 -34 -117 -45q0 -9 -2 -15q-9 -85 -42 -154.5t-77 -113.5t-99.5 -73.5t-108.5 -41.5t-105 -12q-42 0 -85.5 15.5t-86.5 51.5t-74 87.5t-45 130.5t-2 174zM139 1028q-11 41 24 85.5t103 60.5q72 15 124 -5t59 -67 q7 -39 -29 -85t-98 -59q-71 -13 -119.5 9.5t-63.5 60.5zM428 522q30 -74 143 -82q11 146 -1.5 197t-67.5 51q-38 0 -65 -49q-32 -60 -9 -117zM473 1028q-11 41 24 85.5t103 60.5q72 15 123.5 -5t58.5 -67q7 -39 -29 -85t-98 -59q-71 -13 -119 9.5t-63 60.5z" />
<glyph unicode="&#xf7;" horiz-adv-x="835" d="M54 525q-11 25 26 37q17 6 43 7q49 4 255 39.5t351 50.5q14 1 31 -71.5t21 -133t-7 -67.5q-182 52 -390 85.5t-302 33.5q-19 0 -28 19zM330 268q-2 30 23.5 58.5t74.5 31.5q52 6 83 -16t34 -53q2 -29 -24 -59t-75 -35q-52 -3 -82.5 19.5t-33.5 53.5zM332 764 q-2 30 23.5 58.5t74.5 31.5q51 6 82.5 -16.5t34.5 -53.5q2 -29 -23.5 -59t-74.5 -35q-52 -3 -83 20t-34 54z" />
<glyph unicode="&#xf8;" horiz-adv-x="759" d="M49 457q11 96 45.5 172.5t80 123.5t101 76.5t109 38t102.5 0.5q36 108 60 187q5 20 88 6q77 -12 86 -29q2 -3 0 -6q-38 -43 -123 -213q18 -25 23 -49q2 -11 -12 -12q-20 -2 -38 8q-5 -15 -16 -37q40 -3 78 -20t72 -48t54 -84t19 -120q35 8 107 43q5 2 9.5 -7.5t4.5 -19.5 t-6 -14q-70 -34 -117 -45q0 -9 -2 -15q-9 -85 -42 -154.5t-77 -113.5t-99.5 -73.5t-108.5 -41.5t-105 -12q-40 0 -90 16q-6 -16 -14.5 -38t-14 -36.5t-8.5 -23.5q-5 -16 -24 -18q-23 -3 -27 26q-2 21 8 56q1 4 4 13t8 23.5t9 28.5q-79 53 -121 156.5t-23 255.5zM274 272 l91 250q-15 47 1.5 95t59.5 77l45 129q-60 -24 -112 -116.5t-68 -233.5q-17 -133 -17 -201zM293 119q25 -72 86 -72q146 0 186 330l4 24q-89 6 -139 41q-46 -105 -137 -323zM449 489q40 -43 122 -49q10 115 3 171.5t-39 70.5q-16 -33 -86 -193z" />
<glyph unicode="&#xf9;" d="M43 397q5 106 18.5 217t26.5 146q10 28 126 56q112 26 146 13q10 -4 7 -12q-19 -39 -31.5 -74.5t-28 -118t-26.5 -200.5q-29 -342 71 -342q90 0 146 373q3 148 37 305q6 28 115 56q109 27 151 15q15 -4 12 -14q-38 -105 -60 -238t-28 -231q-9 -127 -1.5 -196.5 t36.5 -90.5q56 -38 126.5 10.5t94.5 131.5q10 33 32 40q17 6 18 -14q1 -9 -3 -22q-21 -70 -63 -119.5t-92.5 -72.5t-106 -21.5t-105 27t-89.5 79t-58 127.5q-38 -121 -70.5 -168t-99.5 -47q-36 0 -76 13t-81.5 43.5t-74 73.5t-52 109.5t-17.5 145.5zM262 1137q-11 5 67 134 q64 105 70 97q18 -31 73 -127.5t96.5 -164t74.5 -109.5q10 -12 -15 -17q-8 -1 -12 0q-52 28 -172 90.5t-182 96.5z" />
<glyph unicode="&#xfa;" d="M43 397q5 106 18.5 217t26.5 146q10 28 126 56q112 26 146 13q10 -4 7 -12q-19 -39 -31.5 -74.5t-28 -118t-26.5 -200.5q-29 -342 71 -342q90 0 146 373q3 148 37 305q6 28 115 56q109 27 151 15q15 -4 12 -14q-38 -105 -60 -238t-28 -231q-9 -127 -1.5 -196.5 t36.5 -90.5q56 -38 126.5 10.5t94.5 131.5q10 33 32 40q17 6 18 -14q1 -9 -3 -22q-21 -70 -63 -119.5t-92.5 -72.5t-106 -21.5t-105 27t-89.5 79t-58 127.5q-38 -121 -70.5 -168t-99.5 -47q-36 0 -76 13t-81.5 43.5t-74 73.5t-52 109.5t-17.5 145.5zM249 987q-1 15 3 19 q29 35 118.5 144.5t137.5 164.5q5 6 57.5 -40t100.5 -94.5t41 -50.5q-35 -12 -140 -45t-180.5 -59.5t-124.5 -50.5q-11 -5 -13 12z" />
<glyph unicode="&#xfb;" d="M43 397q5 106 18.5 217t26.5 146q10 28 126 56q112 26 146 13q10 -4 7 -12q-19 -39 -31.5 -74.5t-28 -118t-26.5 -200.5q-29 -342 71 -342q90 0 146 373q3 148 37 305q6 28 115 56q109 27 151 15q15 -4 12 -14q-38 -105 -60 -238t-28 -231q-9 -127 -1.5 -196.5 t36.5 -90.5q56 -38 126.5 10.5t94.5 131.5q10 33 32 40q17 6 18 -14q1 -9 -3 -22q-21 -70 -63 -119.5t-92.5 -72.5t-106 -21.5t-105 27t-89.5 79t-58 127.5q-38 -121 -70.5 -168t-99.5 -47q-36 0 -76 13t-81.5 43.5t-74 73.5t-52 109.5t-17.5 145.5zM164 952 q87 77 201.5 187t148.5 153q13 16 36 15t36 -19q1 0 217 -358q4 -7 -3.5 -14.5t-13.5 -2.5q-162 159 -264 250q-1 0 -24.5 -41.5t-65 -112.5t-76.5 -126q-7 -12 -122 34q-77 30 -70 35z" />
<glyph unicode="&#xfc;" d="M43 397q5 106 18.5 217t26.5 146q10 28 126 56q112 26 146 13q10 -4 7 -12q-19 -39 -31.5 -74.5t-28 -118t-26.5 -200.5q-29 -342 71 -342q90 0 146 373q3 148 37 305q6 28 115 56q109 27 151 15q15 -4 12 -14q-38 -105 -60 -238t-28 -231q-9 -127 -1.5 -196.5 t36.5 -90.5q56 -38 126.5 10.5t94.5 131.5q10 33 32 40q17 6 18 -14q1 -9 -3 -22q-21 -70 -63 -119.5t-92.5 -72.5t-106 -21.5t-105 27t-89.5 79t-58 127.5q-38 -121 -70.5 -168t-99.5 -47q-36 0 -76 13t-81.5 43.5t-74 73.5t-52 109.5t-17.5 145.5zM174 1028 q-11 41 24 85.5t103 60.5q72 15 123.5 -5t58.5 -67q7 -39 -29 -85t-98 -59q-71 -13 -119 9.5t-63 60.5zM508 1028q-11 41 24 85.5t103 60.5q72 15 123.5 -5t58.5 -67q7 -39 -29 -85t-98 -59q-71 -13 -119 9.5t-63 60.5z" />
<glyph unicode="&#xfd;" horiz-adv-x="792" d="M19 -286q38 118 173 196q130 75 318 90q10 120 10 201q-32 -95 -81.5 -147t-104.5 -52q-46 0 -94.5 22.5t-92.5 66.5t-71 121.5t-23 174.5q3 104 17 215.5t28 147.5q10 29 125 57q111 27 145 14q11 -4 7 -12q-7 -14 -26.5 -89.5t-39.5 -185t-29.5 -213t10 -176.5 t72.5 -73q25 0 45.5 18.5t35.5 54.5t26.5 75t20.5 95t14.5 98.5t11.5 100.5q6 147 27 248q6 29 115 57q108 28 151 16q16 -4 12 -14q-41 -119 -60.5 -256t-32 -298.5t-30.5 -264.5q218 -7 373 -133q8 -9 7.5 -17.5t-8 -14t-15.5 -1.5q-9 5 -36 21t-36 21t-32 17t-35.5 16.5 t-35 13.5t-40.5 12.5t-42.5 8t-51 6.5t-56.5 3q-23 -115 -61.5 -205.5t-82.5 -147t-97 -93.5t-101.5 -51.5t-97.5 -14.5q-143 0 -207 89q-58 78 -24 182zM206 -388q8 -85 54 -109q13 -7 27 -7q53 0 93 39.5t73.5 143.5t52.5 274q-169 -8 -251 -140q-58 -94 -49 -201z M292 987q-1 15 3 19q29 35 118.5 144.5t137.5 164.5q5 6 57.5 -40t100.5 -94.5t41 -50.5q-35 -12 -140 -45t-180.5 -59.5t-124.5 -50.5q-11 -5 -13 12z" />
<glyph unicode="&#xfe;" horiz-adv-x="425" d="M23 -369q12 96 26.5 395t32 700.5t31.5 625.5q1 14 71.5 24t139.5 9.5t65 -13.5q-75 -294 -119 -649q56 113 162 113q39 0 77.5 -16t76 -50t63 -87.5t37.5 -129t0 -174.5q-14 -114 -58.5 -199.5t-102 -128t-119.5 -58t-116 0t-87 55.5q-30 -377 -39 -465 q-2 -17 -39.5 -26t-72 8.5t-29.5 64.5zM209 115q20 -60 68 -56q54 4 101 85q49 85 64 218q25 169 6.5 257t-94.5 88q-17 0 -31 -6.5t-24.5 -21.5t-19 -31t-15 -42.5t-10.5 -48.5t-8 -57t-6.5 -59.5t-6.5 -65t-6 -64.5z" />
<glyph unicode="&#xff;" horiz-adv-x="792" d="M19 -286q38 118 173 196q130 75 318 90q10 120 10 201q-32 -95 -81.5 -147t-104.5 -52q-46 0 -94.5 22.5t-92.5 66.5t-71 121.5t-23 174.5q3 104 17 215.5t28 147.5q10 29 125 57q111 27 145 14q11 -4 7 -12q-7 -14 -26.5 -89.5t-39.5 -185t-29.5 -213t10 -176.5 t72.5 -73q25 0 45.5 18.5t35.5 54.5t26.5 75t20.5 95t14.5 98.5t11.5 100.5q6 147 27 248q6 29 115 57q108 28 151 16q16 -4 12 -14q-41 -119 -60.5 -256t-32 -298.5t-30.5 -264.5q218 -7 373 -133q8 -9 7.5 -17.5t-8 -14t-15.5 -1.5q-9 5 -36 21t-36 21t-32 17t-35.5 16.5 t-35 13.5t-40.5 12.5t-42.5 8t-51 6.5t-56.5 3q-23 -115 -61.5 -205.5t-82.5 -147t-97 -93.5t-101.5 -51.5t-97.5 -14.5q-143 0 -207 89q-58 78 -24 182zM156 1008q-11 41 24 85t103 60q72 15 123.5 -5t58.5 -67q7 -39 -29 -84.5t-98 -58.5q-71 -13 -119 9.5t-63 60.5z M206 -388q8 -85 54 -109q13 -7 27 -7q53 0 93 39.5t73.5 143.5t52.5 274q-169 -8 -251 -140q-58 -94 -49 -201zM489 1008q-11 41 24 85t103 60q72 15 124 -5t59 -67q7 -39 -29 -84.5t-98 -58.5q-71 -13 -119.5 9.5t-63.5 60.5z" />
<glyph unicode="&#x152;" horiz-adv-x="2539" d="M52.5 381.5q-21.5 145.5 10.5 327.5q28 156 96.5 286.5t157.5 216.5t193.5 145.5t206 82.5t193 18t157.5 -39q44 -23 -33 -43q-67 -18 -115 -16q-8 1 -10 2q-42 39 -91 46.5t-99 -15t-100.5 -67.5t-96.5 -111.5t-85.5 -145t-70 -170.5t-47.5 -186q-31 -156 -28 -291 t34 -236t102 -163t175 -72q142 -12 267.5 103.5t203.5 318.5q9 43 35 100q23 80 37 158q7 42 14 98q-90 -32 -192 -22.5t-189 63.5q-61 39 -98 93.5t-47 111t5 114t52.5 104t101.5 79.5t146 41q90 9 174 -18t150 -87q54 82 147 139t194.5 79.5t201 23.5t177.5 -23.5 t113 -66.5q62 -77 24.5 -168.5t-154.5 -145.5q-185 -83 -454 -18q-30 7 -61 16q-63 -205 37 -327q123 39 242 31q67 -3 85 -51q17 -46 -22 -89q-53 -57 -160 -51q-89 4 -182 55q-50 -47 -88 -131q-2 -5 -5.5 -15.5l-6.5 -19.5t-7 -16q-7 -24 -14 -63q-28 -133 12.5 -228.5 t134.5 -140t226 -35.5q135 7 218 96.5t85 221.5q1 128 -67 179t-163.5 -3t-162.5 -199q-5 -13 -17 -6q-15 8 -6 29q64 155 213 224q127 60 253 31q114 -25 155 -109q18 -37 18 -81q1 -117 -83.5 -220.5t-215.5 -165.5t-272 -71q-157 -9 -310.5 50.5t-228.5 169.5 q-128 -114 -282 -170.5t-297 -44.5q-128 12 -230 72.5t-168.5 165t-88 250zM691 1023q0 -55 31.5 -109.5t88.5 -92.5q81 -51 175 -62.5t177 15.5q5 93 1.5 171t-22 139t-50 101t-82.5 58t-119 10q-64 -7 -111.5 -41.5t-68 -84t-20.5 -104.5zM1473 1110q239 -102 377 -31 q80 42 96 125q14 77 -33 129q-17 19 -52.5 30.5t-86.5 8t-103 -26t-106 -83t-92 -152.5zM1516 670q57 -40 139 -47q52 -2 70 15t-2.5 36t-63.5 22q-80 4 -143 -26z" />
<glyph unicode="&#x153;" horiz-adv-x="1392" d="M49 457q28 234 183 346q108 77 231 69q99 -7 140 -66q14 -19 18 -42q2 -11 -12 -13q-24 0 -40 13q-14 65 -63 67q-55 2 -113 -73q-81 -106 -102 -285q-53 -426 88 -426q146 0 186 330l4 24q-138 8 -189 89t-1 158t160 77q80 0 143 -49q70 83 163.5 132.5t178.5 49.5 q133 0 201 -59t63 -152q-8 -141 -143 -288.5t-299 -180.5q32 -60 70.5 -92.5t97.5 -38.5q77 -7 157 33.5t134 100t71 116.5q10 38 29 44q11 5 12 -11q1 -9 -2 -23q-10 -54 -52.5 -112.5t-102.5 -106t-140 -74.5t-157 -20q-81 6 -162.5 42t-138.5 97q-63 -69 -150 -102 t-170 -33q-42 0 -85.5 15.5t-86.5 51.5t-74 87.5t-45 130.5t-2 174zM428 522q30 -74 143 -82q11 146 -1.5 197t-67.5 51q-38 0 -65 -49q-32 -60 -9 -117zM811 453q-19 -151 20 -242q49 12 90 49t68 89t44.5 110t23.5 119q8 91 -7 156t-53 65q-59 0 -113 -91t-73 -255z" />
<glyph unicode="&#x178;" horiz-adv-x="1132" d="M45 -430q17 103 123 187q148 119 375 124q116 2 241 -28q64 175 97 325q-71 -97 -145.5 -148t-174.5 -48q-111 3 -187 131t-106 334t-16.5 475t72.5 546q3 14 72 20.5t136 2.5t64 -18q-25 -135 -43 -243t-36.5 -224t-29 -206t-19 -182.5t-8.5 -162t5 -135t18.5 -110.5 t34.5 -79.5t52 -51.5t71 -18q103 -1 173 102.5t116 303.5q50 387 39 981q0 8 29.5 17t71.5 15.5t83.5 10t71 2t28.5 -9.5q-109 -1289 -288 -1659q131 -46 239 -107q12 -6 -6.5 -35t-46.5 -53t-39 -16q-96 70 -194 123q-65 -105 -158 -183t-187.5 -117.5t-187.5 -55t-166 -5 t-115 40.5q-76 56 -59 154zM259 -335q-17 -79 30 -134q10 -11 22 -20q33 -24 70 -36t86 -6.5t95.5 34.5t98 97.5t95.5 172.5q-250 102 -395 24q-85 -45 -102 -132zM467 1642q-11 41 24 85.5t103 60.5q72 15 123.5 -5t58.5 -67q7 -39 -29 -84.5t-98 -58.5q-71 -13 -119 9 t-63 60zM801 1642q-11 41 24 85.5t103 60.5q72 15 123.5 -5t58.5 -67q7 -39 -29 -84.5t-98 -58.5q-71 -13 -119 9t-63 60z" />
<glyph unicode="&#x2c6;" horiz-adv-x="722" d="M68 952q87 77 201.5 187t148.5 153q13 16 35.5 15t35.5 -19q2 -2 218 -358q4 -7 -3.5 -14.5t-13.5 -2.5q-162 159 -264 250q-1 0 -24.5 -41.5t-65 -112.5t-76.5 -126q-7 -12 -122 34q-77 30 -70 35z" />
<glyph unicode="&#x2dc;" horiz-adv-x="593" d="M49 1102q-5 15 1.5 24.5t15 12t10.5 0.5q32 -25 55 -27t41.5 14.5t36.5 37.5t48.5 42t68.5 27q77 11 134 -38.5t91 -123.5q3 -6 -6.5 -10.5t-12.5 0.5q-30 32 -46.5 41.5t-31 1.5t-27 -22.5t-44 -33.5t-72.5 -28q-85 -17 -166 8t-96 74z" />
<glyph unicode="&#x2000;" horiz-adv-x="995" />
<glyph unicode="&#x2001;" horiz-adv-x="1991" />
<glyph unicode="&#x2002;" horiz-adv-x="995" />
<glyph unicode="&#x2003;" horiz-adv-x="1991" />
<glyph unicode="&#x2004;" horiz-adv-x="663" />
<glyph unicode="&#x2005;" horiz-adv-x="497" />
<glyph unicode="&#x2006;" horiz-adv-x="331" />
<glyph unicode="&#x2007;" horiz-adv-x="331" />
<glyph unicode="&#x2008;" horiz-adv-x="248" />
<glyph unicode="&#x2009;" horiz-adv-x="398" />
<glyph unicode="&#x200a;" horiz-adv-x="110" />
<glyph unicode="&#x2010;" horiz-adv-x="792" d="M64 379q-12 24 26 38q17 7 43 9q13 1 205.5 26.5t345.5 41.5q14 1 29 -66.5t17 -124.5t-9 -63q-141 47 -330 86t-299 36q-19 -1 -28 17z" />
<glyph unicode="&#x2011;" horiz-adv-x="792" d="M64 379q-12 24 26 38q17 7 43 9q13 1 205.5 26.5t345.5 41.5q14 1 29 -66.5t17 -124.5t-9 -63q-141 47 -330 86t-299 36q-19 -1 -28 17z" />
<glyph unicode="&#x2012;" horiz-adv-x="792" d="M64 379q-12 24 26 38q17 7 43 9q13 1 205.5 26.5t345.5 41.5q14 1 29 -66.5t17 -124.5t-9 -63q-141 47 -330 86t-299 36q-19 -1 -28 17z" />
<glyph unicode="&#x2013;" horiz-adv-x="997" d="M64 379q-12 24 26 38q17 7 43 9q12 1 307 36.5t449 51.5q14 1 29 -66.5t17 -124.5t-9 -63q-118 40 -410 72.5t-424 29.5q-19 -1 -28 17z" />
<glyph unicode="&#x2014;" horiz-adv-x="1202" d="M64 379q-12 24 26 38q17 7 43 9q18 2 413.5 37t547.5 51q14 1 29 -66.5t16.5 -124.5t-9.5 -63q-115 39 -504 72.5t-534 29.5q-19 -1 -28 17z" />
<glyph unicode="&#x2018;" horiz-adv-x="333" d="M23 768q10 62 24 126.5t26 112t33 116t32.5 104.5t37.5 114.5t37 110.5q5 18 20 19t27 -8t10 -15q-29 -92 -39 -185.5t-3 -180.5t19.5 -154t33.5 -142q3 -13 -63 -23t-132 -9.5t-63 14.5z" />
<glyph unicode="&#x2019;" horiz-adv-x="362" d="M63 766q45 118 57 252.5t0 236.5t-38 199q-4 13 61.5 24t132 10.5t64.5 -15.5q-29 -175 -83 -342.5t-136 -372.5q-7 -17 -22.5 -17t-26.5 9.5t-9 15.5z" />
<glyph unicode="&#x201a;" horiz-adv-x="333" d="M53 414q-3 13 63 23t132 9.5t63 -14.5q-10 -62 -24 -126.5t-26 -112t-33 -116t-32.5 -104.5t-37.5 -114.5t-37 -110.5q-5 -18 -20.5 -19t-27.5 8t-10 15q29 92 39.5 185.5t3 180t-20 154t-32.5 142.5z" />
<glyph unicode="&#x201c;" horiz-adv-x="577" d="M23 752q29 175 83 341.5t136 372.5q7 17 22 17t26 -9.5t9 -15.5q-34 -90 -50 -188t-13 -188t14.5 -165.5t30.5 -146.5q4 -13 -61.5 -23.5t-132 -10t-64.5 15.5zM307 768q12 74 26.5 142.5t38 148.5t36.5 121t47 142t43 130q5 18 20 19t27 -8t10 -15q-29 -92 -39.5 -185.5 t-3 -180t20 -154t32.5 -142.5q3 -13 -63 -23t-132 -9.5t-63 14.5z" />
<glyph unicode="&#x201d;" horiz-adv-x="577" d="M39 1438q-3 13 63 23t132 9.5t63 -14.5q-12 -74 -26.5 -142.5t-38 -148.5t-36.5 -121t-47 -142t-43 -130q-5 -18 -20 -19t-27 8t-10 15q29 92 39.5 185.5t3 180t-20 154t-32.5 142.5zM305 766q45 118 57 252.5t0 236.5t-38 199q-4 13 61.5 24t132 10.5t64.5 -15.5 q-29 -175 -83 -341t-137 -374q-7 -17 -22 -17t-26 9.5t-9 15.5z" />
<glyph unicode="&#x201e;" horiz-adv-x="577" d="M53 414q-3 13 63 23t132 9.5t63 -14.5q-10 -62 -24 -126.5t-26 -112t-33 -116t-32.5 -104.5t-37.5 -114.5t-37 -110.5q-5 -18 -20.5 -19t-27.5 8t-10 15q29 92 39.5 185.5t3 180t-20 154t-32.5 142.5zM319 -258q45 118 57 252.5t0 236.5t-38 199q-4 13 61.5 24t132 10.5 t64.5 -15.5q-29 -175 -83 -342.5t-136 -372.5q-7 -17 -22.5 -17t-26.5 9.5t-9 15.5z" />
<glyph unicode="&#x2022;" horiz-adv-x="450" d="M50 658q28 61 100 98q74 36 147 27.5t106 -56.5q34 -51 8 -112.5t-98 -96.5q-72 -39 -148.5 -31t-109.5 60q-33 50 -5 111z" />
<glyph unicode="&#x2026;" horiz-adv-x="1376" d="M219 63q-2 30 23.5 59t74.5 32q51 6 82.5 -16.5t34.5 -53.5q2 -29 -23.5 -59t-74.5 -35q-52 -3 -83 19.5t-34 53.5zM678 63q-2 30 23.5 59t74.5 32q51 6 82.5 -16.5t34.5 -53.5q2 -29 -23.5 -59t-74.5 -35q-52 -3 -83 19.5t-34 53.5zM1137 63q-2 30 23.5 59t74.5 32 q51 6 82.5 -16.5t34.5 -53.5q2 -29 -24 -59t-75 -35q-52 -3 -82.5 19.5t-33.5 53.5z" />
<glyph unicode="&#x202f;" horiz-adv-x="398" />
<glyph unicode="&#x2039;" horiz-adv-x="491" d="M49 439.5q2 26.5 17 35.5q1 2 70.5 35.5t176 87.5t179.5 98q4 2 9 -1.5t6.5 -8.5t-1.5 -8q-191 -144 -320 -268l16 -9q17 -9 45 -24.5t61.5 -34.5t74 -44.5t74.5 -49.5q10 -9 -14 -110q-16 -66 -23 -60q-37 47 -111 113.5t-156.5 134t-93.5 77.5q-12 10 -10 36.5z" />
<glyph unicode="&#x203a;" horiz-adv-x="491" d="M50 122.5q-2 5.5 1 8.5q38 34 96.5 86t89 79t63.5 58.5t50 51.5q-2 0 -43.5 17t-112 50.5t-128.5 67.5q-12 7 7 110q12 68 19 62q33 -34 92.5 -82.5t110 -85t110.5 -79.5t72 -52q13 -10 13.5 -35.5t-15.5 -36.5q0 -1 -66.5 -33t-168 -88t-172.5 -106q-4 -4 -10 -1t-8 8.5 z" />
<glyph unicode="&#x205f;" horiz-adv-x="497" />
<glyph unicode="&#x20ac;" horiz-adv-x="1251" d="M3 431q-11 25 26 37q17 6 43 7l100 6q-10 114 4 224q-61 2 -145 2q-19 0 -28 18q-12 25 28 38q17 5 41 7q9 1 31.5 2t44 2.5t40.5 3.5q44 205 140 365q-93 38 -178 82q-12 7 1.5 33t36 46.5t33.5 12.5q74 -55 158 -103q66 87 157 149t182.5 91t180.5 38t159 -4t109 -42 q68 -50 51 -136q-16 -91 -114 -160q-145 -104 -373 -87q-89 7 -184 33q-60 -121 -98 -297l253 22q14 2 24.5 -48t10 -99t-13.5 -45q-134 39 -295 55q-12 -99 -12 -184q141 10 282 24q14 1 25.5 -50t11.5 -93.5t-12 -46.5q-133 37 -303 57q19 -182 97 -286t204 -107 q108 -1 177.5 95.5t82.5 225.5q16 159 -92 222q-26 11 -13 26q18 20 64 13q102 -8 171 -61t69 -134q1 -88 -41.5 -172.5t-112.5 -146.5t-166 -98.5t-196 -33.5q-158 5 -298 133t-184 341q-66 4 -151 4q-19 0 -28 19zM580 1159q236 -92 370 -8q78 49 92 136q12 74 -30 116 q-5 6 -11 10q-39 28 -85.5 31t-100.5 -21.5t-115 -91.5t-120 -172z" />
<glyph unicode="&#x2122;" horiz-adv-x="2166" d="M45 1018q-13 25 19 38q18 7 49 7q67 0 115 1t123 4.5t129 6.5t205 12t280 17q14 1 30.5 -54t20.5 -102.5t-8 -54.5q-35 4 -159.5 21t-193.5 24q-24 -95 -73.5 -279t-77.5 -304t-43 -222q-2 -17 -22 -24q-26 -11 -36 21q-6 19 -2 52q14 107 18.5 312t20.5 460 q-62 5 -184 24.5t-184 20.5q-18 0 -27 19zM925 133q-3 20 7 53q34 104 67.5 227.5t61 232.5t113.5 454q8 17 99.5 14t125.5 -16q10 0 10 -6q15 -80 50 -299.5t61 -325.5q22 74 68 281t81 348q8 17 99.5 14t125.5 -16q11 0 11 -7q17 -89 48 -257.5t50 -267t46.5 -221.5 t53.5 -208q7 -18 -10 -33q-23 -19 -46 17q-9 14 -17 37q-22 69 -46 134.5t-41.5 110t-72 181.5t-94.5 239q-26 -57 -75 -161t-84.5 -182t-62.5 -148q-11 -27 -39.5 -24.5t-37.5 28.5q-20 57 -81 203t-116 288q-16 -36 -83.5 -184.5t-92 -204t-63 -149.5t-60.5 -158 q-5 -16 -25 -20q-27 -4 -31 26z" />
<glyph unicode="&#x25fc;" horiz-adv-x="901" d="M0 0v901h901v-901h-901z" />
</font>
</defs>
</svg>
